<?xml version="1.0" encoding="utf-8"?>
<!-- Generator: Adobe Illustrator 24.2.1, SVG Export Plug-In . SVG Version: 6.00 Build 0)  -->
<svg version="1.1" id="Ebene_1" xmlns="http://www.w3.org/2000/svg" xmlns:xlink="http://www.w3.org/1999/xlink" x="0px" y="0px"
	 viewBox="0 0 841.9 595.3" style="enable-background:new 0 0 841.9 595.3;" xml:space="preserve">
<style type="text/css">
	.st0{fill:none;stroke:#000000;stroke-width:2;stroke-miterlimit:10;}
	.st1{fill:none;stroke:#000000;stroke-width:2;stroke-linecap:round;stroke-linejoin:round;stroke-miterlimit:10;}
	.st2{fill:#FFFFFF;stroke:#000000;stroke-width:2;stroke-miterlimit:10;}
	.st3{fill:none;stroke:#020203;stroke-width:2;stroke-linecap:round;stroke-linejoin:round;stroke-miterlimit:10;}
	.st4{fill:none;stroke:#020203;stroke-width:2;stroke-linecap:round;stroke-miterlimit:10;}
</style>
<path class="st0" d="M135,174.8c0.5,0.5,1.1,1.2,1.7,2.2c0.6,1.1,1,2.2,1.1,2.9"/>
<path class="st0" d="M139.3,167.7c-0.1,0.5-0.2,1.1-0.3,1.6c-0.4,0.7-0.7,1-0.6,1c0.1,0.1,1.1-1.1,3.1-3.4c0.9-1.5,1.8-2.9,2.7-4.4
	c0.7-2.2,1.4-4.3,2.2-6.5c0.3-2.5,0.6-5,0.9-7.4c-0.3-2-0.5-4-0.8-6c-0.6-1.3-1.1-2.6-1.7-3.9c-1.2-1.4-2.4-2.8-3.6-4.2
	c-1.8-1.6-3.6-3.2-5.4-4.9c-1.9-0.9-3.9-1.8-5.8-2.7c-1.7-0.1-3.4-0.3-5-0.4c-1-0.5-1.9-0.9-2.9-1.4c-1.3,0-2.9,0.1-4.5,0.3
	c-3.2,0.5-5.8,1.4-7.8,2.3c-2.2,2.4-4.5,4.8-6.7,7.2c-1.4,2.9-2.7,5.7-4.1,8.6c-0.7,3.1-1.4,6.2-2.1,9.3c-0.7,2.3-1.4,4.6-2.1,6.9
	c-1.5,4.6-3,7.4-4.1,9.1c-1.1,1.7-1.7,3.8-2.8,5.6c-0.3,0.4-0.7,1.1-0.6,1.9c0.1,0.9,0.7,1,1,2.2c0.1,0.3,0.4,1.4-0.1,2.3
	c-0.4,0.7-0.8,0.5-1.5,1.3c-0.6,0.7-0.8,1.5-1,2.5c-0.2,0.7-0.3,1.1-0.3,1.6c0,0.9,0.4,1.3,1,2.9c0.4,1.2,0.7,1.8,0.6,2.2
	c-0.1,0.9-0.8,1-2.8,2.9c-1.7,1.5-2.1,2.2-2.3,2.6c-0.4,0.8-0.7,1.8-0.7,1.9c-0.1,0.2-0.2,0.7-0.3,1.6c-0.1,1.1-0.1,1.9-0.1,2.5
	c0,0.9-0.1,1.9-0.3,3.8c-0.2,2.6-0.4,2.9-0.2,3.6c0.1,0.3,0.5,1.6,1.6,2.5c1.2,0.9,2,0.6,2.5,1.4c0.7,1.1-0.3,2.6,0,2.7
	c0.4,0.2,2.7-2.6,2-4.1c-0.4-0.9-1.8-1-1.7-1.3c0.1-0.3,1.5-0.3,2.7-0.3c1.6,0,1.7,0.2,2.6,0.1c0.9-0.1,1.9-0.1,2.9-0.8
	c1.2-0.7,1.6-1.8,2-2.7c0.9-2,0.7-3.7,0.6-4.1c-0.1-1.1-0.4-1.2-1.5-3.8c-1-2.5-1.5-3.7-1.2-4.6c0.1-0.3,0.3-0.6,2.8-2.7
	c1.9-1.6,2.1-1.6,3.1-2.5c1.1-0.9,2.1-1.9,3.2-3.3c0.8-1,0.8-1.3,1.8-2.9c0.7-1.1,1.6-2.4,2.7-3.8"/>
<path class="st0" d="M106.8,180.1c1.1-0.2,2.3-0.5,3.4-0.7l4.3,0.6l2,1.4l2.2,1.2l3.9-0.6l6.5-0.6l5.3-1.4h5.2h2.5l3.7,3.7l3.5,7.3
	l0.9,4.7l1.2,4.7v3.8v4.3l-1.1,6.6l0.1,3.8l-0.7,4.5l-0.4,5.6l-0.3,3.9v3.7v2.4l0.5,3.1l1.8,4.9l2.3,5.7l2.6,6.5l1.4,6l2.7,10.2
	l3.4,13.7l2.4,9.1l1.6,2.6l0.9,4.5v3.5l3.3,9.4c0.2,1.6,0.5,3.3,0.7,4.9c-0.2,1-0.3,2-0.5,3c-0.3,1.2-0.7,2.4-1,3.7l-1.6,2.9
	l-2.4,3.8l-1.7,2.5l-0.6,1.4l0.5,3.6l1.5,9.3l0.9,5.8l2.4,8l0.6,7.2l1,7.1l0.4,1.9l2,3.4l1.4,9.4l1.4,11.1l2.7,14.2l2.9,19.1
	l2.7,14.9l0.3,4.6l0.9,3l0.7,2.6v1.2l-1.4,2.1l-3.3,1.3l-7.5,1.7l-3.2-0.3l-3.1-1l-3.4-2.7l-1.2-1l0.6-4l-2.1-12.4l-5.7-16.2
	l-8.9-24.2l-8.8-20.2l-8.5-18.5l-4.6-12.1c-1.1-2.4-2.3-4.8-3.4-7.2c-1.1-2.2-2.1-4.5-3.2-6.7l-2.2-4.2l-4.2-6.4l-3.3-5.5l-4.5-6.7
	l-1-1.6l-2.5-5.2l-1-2.8v-4.9v-4.9v-5l1-3.3l1.1-4.3"/>
<path class="st0" d="M122.7,352.3c-0.7,2.3-1.4,4.7-2.1,7l-3.7,12.3l-4.6,12.4l-1.1,2.9l-0.6,4.8l-1.9,7.9l-2.4,8.3l-0.8,6.2
	l-0.6,4.6l-1,3.5l-2.3,7.9l-0.5,4.5l-1.3,12.6l-0.6,8.8l-1.6,9.1l-0.6,6v1.9l-0.7,0.5h-1.6l-2.4-1.2l-5.9-0.5l-4.4-0.7l-5.3-0.4
	l-2.2-1.1v-2.8l0.8-2.3l0.5-5.6v-10.4l0.6-8.9l0.5-14.3l0.6-7.3l0.7-5.7l0.9-10.7l1.1-7.2l1.5-8l2.2-14.5l3.3-11l1.7-6.9l0.3-2.9
	l-1.6-8.1l-1-5.6l-0.6-5.1l-0.2-7.6v-7.2l1.2-8l2.2-8.3l2.4-5.5l2.1-4.9l2.1-4.8l1.4-4.4l1.9-2.4l2.5-4.1l2.8-5l0.5-1.9l-0.9-0.9
	l-0.2-4.8l0.8-4l0.2-0.7l0.7-0.5l-3.9-4.4l-4.6-4.9l-3.4-4.1l-1.8-5.7l-2.5-5.5l-3.8-2.6l-2.2-2.6l-0.7-1.3l-0.5-6.5l-0.9-7
	c0.2-0.2,0.3-0.5,0.5-0.7"/>
<path class="st0" d="M149.1,239.1c-0.4-1.7-0.9-3.5-1.3-5.2l-1.1-6.7l-1.5-8.1l-0.9-9.3l-1.4-10.5l-1-7.8l-0.6-3.3l-1.2-2.5
	l-1.6-1.3l-0.9-0.7c0.6-1.2,1.3-2.4,1.9-3.6"/>
<path class="st0" d="M137.6,183.6c-0.8,2.2-1.7,4.5-2.5,6.7l-1.5,5.6l-1.9,7.2l-1.7,7.8l-1.3,6.6l1,7.6l2.1,6.2l1.4,7.1l1.8,6.9
	l1.1,5l0.6,6.1l1,3.8l2.3,5.3l3.2,6.2l4.8,8.2l4,8.1l3.6,6.2l3.1,5.6l1,2.1l0.5,3.3l-1.3,4.2l-0.5,3.2v1l1.4,4.2l1,2.9l1.6,3.8
	l0.4,3l-0.3,2.9l0.3,2.9l0.6,1.7c0.6,1.8,1.2,3.5,1.8,5.3"/>
<path class="st0" d="M117.5,265.2c-0.8,0.2-1.7,0.3-2.5,0.5l-5.6,1.3c-1.5,0.5-2.9,0.9-4.4,1.4"/>
<path class="st0" d="M138.5,262.3c-1.3,0-2.6,0-3.9,0l-3.8,1l-3.5,0.6h-2.4c-1.5,0.2-3,0.4-4.4,0.7"/>
<polyline class="st0" points="116,255.3 108.6,256.8 105.5,257.4 "/>
<path class="st0" d="M136.2,252.4c-1.3,0-2.6,0-3.9,0l-5.4,0.9l-4.1,0.9c-1.4,0.2-2.9,0.4-4.3,0.6"/>
<path class="st0" d="M118.1,253.3l-2.2,0.5v2.9l0.8,3.4l0.8,3.1v4.1l3.1-0.4v-1.5c0,0-0.1-0.9-0.1-0.9c0,0-0.6-4.3-0.6-4.3
	c-0.4-1-0.9-2-1.3-3.1l0-3.7L118.1,253.3z"/>
<path class="st0" d="M82.9,226.9c0,1.8-0.1,3.6-0.1,5.4l0.4,7.8l0.3,6.2l0.4,7.8l0.6,8.8l0.5,5l0.4,3l1.4,3l1.3,4.3l2.4,8.8
	c0.7,2.3,1.4,4.7,2.1,7"/>
<polyline class="st0" points="100.9,276.5 99.6,272.4 98.2,269.5 97.9,265.7 98.1,261.6 99.1,255.1 99.2,250.4 "/>
<polyline class="st0" points="122.1,182 122.7,180.2 124.2,178.9 125.8,178.1 127.7,178.8 129.9,179.6 132.3,179.3 134.1,176.7 
	135.7,173.2 138,169.2 139.6,167.4 140.5,164.6 140.5,159.9 142.2,156 142.8,153.6 142.8,150.5 142.8,146.7 142.3,142.5 
	139.9,139.6 136.5,137.5 133.3,136.9 129.3,137.7 125,140.1 122.1,141.6 118.6,145.3 116.6,148.4 114.1,151.3 112.5,153.4 
	109.6,160.7 107.8,164.2 108.2,165.5 109.7,167.9 110.4,171.2 109.8,175 108.3,178 106.8,180.1 "/>
<polyline class="st0" points="186.5,467.8 187.9,470.7 188.9,472.7 190.2,474.7 190.2,476.5 190.2,478.6 187.6,480.8 185.4,481.8 
	183,481.4 181.4,479.3 179.4,476.7 177.2,476.2 175,475.9 173,475.6 172.7,473.7 171.9,471.7 "/>
<path class="st0" d="M173,475.6c-1.2,1.3-2.5,2.7-3.7,4l-1.9,1.8l-1.8,3.6l-1.2,6.2l-0.6,4.1l-0.7,2.3v2.6l1.3,1.7l4.3,1.3l2.8,1
	l4.3,1.2l2.6,0.8h4.2l4-1.1l2.2-0.9l0.7-1.2l0.6-3.6l5.5-0.3l1,2.4l0.9,0.5l7-0.7l3.3-0.8l1.2-0.7l0.6-1.8l0.5-1.1l1.2,0.1l0.5,0.8
	l0.8-0.1l1.2-2l1.1-3v-2.7l-0.2-1l-0.1-0.4l-0.3-1.2l-1.1-2.9l-1.8-1.6l-2.6-0.9l-2.5-0.5l-1.9,0.3l-2.1-3.2l-3-2.7l-2.7-2.1l-2.6-1
	l-2,0.6c-0.6,0.3-1.2,0.6-1.8,0.9"/>
<path class="st0" d="M214.6,489.1c-0.6,0.6-1.2,1.1-1.7,1.7l-1.8,1.5l-1,0.9l-0.6,0.3l-2.4-0.7l-3.9-1.7l-1.9-0.4l-1.3,0l-1.3,0.7
	l-1.5,1.3l-1.6,1.7l-1,0.3h-2.8h-2.2l-1.5-1.5l-1.1-0.3l-3.3,0.3l-2.9,0.6h-1.2l-1.8-0.8l-2.2-2l-3.2-1.9l-2.6-0.2l-2.6,0.2
	c-0.8,0.2-1.6,0.5-2.5,0.7"/>
<path class="st0" d="M96.4,473.7v1.1l0.2,0.3l0.1,0.2l0.1,0.3l0.3,0.6l0.3,1.2v2.2l-0.2,1.3l-1.1,0.9l-1.7,1.1h-1.5h-1.4l-1.9-2.3
	l-1.3-1.6l-1.2-0.5l-2.7-0.2l-2.5-0.2l-1.3,0.5l-1.1,1l-0.9,2.7l-0.4,2.2l-0.4,1.2l-0.5,2.3l0.3,2.6l-0.3,1.8l-0.3,2.4l-0.6,2.3
	l-0.8,1.3l-0.3,1l-0.5,1.8l-0.8,2.8v1.8l0.7,1.4l1.3,0.3h3.6h3.4l5.3,0.6h3.2h2.4l1.5-1l1.5-3.4l0.3-3.1l-0.5-1.7l0.5-0.5l0.5,0.9
	l0.4,1.3l0.6,0.3l2-0.2l3.5-1.1l2.1-1l0.8-1.2c-0.1-1.9-0.1-2.6,0-2.6c0.1,0,0.3,1.4,0.5,1.3c0.2,0,0.3-0.6,0.4-1.4l0.2-2.5v-2.4
	l-0.5-1.1l-0.5-0.6l-0.4-3.2l-0.8-1.7l-2.3-1.4l-0.7,0.1l-0.9-0.6l-1.6-1.5l-0.8-1.6l-1.2-1.5l-0.5-1l-0.5-0.5
	c-0.2-0.1-0.4-0.2-0.6-0.2"/>
<path class="st0" d="M75.1,499.5c0.7-0.5,1.5-1,2.2-1.5l2.9-0.4l2.3-0.2l2,0.3l2.5,0.9l1.6,0.9l1.9,1.4l1.1,0.8l0.7,0.4l0.9,0.5H94
	l1-0.4l0.8-0.5l0.2-0.8l0.2-1.4v-1.8l0.9-0.7l0.8-3.1l1.6-1.4l1.8-1.5l1.5-0.6l1.3,0.6l1.3,0.4l0.6-0.1l0.8-1.5
	c0.2-0.3,0.4-0.7,0.6-1"/>
<polyline class="st0" points="82.8,471.4 82.8,473.7 82.8,475.3 82.8,476.4 82.5,478.2 "/>
<path class="st1" d="M611.2,214.7c0.4,0.5,0.9,1.2,1.6,2c0.8,0.9,1.3,1.6,2.1,2.4c1.3,1.4,1.6,1.5,2,2.2c0.4,0.7,0.2,0.8,0.7,2
	c0.7,1.7,1.5,2.9,1.9,3.5c0.5,0.8,0.9,1.4,1.6,2.1c0.8,0.8,1.5,1.2,2,1.5c0.4,0.3,1.6,1,3.4,1.6c2,0.7,2.5,0.4,3.2,1.1
	c0.2,0.2,0.1,0.1,1.3,1.7c0.6,0.7,0.7,0.9,1,1.3c0.2,0.2,0.4,0.6,0.9,1.4c0.5,0.8,0.7,1.2,0.9,1.4c0.5,1,0.4,0.9,0.8,1.5
	c0.6,0.9,1.2,1.5,1.6,1.8c0.7,0.6,1.1,0.7,1.2,0.8c0.7,0.3,1.3,0.2,1.4,0.2c0.5-0.1,1-0.2,1-0.4c0-0.1-0.5-0.1-1.3-0.4
	c-0.3-0.1-1.2-0.4-1.9-1c-0.4-0.4-0.6-0.8-1-1.4c-0.1-0.2-0.2-0.4-0.3-0.6c-0.2-0.5-0.1-0.7-0.2-1.3c-0.1-0.5-0.2-0.5-0.3-0.9
	c-0.1-0.5-0.1-0.9,0.1-1.1c0.4-0.3,1.2-0.1,1.7,0.2c0.3,0.2,0.3,0.3,0.9,1c0.5,0.5,0.5,0.4,0.8,0.8c0.5,0.6,0.5,0.7,1.1,1.4
	c0.2,0.3,0.9,1,1,1c0.1,0,0-0.3-0.2-0.8c-0.1-0.5-0.1-0.6-0.1-1.1c-0.2-1.2-0.5-1.7-0.3-1.8c0.1-0.1,0.2,0,0.8,0.3
	c0.5,0.3,0.4,0.2,1.1,0.5c0.9,0.4,0.8,0.4,1.3,0.6c0.3,0.1,0.7,0.2,1.2,0.3c0.4,0.1,0.8,0.1,1.4,0c0.6-0.1,1.2-0.4,1.1-0.5
	c0-0.1-0.4,0.1-1.1,0c-0.2,0-0.6,0-1.1-0.2c-0.2-0.1-0.4-0.2-0.9-0.6c-0.4-0.3-0.4-0.3-0.7-0.5c-0.5-0.4-0.6-0.4-0.9-0.6
	c-0.4-0.3-0.6-0.6-1-1.1c-0.4-0.5-0.7-0.9-0.8-1.5c0-0.2-0.3-1.2,0.1-1.4c0.1,0,0.2-0.1,1.5,0.5c0.7,0.3,0.9,0.4,1.3,0.5
	c0.1,0,0.4,0.1,1,0.2c0.5,0.1,1.1,0.1,2,0.1c1.2,0,1.8,0,2.5-0.4c0.3-0.1,0.5-0.3,1-0.6c0.2-0.1,0.7-0.5,1.2-1
	c1.1-1.1,1.8-2.4,1.6-2.5c-0.1,0-0.9,0.8-0.9,0.9c-0.4,0.5-0.5,0.6-0.7,0.7c-0.4,0.2-0.7,0.3-1.2,0.3c-0.5,0.1-0.9,0.1-1.1,0
	c-0.5,0-1.4-0.1-2.3-0.7c-0.2-0.1-0.8-0.5-1.1-1.1c-0.2-0.4-0.3-0.8-0.4-1.5c-0.1-0.6-0.2-1.2-0.2-2c0-1.3,0.3-1.2,0.3-2.3
	c0-0.4-0.1-1.1-0.4-2.5c0-0.2-0.2-1-0.4-2c-0.2-0.9-0.3-1.4-0.4-1.7c-0.2-0.6-0.3-0.8-0.9-2.1c-0.6-1.2-0.8-1.7-1.1-2.3
	c-0.6-1.4-0.5-1.4-0.9-2.3c-0.2-0.4-0.6-1.1-1.5-2.4c-0.9-1.4-1-1.6-1.2-1.8c-0.6-0.6-0.8-0.6-1.4-1.4c-0.6-0.6-0.5-0.8-1-1.3
	c-0.4-0.4-0.8-0.7-1.4-1.2c-0.7-0.5-0.9-0.6-2.2-1.5c-1-0.6-1.5-1-1.6-1.1c-0.3-0.3-1-1-1.2-2.3c0-0.2-0.2-1.1,0.3-2.2
	c0.1-0.4,0.6-1.3,0.9-1.2c0.4,0.1-0.1,1.4,0.7,2.8c0.5,0.9,1.4,1.5,1.8,1.8c0.5,0.3,0.5,0.3,1.7,0.9c0.6,0.3,1.5,0.8,2.5,1.4
	c1.1,0.7,1.1,0.8,2.3,1.6c0.9,0.6,0.9,0.5,2,1.1c1.9,1.1,2.4,1.7,2.5,1.9c0.3,0.4,0.5,0.8,0.8,1.5c1.2,2.9,1.7,5,1.9,4.9
	c0.1,0,0.1-0.4,0-1.1c0-0.6-0.1-1-0.1-1.1c0-0.1,0-0.2-0.1-0.3c-0.1-0.3-0.2-0.6-0.2-0.7c-0.1-0.3-0.2-0.7-0.3-1
	c-0.2-0.7,0-0.9-0.2-1.3c-0.2-0.8-0.6-0.7-1.4-1.9c-0.5-0.8-0.4-0.9-0.9-1.3c-0.4-0.3-0.5-0.3-1.3-0.7c-0.6-0.4-0.6-0.5-1.3-0.9
	c-0.7-0.5-0.8-0.4-1.6-0.9c-0.4-0.2-0.8-0.5-1.7-1.2c-1.5-1.1-1.3-1-1.7-1.3c-1.2-0.7-1.4-0.6-2-1.2c-0.4-0.4-0.6-0.8-1-1.5
	c-0.4-0.8-0.6-1.2-0.6-1.6c0-0.6,0.2-0.8,0.1-1.4c0-0.3-0.1-0.3-0.3-0.9c-0.1-0.3-0.3-1-0.3-1.9c0-0.4,0-0.7,0.1-1.2
	c0.1-0.9,0.2-1,0.3-1.6c0.1-0.6,0-0.6-0.1-1.9c0-0.6,0-0.7,0-1.4c0-0.9,0-1.3-0.1-1.5c-0.2-0.7-0.7-1.1-1.1-1.6
	c-0.1-0.1-0.5-0.5-1.3-1c-0.8-0.5-1-0.5-2.3-1.1c-1.4-0.7-1.5-0.9-2.3-1.1c-0.8-0.2-0.8-0.1-1.8-0.3c-1-0.2-1.8-0.4-2.4-0.9
	c-0.5-0.4-0.7-0.9-1-1.8c-0.1-0.2-0.3-0.8-0.4-1.7c-0.1-0.9,0-1-0.1-1.7c-0.1-0.6-0.2-0.6-0.5-1.8c-0.3-1.1-0.3-1.2-0.6-2.2
	c-0.3-1-0.4-0.9-0.5-1.6c-0.2-0.9-0.1-1.1-0.4-1.7c-0.3-0.7-0.5-0.6-0.7-1.3c-0.4-1,0-1.4-0.4-2.1c-0.1-0.2-0.2-0.2-1.2-1.1
	c-0.4-0.3-0.8-0.7-1.2-1.1c-0.5-0.6-0.7-0.8-1.1-1.4c-1-1.3-1.4-1.3-2.4-2.6c-0.1-0.1,0,0-1.1-1.5c-1.1-1.6-1.2-1.7-1.4-2.1
	c-0.5-0.9-0.5-1-1-1.9c-0.5-0.8-0.9-1.3-1.1-1.6c-0.4-0.6-1.1-1.3-2-2.2c-0.7-0.7-1.5-1.4-2-1.8c-0.6-0.5-0.9-0.7-1.3-1.2
	c-0.6-0.6-0.5-0.7-1.1-1.4c-0.4-0.5-1-1-2.1-2.1c-0.7-0.7-1.1-1-1.3-1.2c-0.8-0.7-0.9-0.7-2.3-1.7c-0.9-0.7-1.3-1-1.4-1.1
	c-0.5-0.5-0.6-0.6-1-0.7c-0.5-0.2-0.7-0.1-1.6-0.3c-0.6-0.1-0.6-0.2-1.5-0.5c-0.2,0-0.5-0.1-1-0.2c-0.5-0.1-1.1-0.2-1.9-0.3
	c0,0-0.6,0.1-1,0.1c-1.2,0.1-1.2,0.1-1.6,0.2c-0.4,0.1-0.8,0.2-1,0.3c-0.9,0.3-1,0.5-1.4,0.5c-0.4,0-0.5-0.1-1.1-0.4
	c-0.3-0.1-1.2-0.4-2.2-0.5c-0.3,0-0.2,0-1.9,0.2c-1.1,0.1-1.2,0.1-1.5,0.2c-0.6,0.2-0.6,0.4-1.4,0.8c-0.7,0.4-0.8,0.2-1.3,0.5
	c-0.5,0.3-0.5,0.4-1.1,0.9c-0.4,0.3-0.4,0.2-1.1,0.7c-0.1,0.1-0.3,0.2-1.1,0.8c-0.8,0.6-1.2,0.9-1.3,1c-0.5,0.4-0.9,0.8-1.2,1.2
	c-0.2,0.2-0.6,0.7-1,1.2c-0.7,1-1,1.9-1.1,2.2c-3.6,6.7-6.1,10.8-6.9,13.8c0,0.2-0.3,1.1-0.8,2.9c-0.3,1.3-0.4,1.6-0.6,2.1
	c-0.5,1-1,1.6-1.6,2.3c-0.7,0.8-1.3,1.4-1.9,1.8c-0.2,0.2-0.7,0.6-1.6,1.1c-1.9,1.2-2.2,1.1-3.6,1.9c-1.2,0.8-2,1.6-2.7,2.4
	c-0.7,0.8-1.1,1.4-1.4,2.1c-0.2,0.5-0.2,0.9-0.2,1c-0.1,0.5,0,0.8,0.1,1.7c0.1,0.9,0,0.3,0.2,1.9c0,0.4,0.1,0.9,0.2,1.6
	c0.1,0.5,0.1,0.8,0.1,1.2c0,1.1-0.1,1.3-0.2,1.4c-0.2,0.2-0.4,0.4-0.7,0.6c-0.2,0.1-0.4,0.2-0.7,0.4c-0.1,0-0.3,0.1-0.7,0.2
	c-0.6,0.1-1,0-1,0.1c0,0.1,0.5,0.3,0.7,0.3c0.3,0.1,0.5,0.1,0.5,0.1c0,0,0.1,0,0.2,0c0.7,0,1.5-0.5,1.5-0.5c0.4-0.2,0.8-0.4,1.1-0.8
	c0.2-0.2,0.4-0.6,0.5-1.2c0.1-0.8,0-1.3-0.1-2.2c-0.2-1.4-0.1-0.9-0.3-2.8c-0.3-1.8-0.3-1.8-0.3-2.2c0.2-1.3,1-2.2,1.3-2.6
	c0.5-0.6,1-1,1.4-1.2c0.4-0.3,0.7-0.5,1.3-0.9c0.8-0.5,1.3-0.8,1.9-1.1c0.7-0.3,1.2-0.5,1.8-0.6c0.4-0.1,0.5,0,1.1-0.1
	c0.9-0.1,1.1-0.2,1.2-0.1c0.1,0.1,0,0.4-1.1,1.7c-0.7,0.9-0.8,0.9-1,1.3c-0.5,0.8-0.4,0.9-0.9,1.6c-0.8,1.2-1.1,1.1-1.6,2.1
	c-0.2,0.3-0.5,0.9-0.5,1.7c0,0.5,0.1,0.6,0.2,1.7c0.1,0.5,0.1,1.1,0.1,1.8c0,1-0.1,1-0.2,2c0,1.4,0.2,1.6,0.1,2.6
	c0,0.5-0.2,1.2-0.6,2c-0.1,0.3-0.3,0.6-0.6,0.9c-0.3,0.5-0.9,1.2-1.9,1.6c-0.6,0.3-1.2,0.4-1.8,0.4c-0.3,0-0.5,0.1-1.8,0.1
	c-1.2,0-1.8,0-2,0c-0.6,0-1.5-0.1-2.5-0.4c1.1,0.9,2,1.2,2.6,1.4c0.7,0.2,1.4,0.3,1.6,0.3c0.3,0,0.9,0.1,1.5,0.1
	c0.6,0,1.4,0,2.3-0.3c0.7-0.2,1.2-0.5,2.2-1.1c1.1-0.7,1.6-1,1.9-1.4c0.3-0.5,0.1-0.6,0.4-1.9c0.3-1.4,0.5-1.4,0.6-2.3
	c0-0.3,0-0.9,0-2c0-0.1,0-0.8,0-0.8c0.1-0.7,0.2-0.9,0.4-1c0.4-0.1,0.7,1,1.9,2.3c0.8,0.9,0.9,0.7,1.4,1.4c0.8,1.1,1,2.3,1.1,2.8
	c0.1,1,0,1.9-0.2,2.7c-0.2,1.2-0.3,1.7-0.7,2.3c-0.2,0.3-0.7,0.8-1.8,1.7c-1.1,1-1.2,1-1.4,1.3c-0.1,0.2-0.7,0.9-0.9,2.1
	c-0.1,0.6-0.2,1.1,0.1,1.7c0.5,1.1,1.7,1.5,2.2,1.6c1,0.4,1.1,0,2.1,0.4c1.3,0.5,2.3,1.5,2.3,1.5c0,0.2,0.1,0.6,0.4,0.8
	c0.8,0.7,2.5,0.1,4.8-0.7c1.9-0.7,3.2-1.3,4.3-1.9c0.7-0.3,1.4-0.7,2.1-1.2c0.9-0.5,1.5-0.9,2.2-1.5c0,0,0.7-0.6,1.2-1.3
	c0,0,0-0.1,0-0.1c0.1-0.1,0.1-0.1,0.1-0.2c0,0,0.1-0.1,0.1-0.2c0.4-0.6,0.8-1.7,0.8-1.7c0.5-0.9,0.8-1.2,1-1.6
	c0.6-1,0.1-1.6-0.2-4.5c-0.3-2.4-0.1-3.1-0.9-3.8c-0.5-0.5-0.8-0.4-1.7-0.9c-1.3-0.8-2-1.9-2.4-2.6c-1.2-2.1-0.5-2.8-1.7-6.1
	c-0.4-1.1-0.5-0.9-1-2.2c-0.8-2-1.1-3.6-1.4-5.3c-0.6-3.2-0.2-3.4-0.4-6.2c0-0.3-0.1-1,0.3-1.8c0.2-0.4,0.4-0.6,0.5-0.8
	c0.5-0.7,1.1-1.1,1.3-1.3c0.6-0.5,0.9-1.2,1.6-2.7c0.6-1.2,0.4-1,1.5-3.7c0.7-1.6,0.7-1.6,0.9-2.2c0.3-0.9,0.2-1.2,0.6-1.6
	c0.2-0.2,0.4-0.4,1.8-1.2c0.8-0.5,1.2-0.7,1.4-0.8c1.2-0.7,1.8-1,2.5-1.3c1.1-0.4,1.9-0.6,2.8-0.8c1.5-0.3,2.8-0.5,4.5-0.3
	c0.3,0,1.9,0.2,3.6,1c1.6,0.7,2.6,1.6,3.1,2.2c1.8,1.7,1.4,2.3,3.4,4.8c0.4,0.6,1,1.3,1.3,2.2c0.1,0.2,0.1,0.5,0.3,1
	c0.2,0.6,0.4,0.8,0.6,1.3c0.3,0.9,0.2,0.9,0.4,1.5c0.4,1,1.3,1.6,1.6,1.8c0.8,0.5,1.2,0.4,1.8,1c0.2,0.2,0.4,0.4,0.7,1.1
	c0.6,1.3,0.7,2.5,0.8,3.2c0.1,1,0,0.8,0,2.7c0,1.7,0.1,2,0.1,3.2c0,0.4-0.1,1-0.2,2.1c-0.1,0.8-0.2,1.7-0.4,2.8
	c-0.4,2.4-0.6,3-0.7,3.3c-0.4,1-0.9,1.7-0.9,1.7c-0.3,0.4-0.4,0.6-0.7,1.1c-0.1,0.2-0.1,0.2-0.8,1.4c-0.4,0.7-0.6,0.9-0.8,1.4
	c-0.5,1-0.6,1.8-0.7,2.9c-0.1,1.1-0.1,2,0,3c0,0.3,0.1,0.7,0.1,1.7c0.1,1,0.1,1,0.2,2c0.2,2.1,0.1,2,0.2,2.2c0.1,0.5,0.3,0.7,0.1,1
	c-0.1,0.3-0.4,0.3-1,0.7c-0.4,0.2-0.4,0.3-0.9,0.7c-0.4,0.3-0.7,0.4-1.5,1c-0.8,0.5-1.1,0.7-2,1.2c-1.2,0.7-1.2,0.7-2.3,1.3
	c-0.5,0.3-0.6,0.4-1.4,0.8c-0.9,0.5-1.1,0.6-1.7,1c-0.8,0.4-1.1,0.7-1.6,0.9c-0.8,0.4-1.4,0.7-1.6,0.8c-0.9,0.4-0.9,0.3-1.7,0.7
	c-1.4,0.6-1.4,0.8-1.9,0.8c-0.4,0-0.9-0.4-1.9-1.2c-1.1-0.8-1.1-1-1.7-1.3c-0.8-0.4-0.9-0.3-1.3-0.7c-0.2-0.2-0.3-0.3-0.9-1.6
	c-0.7-1.4-0.7-1.5-0.8-1.7c-0.1-0.3-0.1-0.4-0.2-0.9c0,0-0.1-0.3-0.1-0.6c-0.1-0.6-0.4-1.2-0.6-1.6"/>
<path class="st1" d="M611.2,214.7c-1.9-2-2.7-2.7-3.1-3.1c0,0-0.1-0.1-0.1-0.1c-0.2-0.2-0.6-0.6-1.2-1.1c-0.1-0.1-0.4-0.4-1.8-2
	c-0.2-0.2-0.6-0.7-1.1-1.2c-0.6-0.6-0.9-0.9-1.1-0.8c-0.2,0.1,0,1.1,0.5,1.9c0.3,0.4,0.4,0.5,0.5,0.9c0.1,0.4,0.1,0.7,0,1.3
	c-0.1,0.6-0.2,1.1-0.2,1.2c0,0.1-0.1,0.5-0.4,1c-0.2,0.4-0.3,0.5-0.4,0.9c-0.2,0.4-0.1,0.4-0.4,1c-0.2,0.6-0.3,0.6-0.4,1.1
	c-0.2,0.5-0.3,0.9-0.3,1.1c-0.1,0.4-0.1,0.4-0.2,1.2c-0.1,0.7-0.2,1.3-0.2,1.3c-0.1,0.7-0.1,0.8-0.1,1c0.1,0.4,0.2,0.7,0.5,1.1
	c0.2,0.3,0.4,0.5,0.7,0.8c0.3,0.3,0.4,0.4,0.7,0.8c0.3,0.4,0.6,0.7,0.5,0.7c-0.1,0.1-1.2-0.7-2.1-1.7c-0.7-0.8-1-1.6-1.1-1.8
	c-0.3-0.8-0.4-1.4-0.4-1.6c0-0.4-0.1-1,0.1-1.7c0.2-0.6,0.3-0.6,0.5-1.3c0.1-0.3,0.2-0.6,0.3-1.3c0.2-1.2,0.2-1.2,0.3-1.6
	c0.2-0.8,0.4-0.8,0.5-1.4c0.1-0.5,0-0.9-0.1-1.8c-0.1-0.9-0.2-1-0.4-1.9c-0.1-1,0-0.9-0.2-1.3c-0.3-0.9-0.7-0.9-1.2-2
	c-0.2-0.5-0.2-0.6-0.4-1c-0.1-0.2-0.3-0.4-0.9-1.2c-0.8-0.9-0.8-0.8-1-1c-0.3-0.5-0.3-1.1-0.3-1.7c0-0.7,0.1-1.1,0.2-1.6
	c0.1-0.4,0.1-1.1,0.2-1.9"/>
<path class="st1" d="M597.8,195.8c0.1-0.4-0.1-0.9-0.5-1.1c-0.4-0.3-1-0.2-1-0.2"/>
<path class="st1" d="M556.5,201.5c-0.7,0.4-1.3,0.6-1.7,0.7c-0.1,0,0,0-1.5,0.4c-0.8,0.2-0.9,0.3-1.1,0.3c-0.4,0.1-0.5,0.1-1,0.2
	c-0.2,0-0.4,0.1-0.9,0.2c-0.6,0.2-0.7,0.2-1.3,0.4c-0.3,0.1-0.4,0.1-0.8,0.2c-1.4,0.4-1.4,0.4-1.8,0.5c-0.2,0.1-0.6,0.2-1.5,0.6
	c-0.7,0.3-1.1,0.4-1.6,0.7c-0.5,0.2-0.8,0.4-1.2,0.6c-0.4,0.2-0.6,0.3-1.2,0.6c-0.2,0.1-0.6,0.3-1.1,0.7c-0.5,0.3-0.7,0.4-0.8,0.5
	c-0.3,0.3-0.4,0.6-0.6,1.2c-0.1,0.3-0.2,0.6-0.3,1.1c-0.2,0.7-0.2,0.8-0.3,1.1c-0.1,0.3-0.3,0.6-0.4,0.9c-0.3,0.5-0.4,0.6-0.8,1.2
	c-0.3,0.5-0.2,0.4-0.8,1.3c-0.3,0.6-0.5,0.9-0.8,1.3c-0.5,0.8-0.6,0.7-0.8,1.1c-0.3,0.5-0.2,0.6-0.6,1.4c-0.2,0.5-0.3,0.5-0.5,1
	c-0.1,0.2-0.3,0.6-0.5,1.5c-0.2,0.7-0.2,1-0.4,1.9c-0.2,1.1-0.2,1-0.4,2c-0.2,0.9-0.3,1.3-0.4,2.3c-0.1,1.1-0.4,1-0.5,1.9
	c0,0.2-0.2,0.8-0.4,2.1c-0.2,0.9-0.4,1.2-0.4,1.7c0,0.4-0.2,1-0.2,1.4c0,0.2,0,0.3,0,0.4c-0.1,0.4-0.1,1-0.4,1.7"/>
<path class="st1" d="M548.5,279.9c-0.2,0.8-0.3,1.4-0.4,1.8c-0.1,0.5-0.1,0.8-0.2,1c0,0.2-0.1,0.5-0.1,0.8c-0.2,1.6-0.1,2-0.2,3.1
	c-0.2,2.2-0.7,3.9-1.4,6c-0.4,1.4-0.5,1.3-1.1,3c-0.6,1.7-0.8,2.6-1,3.8c-0.2,1.1,0,0.9-0.3,3.3c-0.1,0.9-0.2,2-0.5,3.3
	c-0.1,0.7-0.1,0.6-0.5,2.4c-0.5,2.5-0.5,2.4-0.6,3.1c-0.3,1-0.5,1.8-1,3.2c-0.4,1.1-0.5,1.3-0.8,2.2c-0.7,1.9-1.1,3.4-1.3,4
	c-0.5,1.8-0.3,1.6-0.9,4.6c-0.3,1.4-0.4,1.5-0.8,3.5c-0.4,1.7-0.4,1.8-0.6,2.7c-0.6,2.1-0.8,2-1,3.2c-0.3,1.6,0.1,1.8-0.2,3.7
	c-0.2,1.3-0.4,1.2-0.7,2.7c-0.4,2.1,0,2.4-0.4,4.2c-0.3,1.3-0.5,1.2-0.9,2.9c-0.3,1.3-0.5,2.3-0.6,3.8c-0.3,3-0.1,2.8-0.4,4
	c-0.3,1.4-0.6,1.4-1.7,4.2c-0.7,1.8-1.2,3.3-1.4,4.1c-0.5,1.6-0.4,1.6-1,3.6c-0.6,2.1-0.9,3.1-1.4,4.1c-0.5,1-1,1.8-2.1,3.4
	c-0.6,0.9-1.1,1.6-1.7,2.4c-1,1.4-1.5,2.1-1.8,2.3c-0.4,0.3-0.9,0.6-0.8,0.9c0,0.1,0,0.2,1,0.8c0.6,0.4,0.7,0.4,0.8,0.6
	c0.2,0.3,0,0.5,0.1,0.8c0,0.1,0.2,0.5,0.6,0.6c0.4,0.1,0.5-0.3,1.1-0.3c0.4,0,0.8,0.2,0.9,0.2c0.1,0.1,0.5,0.3,0.6,0.6
	c0.2,0.4,0,0.5,0.1,1.1c0.1,0.4,0.1,0.6,0.3,0.8c0,0,0.2,0.2,1.5,0.3c0.3,0.2,0.7,0.5,0.8,1c0.1,0.3,0,0.4,0,0.8
	c0,0.5,0.1,1.1,0.5,1.5c0.4,0.4,0.9,0.4,1.2,0.4c0.5,0,0.7-0.1,1.2-0.1c0.8-0.1,1,0.1,1.9,0.2c1.1,0.1,1.1-0.3,2.5-0.3
	c0.9,0,0.9,0.1,1.9,0.1c0.7,0,1.4-0.1,2.9-0.2c2-0.2,2.3-0.3,3.2-0.3c0.6,0,1.2,0.1,1.9,0.3c0.9,0.3,0.9,0.7,1.9,1
	c1,0.3,1.4,0.1,1.9,0.5c0.2,0.2,0.2,0.3,0.6,1.3c0.3,0.6,0.4,0.9,0.5,0.9c0.5,0.3,1.4,0.1,3.2-0.5c1.5-0.5,2.1-0.8,2.3-0.9
	c0.5-0.3,0.9-0.5,1.3-0.8c0.5-0.3,0.8-0.5,1.1-0.8c0.6-0.5,0.6-0.8,0.8-0.8c0.5-0.1,0.8,1,1.9,1.6c0.3,0.2,0.4,0.2,2.1,0.5
	c0.4,0.1,1.4,0.3,3.3,0.7c1.3,0.3,2,0.4,2.4,0.5c2.3,0.6,2.3,0.8,3.4,0.9c0.7,0.1,0.7,0,3.5-0.3c1.7-0.2,1.8-0.1,3.4-0.3
	c1.4-0.1,2.1-0.2,3-0.4c0.6-0.1,1.8-0.4,3.3-0.8c1.5-0.5,1.3-0.6,2.6-0.9c1.7-0.5,2.2-0.4,2.9-1c0.6-0.5,0.4-0.7,1.2-1.4
	c0.4-0.4,1-0.7,2.1-1.2c1-0.5,1.5-0.8,2.1-1c0.4-0.1,0.5-0.1,2.2-0.3c2.1-0.3,2.1-0.3,2.4-0.3c1.2,0,2.1,0.5,2.7,0.7
	c0.7,0.3,0.8,0.5,1.5,0.7c0.7,0.3,0.8,0.2,1.9,0.5c1.3,0.4,1.2,0.5,2,0.6c0.8,0.1,0.9,0,1.9,0.1c0.9,0.1,0.9,0.3,1.6,0.4
	c0.7,0.1,1.1,0,2.6-0.1c1.8-0.2,1.4-0.1,3.1-0.2c1.1-0.1,2-0.2,3.1-0.4c1.4-0.2,2.4-0.5,2.6-0.5c0.8-0.2,1.3-0.3,2.1-0.6
	c1.1-0.4,1.1-0.6,2.5-1.2c0.3-0.2,0.2-0.1,3.3-1.3c0.6-0.2,1.1-0.5,1.7-0.7c0.8-0.2,1.2-0.3,1.6-0.7c0.2-0.2,0.2-0.4,0.4-0.9
	c0-0.1,0.1-0.5,0.2-1.2c0.1-0.9,0-1,0.2-1.2c0.2-0.2,0.4-0.3,1-0.5c0.3-0.1,0.6-0.2,1.3-0.3c1.2-0.2,1.1-0.2,1.3-0.2
	c0.3-0.1,1-0.3,1.7-0.9c0.6-0.5,0.4-0.7,0.9-1.1c0.4-0.3,0.7-0.3,1.7-0.6c0.1,0,1.4-0.3,2.2-0.5c1.2-0.3,2.1-0.6,2.7-0.8
	c0.7-0.2,1.1-0.4,1.9-0.7c2.5-0.9,2.9-1.2,3.1-1.4c0.4-0.4,0.6-0.7,0.9-1.3c0.2-0.5,0.6-1.1,0.7-2.1c0.1-0.5,0.1-1-0.1-1.7
	c-0.2-0.4-0.4-0.7-0.9-1.3c-0.1-0.1-0.4-0.4-1.4-1.4c-0.6-0.6-0.8-0.7-1-0.9c-0.9-0.9-1-1.9-1.4-3.4c-0.2-0.8-0.1-0.1-1.6-4.3
	c-0.6-1.5-0.7-2-1.2-3c-0.5-1.1-0.6-1.4-1.1-2.3c-0.6-1.3-0.8-2-1.6-4.2c-0.8-2.1-0.2-0.5-1.8-4.8c-1.7-4.6-1.5-4.3-2-5.5
	c-1.4-3.6-1.5-3.4-2.1-5.2c-0.7-2.1-0.6-2.6-1.4-5.1c-0.5-1.5-1-2.8-1.3-3.4c-0.3-0.8-0.9-2-1.6-3.5c-0.6-1.2-1.1-2.1-1.4-2.7
	c-1.2-2.1-1.3-2.1-1.9-3.3c-0.7-1.5-0.5-1.5-1.5-3.8c-0.5-1.1-0.4-0.9-1.8-3.9c-1.4-3-1.4-3.2-1.9-3.9c-1.1-1.7-1.4-1.5-1.9-2.8
	c-0.6-1.4-0.5-2.1-1.4-2.8c-0.5-0.4-0.8-0.5-1.5-1.1c-0.5-0.5-0.8-0.9-0.9-1.2c-0.9-1.5-1.4-2.4-1.8-3.2c-0.3-0.4-0.9-1.4-2.2-3.2
	c-0.8-1.2-1.2-1.8-1.6-2.2c-0.4-0.5-0.7-0.8-2.3-2.5c-0.1-0.1-0.2-0.2-0.3-0.3c-1.2-1.3-1.9-2-2.1-2.2c-1.7-1.6-2.4-1.3-3-2.5
	c-0.3-0.5,0-0.4-0.5-1.8c-0.5-1.6-0.7-1.7-0.9-2.7c0-0.1-0.1-0.8-0.1-2.2c-0.1-1.7-0.1-1.9-0.1-2.4c-0.2-1.2-0.3-1.2-0.3-1.9
	c0-0.9,0.3-1.6,0.7-2.4c0.3-0.6,0.5-1.2,1-1.8c0.7-1,1.2-1,2.6-2.4c1-1,1.7-1.8,1.9-2.1c0.8-1,1.2-1.8,1.3-2
	c0.1-0.3,0.4-0.8,0.6-1.5c0.4-1.2,0.4-1.9,0.6-1.9c0.3,0,0.5,1.8,0.6,2.3c0.2,1.1,0.1,1.2,0.2,1.9c0.1,0.7,0.2,0.7,0.6,2
	c0.2,0.7,0.4,1.4,0.5,2.3c0.1,0.5,0.1,0.8,0.2,1.6c0.1,1.2,0.1,1.4,0.2,2.4c0,0.4,0.1,0.5,0.2,1.7c0.2,1.8,0.2,1.9,0.3,2.4
	c0.1,0.7,0.2,0.6,0.5,1.8c0.1,0.5,0.1,0.5,0.4,1.9c0.3,1.3,0.3,1.5,0.4,2c0.1,0.4,0.2,1,0.2,1.8c0,0.6,0.1,0.9,0,1.1
	c-0.1,0.2-0.2,0.5-1.4,1.4c-0.6,0.5-1,0.8-1,0.8c-1.2,0.7-2.3,1.4-3.5,2.1"/>
<path class="st1" d="M630.5,292.4c1-0.5,2.4-1.4,3.4-2.9c0.3-0.5,1.1-1.8,1.5-3.6c0.3-1.3,0.1-1.5,0.3-4.1c0-0.7,0.1-0.8,0.5-4.9
	c0.2-1.8,0.3-2.3,0.4-3.4c0.1-1.7,0.1-2.8,0.1-3.1c0-0.5,0-1.5-0.2-2.7c-0.2-1.5-0.3-1.7-0.6-3.9c-0.3-1.7-0.2-1.6-0.6-4
	c-0.2-1.6-0.4-2.3-0.6-3.4c-0.4-1.8-0.5-1.8-0.8-3.5c-0.4-2-0.6-3.6-0.7-4.1c-0.2-1.4-0.1-1.4-0.3-2.9c-0.2-1.4-0.3-1.6-0.5-3.1
	c-0.1-1.1-0.2-1.9-0.2-2.7c-0.1-1-0.1-2.2-0.2-3.7"/>
<path class="st1" d="M630.5,292.4c-0.2,0.1-0.6,0.3-1,0.5c-0.5,0.2-0.7,0.2-1.2,0.5c-0.6,0.3-0.7,0.4-1.2,0.6
	c-0.6,0.2-1,0.3-1.3,0.4c-0.7,0.1-2,0.5-4.6,1.5"/>
<path class="st1" d="M482.2,193.8c0.3-0.4,0.5-0.7,0.8-1.1l1.2-0.1l0.6,0.8l0.2,1l0.7,1.9l1.1,2l1,1.6l0.9,1l0.6,0.7"/>
<path class="st1" d="M480.9,190c0.4,0.1,0.9,0.3,1.3,0.4C481.8,190.3,481.3,190.1,480.9,190c-0.7-0.2-1.4-0.3-1.9-0.3
	c-0.2,0.2-0.4,0.4-0.6,0.6c0,0.3-0.1,0.6-0.1,0.9c0.1,0.3,0.2,0.6,0.3,0.8c0.2,0.2,0.5,0.4,0.7,0.6c0.3,0.2,0.6,0.5,0.9,0.7
	c0.4,0.1,0.8,0.1,1.3,0.2"/>
<path class="st1" d="M529.6,236.4c-2.3,12.9-3.3,16.5-3.8,16.4c-0.1,0-0.3-0.3-0.7-0.9c-0.2-0.3-0.5-0.7-0.9-1.1
	c-0.4-0.6-0.5-0.6-2.3-2.8c-1.2-1.4-1.8-2.1-1.9-2.3c-1.2-1.6-1.2-1.9-2.5-3.7c-0.9-1.2-0.9-1.1-2-2.5c-0.5-0.7-1-1.5-2.1-3.1
	c-1-1.4-1.6-2.3-1.7-2.6c-0.6-0.9-1-1.5-1.5-2.3c-0.2-0.4-0.7-1.1-1.2-2c-0.1-0.2-0.2-0.3-0.2-0.4c-0.3-0.5-0.5-0.9-0.5-1
	c-0.5-1-2.5-2.9-2.5-2.9c-1.4-1.4-0.9-1.3-3.3-3.9c-1.6-1.7-1.7-1.7-2.6-2.8c-0.6-0.7-1-1.3-2.5-3.7c-1.8-2.8-2.7-4.2-3-4.8
	c-0.6-1.2-4.1-10.9-4.1-10.9l-2.8-4.2l-1.9-2.2c-0.8-0.6-1.6-1.1-2.4-1.7"/>
<polyline class="st1" points="549.4,391.8 548.6,397.8 545.5,408 543.6,418.6 543.8,432.8 543.4,448.8 543.4,460.2 541.1,466.2 
	541.6,470.3 540.3,474.5 537.5,482.6 535.7,484.5 534.7,485.7 531.5,493.6 529.4,499.6 528.9,501.1 526.4,505.7 525.6,508.2 
	526,510.7 528.3,511.2 532.6,510.7 539.3,508.9 544.5,507.1 549.7,504.4 549.1,499.7 549.5,495.5 550,494 552.9,494.6 554.6,495.4 
	555.7,495.7 558.4,494.4 558.5,492.2 558.2,480.7 559.9,478 559.6,475.1 557.9,472.6 555.9,469.5 554.8,466.1 559.7,446.4 
	564.8,430.7 568.2,421.2 569.5,409.6 572.7,401 574.9,394.3 "/>
<polyline class="st1" points="555.6,468.4 554.4,474.6 552.6,480 549.2,487.3 544.7,493.2 542,495.6 537.8,496.2 534.5,496.6 
	532.9,496.1 533.5,493.2 535.1,489 536.7,483.5 "/>
<polyline class="st1" points="558.2,480.7 556.6,483.6 552.8,487.6 550.6,491.4 550,494 "/>
<polyline class="st1" points="594.3,388.2 596.2,397.4 597.1,407.6 596.4,415.4 597.9,427.5 600,444.1 600.5,456.1 601,459.5 
	598.8,463.1 597.5,464.9 598.1,469.8 597.5,472.6 596,474.7 596.4,478.1 598.2,482 600,486.5 600.4,490.1 600.7,496.9 601.4,498.6 
	603.2,499.6 607.4,500.6 612.1,501 618.1,500.2 620,498.2 621.5,494.4 621,490.4 618.2,486.3 615.9,478.5 613.6,473.9 612.7,468.3 
	611.8,457.9 612.4,452.7 616.9,433.8 618.4,418.3 619,404.3 618.3,392.7 618.2,389.3 "/>
<polyline class="st1" points="613.6,473.9 614,476.9 615.5,480.6 616.1,485.9 615.3,487.5 612.8,487.8 608.4,488.3 605.2,488.7 
	601.6,486.1 599.6,481.8 598.4,478.2 598,474.4 597.5,472.6 "/>
<path class="st1" d="M478.4,210c0.2,0.3,0.4,0.6,0.6,0.9l1.2,2.5l1.4,2.2l4.2,3.4l2.3,2.4c1.5,2,3,4,4.5,6c1.6,2.5,3.2,5,4.8,7.5
	c1.4,2.3,2,3.5,2.3,4.2c0,0.1,0.3,0.7,0.6,1.6c0.4,1,0.5,1.4,1.1,2.9c1,2.6,1.4,3.8,1.7,4.5c1.1,2.4,1.4,2.4,2.6,5
	c1,2.1,0.8,2.3,1.6,3.8c0.8,1.4,1.5,2.3,2.4,3.6c1.5,2,1.8,2,2.8,3.6c0.8,1.3,0.8,1.4,1.7,2.7c0.8,1.1,1.1,1.4,2.2,2.8
	c1.8,2.2,1.6,2.2,3.1,4.1c0.4,0.5,1.5,1.8,3,3.4c1.3,1.3,2.4,2.5,3.4,3.3c0.5,0.3,1.3,0.6,2.4,0.7c0.4,0,1.4,0.1,2.5-0.3
	c0.6-0.2,1-0.5,1.5-0.7c0.6-0.4,1-0.7,2.4-1.9c1.1-0.9,1.6-1.4,1.8-1.6c0.8-0.9,1.2-1.7,1.5-2.4c0.3-0.6,0.5-1.1,0.7-1.6
	c1.2-2.2,2.2-4.1,2.9-5.6c1-2.1,1.6-3.2,2-4.2c1.4-3.5,1.4-3.1,2-4.6c0.5-1.3,1.1-2.7,1.7-4.6c0.4-1.2,0.7-2.4,1.3-4.6
	c0.5-1.8,0.9-3.3,1.2-4.4c0-0.4,0,3.9,0.1,5.7c0,0.3,0,0.6,0,1c0.1,1,0.2,1.6,0.3,3.5c0,0.5,0,0.6-0.1,5.2c-0.1,2.7-0.1,3-0.1,3.7
	c-0.2,1.5-0.4,1.9-0.5,3.5c-0.1,0.9-0.1,1.3-0.1,3.1c0,1.5-0.1,3.3-0.2,4.6c-0.1,1.2-0.2,2.9-0.6,5"/>
<path class="st1" d="M480.9,195.6c-0.2,0-0.4,0-0.6-0.1c-0.4,0-0.8,0-1.2,0.1c-0.4,0.2-0.7,0.3-1.1,0.5l-0.6,1l-0.1,1.1l0.5,0.9
	l-1.2,1l-0.3,1l-0.1,1l0.5,0.8l-0.7,0.4l-0.7,1.4l0,1.6l0.8,0.8c0.1,0.1,0.2,0.3,0.4,0.4"/>
<line class="st1" x1="482.1" y1="194.1" x2="482.2" y2="193.8"/>
<polyline class="st1" points="485,209.3 484.1,207.2 483.9,205.7 484,204 484.2,202.8 482.8,200 482,197.9 481.8,195.2 482.1,194.1 
	"/>
<polyline class="st1" points="479.6,195.6 480.1,196.8 480.5,197.7 480.9,198.8 480.2,200 479.3,200.3 478.3,200.1 477.9,199.2 "/>
<polyline class="st1" points="476.8,203 477.5,204 478.6,204.7 479.6,204.9 480.1,204.6 480.9,203.6 480.8,202.8 480.1,201.9 
	479.4,201.2 478.7,200.6 478.3,200.1 "/>
<polyline class="st1" points="475.4,206.5 476.9,206.6 477.8,206.7 "/>
<path class="st1" d="M477.8,206.7l0.7-0.3l0.6-0.5l-0.1-0.5c-0.2-0.2-0.4-0.5-0.6-0.7"/>
<path class="st1" d="M476.6,207.7c0.2,0.2,0.4,0.3,0.5,0.5"/>
<path class="st1" d="M479.8,204.8c-0.2,0.7-0.3,1.4-0.5,2c0,0.6,0.1,1.1,0.1,1.7l0.5,0.5l1.3,0.6l1.8,0.7l0.8,0.3l0.3,0.5l-1.7-0.2
	l-1.5-0.3l-3.2-0.9l-3-0.7l-2.7-0.8l0-0.2l0.2-0.2l1.1-0.1c0.8,0.2,1.6,0.3,2.4,0.5c0.4,0,0.9,0,1.3,0c0.2-0.1,0.3-0.1,0.5-0.2
	c0.3-0.4,0.6-0.9,0.9-1.3c0-0.1,0.1-0.2,0.1-0.3"/>
<path class="st1" d="M481.9,196.3c-0.5,2-1,4-1.5,6"/>
<path class="st1" d="M480.5,197.5c0.8-3.4,1.7-6.9,2.5-10.3c-0.5-0.6-0.9-1.1-1.4-1.7c-0.4-0.4-0.8-0.8-1.2-1.3
	c-0.3-0.7-0.6-1.3-0.9-2c2.3-8.7,4.7-17.5,7-26.2c1.1,0.8,2.2,1.5,3.3,2.3c1.3,0.3,2.7,0.7,4,1c1.2,0,2.5-0.1,3.7-0.1
	c-1.3,4.5-2.5,9.1-3.8,13.6c-1.1,4.1-2.2,8.1-3.4,12.2c-0.7,0.5-1.5,0.9-2.2,1.4c-0.6,0.1-1.2,0.2-1.9,0.4c-0.8,0.2-1.5,0.4-2.2,0.6
	c-0.5,1.9-0.9,3.8-1.4,5.7"/>
<path class="st1" d="M479.4,201.2c0.1-0.4,0.2-0.7,0.3-1.1"/>
<polyline class="st1" points="497.5,159.3 494.5,156.9 490.4,155.8 486.5,156 "/>
<path class="st1" d="M481.8,173.3c1.3-0.6,2.5-1.3,3.8-1.9c1.6,0,3.3,0,4.9,0c1,0.6,2,1.3,3,1.9c-1.2,0.7-2.4,1.3-3.5,2
	c-1.8,0-3.6,0-5.4,0.1C483.7,174.6,482.8,174,481.8,173.3z"/>
<path class="st0" d="M756.3,189c-3.2,2.5-5.8,4.4-7.7,5.6c-3.1,2.1-4.7,2.8-8,5.2c-2.1,1.5-4.3,3.1-6.4,4.6c-2.9,1.5-6,3-9.1,4.4
	c-0.9,0.4-1.9,0.8-2.8,1.3"/>
<path class="st1" d="M707.6,271.1c-0.3,4.8-0.5,9.6-0.8,14.4v13.1l-6.7,80.9l-2.3,18.5l9,4.7l7.5,0.9l7.4-1.6h7.3l7.7,3.3l14.7-3.3
	l5-6.8l3.7-8.5l4.8-6.2l5.1-62.1v-11.9l0.4-15.4l1.9-13.5l-1.5-18.5l1.5-10.2c-2-10-4.1-20-6.1-29.9c-1.1-4.3-2.2-8.7-3.3-13
	c-1.2-2.2-2.4-4.4-3.6-6.6c-1-3.5-1.9-7-2.9-10.5c1.5-1,3.1-2.1,4.6-3.1c1.4-1.9,2.7-3.8,4.1-5.6c1.1-1.6,2.2-3.2,3.2-4.7
	c0.7-2.1,1.5-4.2,2.2-6.3c0.7-2,1.4-4,2.1-6.1c0.3,1.3,0.7,2.5,1,3.8c-0.1,1.5-0.1,3-0.2,4.5c-0.7,1.7-1.4,3.4-2.1,5.1
	c-0.8,1.9-1.6,3.9-2.4,5.8c-1.3,1.6-2.7,3.1-4,4.7c-1.2,0.8-2.5,1.7-3.7,2.5c-0.6,1.1-1.3,2.2-1.9,3.3c0,2.2,0,4.4,0,6.6
	c1.2,2.2,2.4,4.4,3.6,6.6c0.6,2.3,1.1,4.5,1.7,6.8c2.6,12.1,5.2,24.1,7.7,36.2c1.2-2.5,2.4-5.1,3.6-7.6c0.6-2.5,1.3-4.9,1.9-7.4
	c-0.3-3.7-0.5-7.4-0.8-11.1c-0.7-1.9-1.5-4.7-1.7-8.2c-0.3-4.5,0.4-7.9,0.6-8.7c0.7-2.9,1.4-3.8,3.5-8.5c1.3-2.9,3.2-7.2,4.5-11.5
	c0.8-2.8,1.8-6.9,1.9-12.2c-0.7-3.6-1.4-7.2-2.1-10.9c-1.1-1.6-2.2-3.2-3.3-4.9c-1.2-0.9-2.4-1.9-3.6-2.8c0.1-0.7,0.2-1.4,0.3-2.1
	c-0.6-0.4-1.3-0.9-1.9-1.3c-0.9,0.1-1.9,0.2-2.8,0.3c-1.3-0.2-2.5-0.4-3.8-0.6c-1.7-2.5-3.5-5.1-5.2-7.6c-3.5-2.4-7-4.8-10.5-7.3
	l-7.9-2.3l-10.2,3.1l-8.9,6.6l-6.6,6.2l-0.4,1.2c-1.2,3.9-2.4,7.8-3.6,11.6c-0.2,3.4-0.4,6.9-0.7,10.3c1.9,6.9,2.6,10.4,3,12.4
	c0.1,0.6,0.4,2.3,1.1,4.6c0.4,1.1,0.8,2.2,1.2,3.1c0.1,0.7,0.3,1.9,1.2,2.6c0.4,0.3,0.9,0.6,3.4,0.8c1.3,0.1,2.3,0.2,3.1,0.2
	c-1,0.7-2.1,1.5-3.3,2.2c-2.5,1.5-4.9,2.5-6.9,3.1c0.7,0.4,1.7,1.2,2.7,2.4c1.3,1.7,1.7,3.4,1.9,4.3c0,0.3,0,0.7,0.1,1
	c0,0-0.1,0-0.1,0l-3,1.1l0.3,2.6c-0.1,1.7-0.2,3.5-0.3,5.2c-0.8,2.6-1.9,5.6-3.5,8.9c-1.1,2.1-2.2,3.9-3.3,5.5
	c-0.7,3.4-1.5,6.9-2.2,10.3c-0.4,3.4-0.7,6.8-1.1,10.1"/>
<path class="st0" d="M719.2,211.3c1,0.7,2,1.6,3,2.6l0,0"/>
<path class="st0" d="M722.4,214c-0.1,0-0.1-0.1-0.2-0.1"/>
<path class="st0" d="M759.2,199.5l-6.2,8.1l-4.6,5l-8.1,5.8L733,223l-3.5,1.9c-1.1-2.7-3-6.5-6.3-10c-0.3-0.3-0.6-0.6-0.8-0.8"/>
<path class="st1" d="M735.7,243.4l-3.5,10c0,0-1.5,6.2-1.5,7.3c0,1.2,0,6.9,0,6.9v4.2c-0.4-0.3-0.9-0.6-1.3-0.8
	c-0.2,2.4-0.4,4.8-0.6,7.2c0.6,0.3,1.2,0.6,1.8,1c1.7,1.4,3.3,2.8,5,4.2l7.7,2.7l6.2,1.5c0.5,0.2,1.1,0.3,1.6,0.5
	c1-1.6,1.9-3.3,2.9-4.9c-0.4-0.3-0.9-0.6-1.3-0.9c0.7-1.2,1.4-2.3,2.1-3.5v-4.6l4.2-8.7l2.7-5.2c0.9-1.5,1.8-3.1,2.8-4.6"/>
<path class="st0" d="M730.7,271.9c2.6,1.8,5.3,3.6,7.9,5.4l9.1,3.5l5.2,1.6"/>
<path class="st0" d="M747.7,287.3c-0.7,1-1.9,2.4-3.6,3.8c-1.7,1.4-3.1,2.6-5.2,3.2c-2.9,0.7-5.5-0.2-6.8-0.8
	c-5.2-3.9-9.4-7.5-12.6-10.4c-5.4-4.9-9.3-9.1-12.6-12.6c-3.8-4.1-6.9-7.7-9.1-10.4c-1.4-1.6-2.9-3.1-4.3-4.7
	c-1.3-0.2-2.6-0.4-3.8-0.6l-3.3-1.5l-5-4l-2.3-5.6v-6.2l1.9-3.5c0,0,1.9-1.5,3.1,0c1.2,1.5,8,3.9,8,3.9l5.1,5.8l11.9,10.4
	c3.7,3.3,7.4,6.7,11.1,10.2c3.1,2.8,6.1,5.7,9.1,8.5"/>
<path class="st0" d="M745.5,403.3c-0.1,2.3-0.2,4.6-0.3,6.9c-0.1,2.8-0.2,5.6-0.3,8.4c1.1,2,2.5,4.7,4.1,7.9
	c1.2,2.5,3.3,6.1,4.6,10.8c1.4,5,2.7,10.1,4.1,15.1l1.5,5l3.9,2.3c2.1,1,3.4,0.7,5.6,1.6c0.8,1.3,1.6,2.6,2.4,3.8
	c0.4,1.1,0.8,2.3,1.2,3.4c-0.4,2.6-0.8,5.3-1.1,7.9l2.1,2.7c1.8,2.1,2.5,3.1,4.3,5.2c0.9,1,1.8,2,2.7,3c-0.6,0.6-1.2,1.3-1.7,1.9
	c-0.7-1.2-1.5-2.4-2.2-3.6c-1.2-1.4-2.5-2.8-3.7-4.3c-1.8-2.1-2.4-3-3.9-5l-0.9,4.3v2.5v3.4v3c0,0-0.2,1.6-0.2,2.3s-0.9,2.5-0.9,2.5
	l-1.6,3.2l-2.5,2.3l-5.7,3.2c0,0-3.9,2.3-4.6,2.5c-0.7,0.2-8.2,3.3-8.2,3.3c-0.6-0.2-1.2-0.5-1.8-0.7c0,0,0.4-1,0.4-1
	c0-0.1,0.8-2,0.9-2.1c0.5-0.5,0.9-1.1,1.4-1.6l1.6-2.1l2.5-3l1.6-3.2l1.1-2.5l-0.2-5.7l-1.6-8l-1.1-6.6l-1.1-7.1l-3-7.3l-2.7-7.5
	l-9.8-15.7L722,418.1l-6.4-9.1c-1.6-2-3.2-3.9-4.8-5.9"/>
<path class="st0" d="M745,418.6c-2.8-4.5-5.5-8.9-8.3-13.4"/>
<path class="st0" d="M742.1,450.7l-1.5,13v5.7v4.1v1.3l1.5,3.2l1.6,2.7c0.2,0.9,0.4,1.9,0.6,2.8c-0.3,1.4-0.7,2.7-1,4.1
	c-1,1.2-2.1,2.4-3.1,3.5l-1.9,2.7l-0.7,2.9l-0.6,3.8l-0.4,4.2h-2.3l0.9-4.1l0.5-3.2l-0.2-2.7l-0.2-2.3l-0.6-0.9l-1.5,0.7l-2.3,2.3
	l-2.6,3.3l-2.1,3.4l-0.9,1.9l-1.8,1l-4.2,1.5h-5.9l-10.5-1.3l-3-0.9l-0.9-0.7l0.6-1.2l1.6-0.7l3.2-1l8.6-2.9l2.4-0.9l3-5.8l2.9-6.8
	l2.6-3.9l1.1-6l0.8-12.1c0.6-5.2,1.2-10.3,1.8-15.5c0.7-6.4,0.6-12.5,0.5-18"/>
<polyline class="st0" points="762,459 763.1,462.3 763.8,466.1 762.9,475.7 761.6,485.9 760.6,494 755.6,495.1 752.3,495.1 
	751.1,494.7 "/>
<polyline class="st0" points="714.7,496.3 717.3,497.9 719,498.6 720.3,498.6 730.1,487.5 735.9,480.7 738.6,477.4 740.6,474.8 "/>
<path class="st0" d="M719.2,151.3c1.8-0.5,3.5-1.1,5.3-1.6l3-0.8v2.8l7,3.1l-0.3,4.2l0.3,4.4l6,2.1l3,0.6l-1.1,5.9
	c1.4,0.8,2.7,1.7,4.1,2.5c1.4-2,2.8-4.1,4.1-6.1l2.2-0.4l1.3,0.3l1.5,0.6l0.6,1.3l0.3,2.2c0,1.1,0,2.2,0,3.2c0.3,3-0.4,4.8-1.1,5.8
	c-0.6,0.9-1.7,1.8-1.8,3.4c-0.1,0.8,0,1.4,0,1.8c0.2,1.6,0.8,2.8,1.3,3.5"/>
<path class="st0" d="M734.2,204.5l0.2-2.3l-0.2-1.4l-0.5-1.7l-0.5-2.7l-1,0.5l-1.2,0.1c-1.6-0.1-3.2-0.1-4.7-0.2"/>
<path class="st1" d="M688.1,236.1c0.7-1.7,1.5-3.3,2.2-5c-0.5-0.2-1.3-0.7-1.9-1.5c-0.2-0.3-0.6-0.8-0.9-1.6
	c-0.1-0.3-0.2-0.6-0.1-1.1c0-0.2,0.1-0.9,0.7-1.4c0.1-0.1,0.4-0.2,0.8-0.4c0.7-0.3,0.8-0.3,0.9-0.5c0.2-0.3-0.2-0.5-0.2-1
	c0-0.6,0.5-0.7,1.1-1.9c0.2-0.3,0.2-0.5,0.4-0.6c0.5-0.3,1.1,0,1.2-0.1c0-0.1-0.5-0.2-0.5-0.6c-0.1-0.3,0.1-0.6,0.3-0.8
	c0.3-0.4,0.7-0.6,0.9-0.7c0.1-0.1,0.6-0.2,1.1-0.2c0.5,0,0.7,0.2,0.8,0.1c0.1-0.1,0.1-0.2-0.2-0.6c0,0-0.2-0.5-0.2-0.8
	c-0.1-0.5,0.1-1,0.1-1.2c0.1-0.2,0.3-0.8,0.9-1.2c0.3-0.2,0.6-0.3,0.7-0.4c0.5-0.2,0.8-0.3,0.8-0.4c0-0.1-0.3-0.1-0.6-0.3
	c-0.2-0.1-0.5-0.3-0.7-0.7c-0.1-0.2-0.2-0.3-0.2-0.5c0-0.5,0.5-0.6,1.2-1.6c0.3-0.4,0.3-0.5,0.5-0.6c0.5-0.2,1.1,0,1.1,0
	c0,0-0.6,0-0.7-0.4c0,0,0,0,0,0c-0.1-0.5,1.8-1.8,1.8-1.8c0.3-0.3,1.6-1.6,3.1-1.3c0.2,0,0.4,0.1,0.7,0.2c0.1-0.2,0.3-0.4,0.4-0.6
	c0.4-0.9,0.8-1.8,1.2-2.7c0.1-0.1,0.3-0.4,0.4-0.5c0,0,0,0,0,0c0.2,0,0.3,0.1,0.5,0.1c-0.1,0.2-0.2,0.4-0.2,0.7
	c-0.4,0.9-0.8,1.8-1.2,2.7c0,0.2-0.1,0.3-0.1,0.5c0.1,0,0.3-0.1,0.6-0.1c0.1,0,0.3,0,0.7,0.2c0.3,0.2,0.5,0.3,0.7,0.5
	c0.2,0.2,0.5,0.5,0.8,0.9c0.2,0.4,0.3,0.7,0.4,1c0.1,0.2,0.1,0.6,0.1,1c0,0.5,0,0.9-0.3,1.2c-0.1,0.1-0.2,0.1-0.3,0.2
	c-0.3,0.1-0.9,0.3-1.7,0.4l-0.2-0.7c-0.2,0.2-0.5,0.4-0.8,0.7c-0.2,0.2-0.4,0.5-0.7,0.9c-0.7,1.2-0.8,2.1-1.1,2
	c-0.2,0-0.3-0.4-0.3-0.4c0,0,0.1,0.4,0.2,0.8c0.1,0.4,0.2,0.6,0.2,0.9c0,0.2-0.1,0.4-0.2,0.9c-0.1,0.3-0.1,0.5-0.2,0.7
	c-0.1,0.3-0.2,0.5-0.4,0.7c-0.3,0.3-0.5,0.4-0.7,0.5c-0.3,0.1-0.4,0.2-0.6,0.2c-0.5-0.1-0.7-0.9-0.9-0.9c0,0-0.1,0.1-0.2,0.4
	c-0.1,0.3-0.1,0.3-0.2,0.4c-0.1,0.2-0.2,0.2-0.2,0.3c0,0.1,0.1,0.2,0.2,0.3c0.1,0.1,0.2,0.3,0.3,0.6c0,0.1,0.2,0.4,0.3,0.9
	c0.1,0.5,0.2,0.8,0.2,1.1c0,0.3-0.1,0.4-0.3,0.8c-0.1,0.3-0.3,0.5-0.5,0.9c-0.5,0.8-0.5,0.8-0.6,0.8c-0.1,0-0.1-0.2-0.1-0.5
	c-0.1-1-0.2-1.2-0.2-1.2c0,0-0.1,0-0.5,0.4c-0.3,0.4-0.4,0.5-0.7,0.8c-0.2,0.2-0.2,0.1-0.5,0.5c-0.6,0.6-0.6,0.7-0.6,0.8
	c0,0.1,0.2,0,0.4,0.1c0,0,0.1,0.1,0.2,0.3c0.1,0.1,0.1,0.3,0.2,0.5c0.1,0.3,0.1,0.5,0.2,0.6c0,0.1,0,0.2,0,0.5c0,0.3,0,0.5-0.1,0.6
	c-0.1,0.3-0.2,0.4-0.4,0.6c-0.2,0.2-0.3,0.4-0.4,0.4c-0.1,0.1-0.3,0.3-0.6,0.4c-0.1,0.1-0.3,0.1-0.5,0.2c-0.3,0.1-0.5,0.1-0.8,0.2
	c-0.2,0-0.5,0.1-1,0.1c-0.9,0.1-1.2,0.1-1.3,0.1c-0.3,0-0.5,0-0.7,0c-0.8,1.7-1.6,3.4-2.4,5.1"/>
<polyline class="st0" points="341.9,131.2 338.8,131.4 341.1,129.8 345.2,127.3 349.2,125.5 352.4,124.9 355.6,124.6 360.1,124.7 
	361.7,124.8 363.5,125.5 363.4,126.4 "/>
<path class="st0" d="M338.8,131.4l-2.7,0.6l-3.9,1.2l-5.7,3.2l-5.5,3.1l-5.5,4.3l-0.4,0.5l-2.7,3.3l-1.2,3.6L311,152l3.8,2.5
	l5.6-6.6l4.9-4.8l7-5.4l8.6-6l8-3.3l8.8-1.7l5.6-0.2l-0.2,2l-1.1,1.1l-1.5,0.7c-2.2,1.4-4.4,2.9-6.6,4.3"/>
<path class="st0" d="M314.6,144.9c-0.8-1.7-1.6-3.3-2.4-5l-2.5-5.5l-0.2-3l2-6.2l3-4.1l4.5-4.3l5.8-3.4l5.3-2.1l3.8-1.3l2.9-0.6
	l0.9,0.1l1.4,0.8l1.3,1.4l2.6,2.5l2.8,3.2c2.6,2.5,5.1,5,7.7,7.5"/>
<path class="st0" d="M324.4,178.3c-2.3-0.7-4.6-1.4-7-2.2c-6.1,3.6-12.1,7.2-18.2,10.8c-1,2.1-2,4.3-2.9,6.4
	c-0.3,3.5-0.7,7.1-1,10.6c-1,4.6-2,9.2-3,13.8c1,7.5,2,14.9,3,22.4c-1,3.5-2,7-3,10.6c-0.9,1.9-2,4.9-2.3,8.7
	c-0.4,4.2,0.4,7.5,1,9.6c0.7,2.4,1.4,4.8,2.2,7.2c2.5,2.3,5,4.6,7.5,6.9l-2.6,11.8l-1.7,14.3l-1.7,17l-3.1,18.6l-2.2,16.3l-1,13.3
	l-1.7,12.2c-0.5,1.7-0.9,4.2-0.8,7.2c0.1,2,0.5,3.8,0.8,5.1c1.2,0.4,2.9,1,5,1.5c4.1,0.9,6.9,0.8,10.3,0.8c6.8,0.2,6.7,0.9,12.9,1.1
	c3.2,0.1,7.7,0.1,13.2-0.6c0.5-0.6,0.9-1.3,1.2-1.9c5-8.7,3-18.9,1.3-24.6c0.4-3.9,0.8-7.7,1.2-11.6v-23.2v-17.7l0.4-15.8l1.5-18.4
	l0.6-15.1v-15.9v-17.3l-2.9-14.9C329,209.4,326.7,193.9,324.4,178.3z"/>
<path class="st0" d="M365.5,177.8c-2.1-1-5-2.3-5.5-2.5c-0.1,0-0.1,0-0.1,0c-0.6-0.1-1.2,0.3-1.2,0.3c-0.6,0.5-0.7,1.5-0.7,1.9
	c0,3.3,0,6.6,0,9.9l-1.9,9.3l-2.9,11.5l-3.7,12l-1.2,9.9l1.1,10.1l3.1,8.1l2,7.6v13.8l-0.9,13.1l-1.3,15.3l-2.4,17.6l-2,11l-0.8,9.5
	l-1.4,12.7l-1.8,10.8l-2.8,10.9l-1.7,10.2l-0.7,11.8c0.6,1.4,1.2,2.7,1.8,4.1c1.6,0.6,3.3,1.2,5.3,1.6c6,1.4,11.4,1.2,15.3,0.6
	c4.9-0.5,9.8-1,14.6-1.5c2.8-0.1,6.2-0.4,9.9-1.4c1.2-0.3,2.3-0.7,3.4-1.1c0.5-0.7,1-1.5,1.4-2.5c1.2-3.2,0.6-6.1,0.2-7.4
	c-0.6-3.6-1.1-7.2-1.7-10.8l-1.1-18.2l-1.5-18c0.2-6.2,0.2-12.9-0.1-20c-0.5-9.5-1.6-18.3-3-26c-1.6-7-3.2-14-4.7-21"/>
<polyline class="st0" points="334.2,267.5 345.9,267.5 354.3,267.5 "/>
<polyline class="st0" points="331.7,345.9 337.3,334.9 340.7,321.7 342.8,340.2 344.9,352.6 "/>
<path class="st0" d="M331,395.7c0.9,0.2,1.8,0.3,2.9,0.4c1,0.1,1.9,0.1,2.7,0.1c0,0,0.7-0.1,0.7-0.1c0,0,2.5-0.4,2.6-0.4"/>
<path class="st0" d="M344.7,398.2c-1.6,2.6-3.3,5.3-4.9,7.9l-1.4,16.6l-1.9,16.6l-2.1,14.2l8.6,3.4h8.4h3.1l1.2-9.6l2.4-19.3
	l4.3-13.6c0-5.1,0-10.3,0-15.4"/>
<path class="st0" d="M290.8,400.2c-0.7,5.2-1.4,10.4-2.2,15.5l-1.4,19.7l-2.6,13l-1.2,7.4l1.7,4.3l10.1,2.4h8.4h3.4v-11l3-19
	l3.1-11.5l-1-9.1l1-5.3c0.7-1.5,1.4-2.9,2.1-4.4"/>
<path class="st0" d="M357.9,177.6l-2.4,1l-1.8,1.8c-0.6,1.3-1.2,2.5-1.8,3.8c-1,1-2.1,2-3.1,3.1l-2.8,0.6c-1.1,0.2-2.3,0.3-3.4,0.5
	c-1.5-0.3-3-0.5-4.4-0.8c-1.2-0.4-2.4-0.9-3.5-1.3"/>
<path class="st0" d="M313.8,153.9c0,1.3-0.1,2.5-0.1,3.8l-0.3,1c-0.3,0.2-0.5,0.4-0.8,0.6c-0.2,0.5-0.3,1-0.5,1.5
	c-0.3,0.7-0.5,1.3-0.8,1.9c0,0-0.4,1.6-0.4,1.9c0,0.3,0,3.4,0,3.4l0.4,1.4c0,0,0.6,1,0.6,1.3c0.1,0.3,0.7,1.7,0.9,1.9
	c0.2,0.2,1.3,1.7,1.3,1.7s0.6,0.6,0.9,0.8c0.2,0.2,0.6,0.4,0.6,0.4c0.6,0.3,1.2,0.5,1.9,0.8"/>
<path class="st0" d="M355.1,137.5c-0.1-0.2-0.1-0.3-0.2-0.5c-0.2-0.5-0.4-1-0.6-1.4c-0.2-0.7-0.3-1.5-0.5-2.2v-1.8l0-0.6l-0.1-2.1
	c-0.2-0.5-0.4-1-0.7-1.4"/>
<path class="st0" d="M356.6,145.9c0-0.1,0-0.3,0-0.4l-0.4-1.8l-0.3-2.6l-0.3-1c-0.1-0.4-0.1-0.9-0.2-1.3"/>
<path class="st0" d="M353.3,181.2l-2.3-2l-1.3-2l-0.4-2.6V172l-0.3-2.2v-2.1l1.4-0.3h1.2l2.1-0.8l0.7-0.8l1-1.4v-2.7l0.8-2.7
	l0.4-2.6l0.3-2.1V151v-1.8v-0.7c-0.1-0.5-0.1-0.9-0.2-1.4"/>
<path class="st0" d="M331.6,143.6l6.9-1.7l0.3,4.3l0.8,1.4l1.1,0.9l1,0.6h1.9h2l1.4-0.4l1-0.7l0.6-0.8l0.6-1.7v-1.2v-1.2l2.2-0.6
	l0.4,1.1l0.7,1.3l1,1c0,0,0.5,0.7,0.7,0.7c0.2,0,2.2,0.4,2.2,0.4l2,0.2l1.1-0.4l1-1l0.5-0.8c0.2-0.6,0.4-1.3,0.5-2.1
	c0.2-1.1,0.2-2,0.2-2.8c0-0.8,0-1.3-0.2-1.8c-0.1-0.6-0.4-1-0.5-1.3c-0.9-0.2-1.9-0.4-2.8-0.5c-0.9,0.2-1.8,0.4-2.8,0.6
	c0,0-0.7,0.3-0.8,0.3c0,0-0.8,0.3-0.8,0.3c-0.5,0.3-0.9,0.6-1.4,0.9l-0.7,0.9l-3.2,0.7l-1.4-0.9l-0.8-0.3l-1.4-0.2h-2.1l-3.2,0.4
	l-2.3,0.3l-1.4,0.6c-1.6,0.4-3.2,0.9-4.7,1.3"/>
<path class="st0" d="M287.5,460.8v3.5l-0.8,4.4v2.4l-0.7,3.1l-0.7,2.8l-1,1.5l-0.9,1.4c-0.9,0.6-1.9,1.2-2.8,1.8
	c-0.8,0.6-1.7,1.2-2.5,1.8c-0.8,0.7-1.6,1.4-2.4,2.2c-0.7,0.8-1.5,1.5-2.2,2.3c-0.7,0.5-1.5,1-2.2,1.5l-2.6,1.3c0,0-3,1.2-3.4,1.3
	c-0.4,0.1-2.9,1.6-2.9,1.6s-1,1.6-1,2.2c0,0.6,0,2.5,0,2.5l-0.8,2.9v1.2l0.6,1.1l1.7,0.7l4.4,0.6h3.7h3.6l5-0.6l5-1.6l7.4-3.2
	l6.5-4.2l0.9-2.6v-3.5l-0.9-0.8l0.1-3c0-2.2-0.1-4.5-0.1-6.7c0.3-2.5,0.5-5,0.8-7.4c0-1.1,0.2-2.4,0.6-3.9c0.3-1.1,0.6-2,1-2.7
	c0-0.6,0-1.3,0-1.9"/>
<polyline class="st0" points="283.8,479.1 285.1,479.5 288,481.5 289.7,484.3 292.1,489.4 292.9,492.6 298.6,488.2 "/>
<polyline class="st0" points="261.2,498.9 266.4,500.1 272.5,500.1 277.7,500.1 287,496.5 292.9,492.6 "/>
<path class="st0" d="M335.5,453.9v5l-0.7,4.4l-1,3c-0.4,0.9-0.7,1.8-1.1,2.7c-0.4,1.2-0.9,2.4-1.3,3.6v4.2v1.2v0.9v1.1l-0.2,0.8
	l-0.6,2.5v3v6.1l1.3,3l1.9,4.6l2.2,1l5.5,1.3l5.3-0.5l3.6-0.4l2.4-1.4l0.4-3.8l-1.1-2.3l-2.4-5l-1.5-2.9l-0.9-2.7l-0.5-2.7l-1.1-4.1
	l-0.6-1.1l-0.2-3.6l-0.2-5.4l0.9-2.6c0.9-2.4,1.8-4.8,2.7-7.2"/>
<polyline class="st0" points="345.1,475.6 341.5,474 336.7,474.3 334.9,475.4 333.2,478.2 331.4,480.2 "/>
<polyline class="st0" points="331.1,481.5 331.4,486.4 332.8,490.5 333.9,492.6 335.7,494.6 339.1,496 344.5,496.3 348.2,495.9 
	350.7,494.8 351.5,492.8 "/>
<path class="st0" d="M332,137.9c0,0.6,0,1.3,0,1.9c0,0-0.4,1.8-0.4,2.1c0,0.2,0,1.7,0,1.7l-0.6,1.6c0,0-0.7,0.6-0.8,1
	c-0.1,0.3-0.9,1.5-0.9,1.5v0.8l-1,1.3l-0.6,2.3c0,0,0.5,1.2,0.6,1.4c0.1,0.2,0.5,1.4,0.6,1.6c0.2,0.2,0.5,0.6,0.7,0.8
	c0.2,0.2,0.1,0.2,0.9,0.8c0.9,0.6,1.5,1.2,1.5,1.2l1.3,2.1l-0.2,0.8c0,0,0.2,0.6,0.2,1c-0.1,0.3-0.2,0.2-0.2,1.1
	c0,0.9,0.2,0.6,0.1,1.6c-0.1,1-0.1,1-0.1,1.3c0,0.2,0.5,0.3,0.6,1.1c0.2,0.8,0,0.9,0.3,1.6c0.4,0.7,0.7,0.9,0.8,1.4
	c0,0.1,0,0.2,0,0.2c0,0.1,0,0.2,0,0.2c0,0.1,0,0.3,0,0.7c0,0.3,0,0.6,0,0.9v5.1l-0.6,2l-0.3,2.8c0,0-0.2,2.2,0,2.3
	c0.6,0.7,0.3,1.4,0.4,2.1c0.1,0.8,0.2,1.9,0,3.4c-0.4-0.1-0.8-0.2-1.2-0.4l-0.4-2.6c0-1.1-0.1-2.3-0.1-3.4c-0.3-0.1-0.6-0.2-0.9-0.2
	c0,0-1.4,2.6-1.5,2.6c0,0-1.6,2.3-1.6,2.3l0.1,1.7l0.2,1.9v3.4l0.6,2.7v1.6c-0.3,0.5-0.6,1.1-0.8,1.6c-0.2-0.1-0.4-0.3-0.6-0.4
	c0,0,0.1-2.2,0-2.4c-0.1-0.2-0.3-1.3-0.3-1.4c-0.1-0.2-0.9-2.9-0.9-2.9c-0.3-0.8-0.6-1.5-0.8-2.3"/>
<path class="st0" d="M354.1,134.4c-1.2-1-2.3-2-3.5-3c-1.4-0.7-2.9-1.3-4.3-2"/>
<path class="st0" d="M356.6,155.7c0.2,0.9,0.4,1.9,0.6,2.8l1.5,2.1l1.4,1.4c0,0,0.8,1.5,1,1.7c0.2,0.2,1.3,1.6,1.4,1.9
	c0.2,0.4,0.8,1.7,0.8,1.7s0.3,3.7,0.4,3.7c0,0,0.3,1.7,0.4,3.1c0.1,0.7,0.1,1.8,0,3.1"/>
<path class="st0" d="M340,141.2c-0.1,0.2-0.1,0.5-0.2,0.7c-0.3,1.5-0.2,2.9,0.1,3.9l0.9,1.3l1.3,0.7l3.5-0.1l1.2-0.3
	c0.4-0.5,0.8-1,1.3-1.5c0-1.1,0.1-2.3,0.1-3.4c-0.1-0.4-0.3-0.9-0.4-1.3l-1.2-0.5c-1.8-0.3-3.9-0.3-6,0.4
	C340.4,141.1,340.2,141.1,340,141.2z"/>
<path class="st0" d="M352.6,141c0.1,0.5,0.1,1,0.2,1.5l0.7,1.4l1.1,1.2l1,0.7l2,0.4c0.4-0.1,0.9-0.2,1.3-0.2
	c0.3-0.2,0.6-0.4,0.9-0.7c0.2-0.5,0.3-1,0.5-1.5c0.1-0.8,0.2-1.7,0.2-2.5v-1.6c-0.1-0.4-0.2-0.8-0.3-1.2c-0.6-0.2-1.2-0.4-1.7-0.6
	c-0.8,0.2-1.7,0.4-2.5,0.5c-0.8,0.4-1.6,0.7-2.4,1.1C353.4,140,353,140.5,352.6,141z"/>
<path class="st1" d="M404.9,452.4c2.3,0.6,4.6,1.3,6.8,1.9c3.6,0,7.2,0,10.9-0.1c-0.3,0.5-0.7,1.2-1,2.1c-0.2,0.7-0.4,1.3-0.4,1.8
	c0,0.3,0,0.8,0.2,1.5c0.2,0.6,0.6,1,0.8,1.2c0.7,0.2,1.4,0.4,2.1,0.6c0.8,0,1.9-0.1,3.1-0.6c0.4-0.1,0.7-0.3,1-0.5
	c0.2-0.1,0.6-0.2,1-0.7c0.5-0.6,0.4-1.3,0.4-1.4c-0.1-0.4-0.2-0.8-0.3-1.3c-0.4-1-0.9-1.6-1.3-2c0.2,0,0.4,0,0.6,0.1
	c1.2,0.1,2.3,0.4,3.3,0.7c1.6,0.4,3.2,0.8,4.8,1.2c1.2-1.1,2.4-2.2,3.7-3.2c1.3-0.6,2.6-1.3,3.9-1.9"/>
<path class="st1" d="M393.6,450.3c1.8,0.4,3.6,0.8,5.4,1.3"/>
<path class="st0" d="M400.1,447.7c-0.2,1.6-0.7,3.4-1.8,5.2c-0.1,0.2-0.3,0.4-0.4,0.6c-0.2,0.2-0.5,0.6-0.8,1.1
	c-0.4,0.9-0.3,1.8-0.2,2.1c0.2,1.1,0.7,1.8,1,2.2c0.3,0.2,0.7,0.4,1.2,0.6c1,0.3,1.8,0.4,2.4,0.4c0.4,0.1,1,0.1,1.7-0.1
	c0.4-0.1,0.8-0.3,1.1-0.4c0.3-0.1,0.8-0.5,1.2-1.1c0.2-0.3,0.3-0.6,0.3-0.9c0.1-0.3,0.1-0.8,0.2-1.4c0,0,0,0,0,0c0,0,0-0.3,0-0.6
	c0-0.2-0.3-1.4-1-3c0-1.2-0.1-2.3-0.1-3.5"/>
<path class="st0" d="M429.8,450.4c-0.7-2.1-1.4-4.2-2.2-6.3c0.1,2,0.1,4.1,0.2,6.1c1.1,0.1,2.1,0.3,3.2,0.4h2.5l6.2,0.6l4.6,0.5
	l0.5,2.3l1.8,10.4l1.8,10.8l0.8,10.9l1,11v2.4l-4.7,4.2l-6.8,3.8h-2.4l-7.1-1l-17.2-3l-15.7-2.8l-10.2-1.8l-2.2-1.9V491l1-6l0.4-8.4
	l0.6-8.8l0.4-5.4l1-4.3l1.2-5.9l0.4-2.2l2.9-0.1l1.9,0.4l0.4-1.2l-0.1-1.4c2.1,0,4.2,0,6.2,0"/>
<path class="st0" d="M408.5,448.2c0-2.1,0-4.2,0-6.3v-4.1l0.7-4.7l0.7-4.3l1.9-4.2l1.7-3.4c0.9-0.2,1.8-0.4,2.7-0.6
	c0.7,0.2,1.3,0.5,2,0.7l2.2,5.2l0.6,6l0.5,4.2l1,6.1v3.7l0.6,4.1c-0.1,1.2-0.3,2.4-0.4,3.7"/>
<path class="st0" d="M433.5,450.6c-0.7-2.4-1.4-4.8-2-7.2c-0.7-1.6-1.4-3.2-2-4.8c-0.9-2.1-1.8-4.2-2.6-6.2c-0.4-1.8-1-3.7-1.7-5.6
	c-0.5-1.5-1.1-3-1.7-4.3l-2.6-3.1l-2.5-1.7h-4.1l-2,1.6l-3.2,4c-0.7,1.4-1.4,2.8-2.1,4.1c-0.4,1.3-0.9,2.5-1.3,3.8c-0.7,2-1.3,4-2,6
	l-2,4.3l-0.7,2.2c-0.3,1.4-0.6,2.8-0.8,4.2"/>
<path class="st0" d="M427.9,450.2"/>
<path class="st0" d="M426.4,430.8c0,0.1,0.8,8.6,0.8,8.6c0,0,0.4,4.6,0.4,4.6"/>
<path class="st0" d="M436.8,456.8l-0.7,7c-0.1,5.1-0.2,10.2-0.4,15.3l1.6,10.5v6l1.2,11c0.1,0.3,0.2,0.6,0.2,1"/>
<path class="st0" d="M404.7,448.9c0.1-1.8,0.5-4.1,1.2-6.7c0.8-2.8,1.9-5.1,2.9-6.9"/>
<line class="st0" x1="427.9" y1="450.2" x2="428.1" y2="454.8"/>
<path class="st0" d="M404.8,448.2h4l1.9,1.2h4.2c2.1,0,4.2,0,6.2,0c0.6,0.1,1.1,0.1,1.7,0.2"/>
<polyline class="st2" points="300.5,283 304.8,279.7 309.9,277.1 315.2,272 "/>
<line class="st2" x1="360.5" y1="138.5" x2="355.5" y2="140.1"/>
<path class="st3" d="M378.3,271.1c-0.6-6.3-1.3-14.5-1.8-24.1"/>
<path class="st3" d="M395.9,219.2c-0.2,0.3-0.5,0.7-0.7,1c-1.7,1.2-3.4,2.4-5,3.6c-1.1-4.6-2.4-9.3-3.8-14c-0.2-0.8-0.5-1.6-0.7-2.3
	c-0.4-1.2-0.8-2.5-1.2-3.7c-0.6-1.7-0.8-2.5-0.9-2.9c-0.1-0.7-0.3-1.3-0.3-1.3c0-0.1-0.1-0.3-0.1-0.5c-0.1-0.3-0.1-0.5-0.1-0.7
	c-0.1-0.4-0.1-0.6-0.2-0.9c-0.1-0.3-0.2-0.8-0.4-1.9c0,0-0.2-0.9-0.4-1.3c0,0,0-0.1-0.1-0.2c-0.1-0.2-0.1-0.2-0.1-0.3
	c-0.1-0.2-0.1-0.2-0.2-0.4c0-0.1,0-0.1-0.1-0.3c-0.2-0.5-0.2-0.4-0.2-0.5c-0.1-0.3-0.1-0.3-0.2-0.6c0-0.1-0.1-0.2-0.2-0.3
	c0-0.1-0.1-0.1-0.1-0.2c-0.1-0.2-0.2-0.3-0.3-0.3c-0.1-0.1-0.1-0.1-0.4-0.6c-0.3-0.4-0.3-0.3-0.4-0.5c-0.2-0.3-0.2-0.4-0.4-0.8
	c-0.2-0.3-0.2-0.4-0.5-0.8c-0.2-0.3-0.2-0.3-0.3-0.5c-0.2-0.3-0.3-0.4-0.6-0.9c-0.1-0.2-0.2-0.2-0.2-0.3c-0.2-0.4-0.4-0.8-0.4-0.9
	c0-0.1,0-0.1-0.2-0.6c-0.1-0.3-0.1-0.3-0.1-0.5c-0.1-0.3-0.1-0.3-0.1-0.5c0,0-0.1-0.3-0.2-0.6c-0.2-0.6-0.3-0.9-0.6-1.2
	c-0.2-0.2-0.2-0.1-0.8-0.5c-0.2-0.2-0.4-0.3-0.7-0.5c-0.1,0-0.2-0.1-0.4-0.2c-0.6-0.3-0.7-0.3-1.2-0.6c-0.2-0.1-0.2-0.1-0.4-0.2
	c-0.3-0.1-0.5-0.3-0.8-0.4c-0.4-0.2-0.8-0.4-1.6-0.7c-0.9-0.4-0.5-0.2-0.7-0.3c-0.2-0.1-0.4-0.2-0.8-0.3c-0.1,0-0.2-0.1-0.3-0.1
	c-0.6-0.1-1.8-0.5-2.9-1"/>
<path class="st3" d="M425.9,176.1l0.6-0.7l0.9-1l1-1.6l1.1-2l0.7-1.9l0.2-1l0.6-0.8l1.2,0.1c0.3,0.4,0.5,0.7,0.8,1.1"/>
<path class="st3" d="M433.7,168.1c0.4-0.1,0.8-0.3,1.2-0.4c0.3-0.2,0.6-0.5,0.9-0.7c0.2-0.2,0.5-0.4,0.7-0.6
	c0.1-0.2,0.2-0.5,0.3-0.8c0-0.3-0.1-0.6-0.1-0.9c-0.2-0.2-0.4-0.4-0.6-0.6c-0.6,0-1.2,0.1-1.9,0.3c-0.5,0.1-1,0.3-1.3,0.4"/>
<path class="st3" d="M432,165.3c-0.4,0.3-0.8,0.7-1.2,1c-0.4,0.3-0.8,0.6-1.2,0.9l-1.9,2.2l-2.8,4.2c0,0-3.5,9.7-4.1,10.9
	c-0.3,0.6-1.2,2-3,4.8c-1.5,2.4-1.9,3-2.5,3.7c-0.9,1.1-1,1.1-2.6,2.8c-2.4,2.6-1.9,2.5-3.3,3.9c0,0-2,1.9-2.5,2.9
	c0,0.1-0.2,0.5-0.5,1c-0.1,0.1-0.1,0.3-0.2,0.4c-0.4,0.7-0.8,1.4-1.2,2"/>
<path class="st3" d="M434.4,188.6c0.8-1.4,1.6-2.9,2.3-4.3"/>
<path class="st3" d="M414.9,215.1c0.2-0.5,0.4-1.1,0.6-1.6c0.3-0.7,0.9-1.9,2.3-4.2c2.2-3.5,1.2-2.1,4.8-7.5c1.2-1.7,2.7-4,4.6-6.6
	c0.8-1,1.5-1.9,2.3-2.9c1.1-0.6,2.3-1.2,3.4-1.9c0.2-0.2,0.4-0.5,0.6-0.7"/>
<path class="st3" d="M373.6,241.4c0.7,1.5,1.7,3.4,2.9,5.6c0.2,0.5,0.4,1,0.7,1.6c0.3,0.7,0.7,1.5,1.5,2.4c0.2,0.2,0.7,0.7,1.8,1.6
	c1.4,1.2,1.8,1.5,2.4,1.9c0.5,0.2,0.9,0.5,1.5,0.7c1.1,0.4,2.1,0.3,2.5,0.3c1.1-0.1,1.9-0.4,2.4-0.7c1-0.8,2.1-2,3.4-3.3
	c1.5-1.6,2.6-2.9,3-3.4c1.5-1.9,1.3-1.9,3.1-4.1c1.1-1.4,1.4-1.7,2.2-2.8c0.3-0.5,0.6-0.8,0.7-1.1c0.5-0.9,0.6-1,1-1.6
	c0.2-0.3,0.5-0.7,0.9-1.2"/>
<path class="st3" d="M437.3,182.9c0.5-0.2,1.1-0.6,1.5-1.1c0.1-0.1,0.1-0.1,0.2-0.2l0.8-0.8v-1.6l-0.7-1.4l-0.7-0.4l0.5-0.8l-0.1-1
	l-0.3-1l-1.2-1l0.5-0.9l-0.1-1.1l-0.6-1c-0.4-0.2-0.7-0.3-1.1-0.5c-0.4-0.1-0.8-0.1-1.2-0.1c-0.2,0-0.4,0.1-0.6,0.1"/>
<line class="st3" x1="433" y1="168.3" x2="433" y2="168.6"/>
<polyline class="st3" points="433,168.6 433.3,169.7 433.1,172.4 432.3,174.5 431,177.3 431.1,178.5 431.3,180.2 431.1,181.7 
	430.2,183.8 "/>
<polyline class="st3" points="437.3,173.7 436.8,174.6 435.9,174.7 435,174.5 434.2,173.3 434.6,172.1 435.1,171.2 435.5,170 "/>
<polyline class="st3" points="436.8,174.6 436.4,175.1 435.7,175.7 435.1,176.4 434.3,177.2 434.2,178.1 435.1,179.1 435.6,179.4 
	436.6,179.1 437.6,178.5 438.4,177.5 "/>
<path class="st3" d="M436.8,179c-0.1,0.2-0.3,0.3-0.4,0.5c-0.1,0.1-0.2,0.2-0.3,0.3l-0.1,0.5l0.6,0.5c0.2,0.1,0.5,0.2,0.7,0.3"/>
<path class="st3" d="M434.2,188.7l1-0.4l1.3-0.6l0.5-0.5c0-0.6,0.1-1.1,0.1-1.7c0,0-0.3-1.2-0.3-1.2c0-0.1-1.3-4.9-1.3-5"/>
<path class="st3" d="M436.7,180.9c0.4,1.5,0.8,3.1,1.2,4.6c0.3,0.4,0.6,0.9,0.9,1.3c0.2,0.1,0.3,0.1,0.5,0.2c0.4,0,0.9,0,1.3,0
	c0.8-0.2,1.6-0.3,2.4-0.5l1.1,0.1l0.2,0.2v0.2l-2.7,0.8l-3,0.7l-3.2,0.9l-1.5,0.3l-1.7,0.2l0.3-0.5l0.8-0.3l0.8-0.3"/>
<path class="st3" d="M434.7,176.7c-0.5-2-1-4-1.5-6"/>
<path class="st3" d="M432.6,167.8c-0.3-1-0.5-2.1-0.8-3.1c-0.2-1-0.5-1.9-0.7-2.9c-0.7-0.2-1.4-0.4-2.2-0.6
	c-0.7-0.2-1.3-0.3-1.9-0.4c-0.7-0.5-1.5-0.9-2.2-1.4c-1.2-4.1-2.3-8.1-3.4-12.2c-1.3-4.5-2.5-9.1-3.8-13.6c1.2,0,2.5,0.1,3.7,0.1
	c1.3-0.3,2.7-0.7,4-1c1.1-0.8,2.2-1.5,3.3-2.3c2.3,8.7,4.7,17.5,7,26.2c-0.3,0.7-0.6,1.3-0.9,2c-0.4,0.5-0.8,0.9-1.2,1.3
	c-0.5,0.6-0.9,1.1-1.4,1.7c0.8,3.4,1.7,6.9,2.5,10.3"/>
<path class="st3" d="M435.4,174.6c0.1,0.4,0.2,0.7,0.3,1.1"/>
<polyline class="st3" points="428.7,130.5 424.7,130.2 420.7,131.3 417.7,133.7 "/>
<path class="st3" d="M428.9,143.9c-1.8-0.1-3.6-0.1-5.4-0.1c-1.1-0.7-2.3-1.3-3.5-2c1-0.6,2-1.3,3-1.9c1.6,0,3.3,0,4.9,0
	c1.3,0.6,2.5,1.3,3.8,1.9C430.8,142.4,429.8,143.1,428.9,143.9z"/>
<polyline class="st4" points="395.8,219.3 398.3,214.2 400.3,209.8 401.9,205 403.1,201.8 405.2,201.8 406.9,202.6 "/>
<polyline class="st4" points="403.1,201.8 405,206 408.8,211.1 414.9,215.1 "/>
<path class="st3" d="M403.6,237.3l6.2-5.9l2.8-4.7l4.3-6.7c1.5-1.4,2.9-2.8,4.4-4.2c-1.6-1.3-3.2-2.7-4.8-4"/>
<path class="st4" d="M414.9,215.1c2.1,0.2,4.2,0.4,6.3,0.6"/>
</svg>
