<svg id="Ebene_1" data-name="Ebene 1" xmlns="http://www.w3.org/2000/svg" viewBox="0 0 841.9 595.3"><defs><style>.cls-1,.cls-2{fill:none;}.cls-1,.cls-2,.cls-3{stroke:#000;stroke-width:2px;}.cls-1,.cls-3{stroke-miterlimit:10;}.cls-2{stroke-linecap:round;stroke-linejoin:round;}.cls-3{fill:#fff;}</style></defs><path class="cls-1" d="M501.7,163.8A11.24,11.24,0,0,0,500,166a9.74,9.74,0,0,0-1.1,2.9"/><path class="cls-1" d="M497.4,156.7c.1.5.2,1.1.3,1.6.4.7.7,1,.6,1s-1.1-1.1-3.1-3.4c-.9-1.5-1.8-2.9-2.7-4.4-.7-2.2-1.4-4.3-2.2-6.5-.3-2.5-.6-5-.9-7.4.3-2,.5-4,.8-6,.6-1.3,1.1-2.6,1.7-3.9l3.6-4.2c1.8-1.6,3.6-3.2,5.4-4.9,1.9-.9,3.9-1.8,5.8-2.7,1.7-.1,3.4-.3,5-.4,1-.5,1.9-.9,2.9-1.4a37.68,37.68,0,0,1,4.5.3,30.34,30.34,0,0,1,7.8,2.3c2.2,2.4,4.5,4.8,6.7,7.2,1.4,2.9,2.7,5.7,4.1,8.6l2.1,9.3,2.1,6.9a38.55,38.55,0,0,0,4.1,9.1c1.1,1.7,1.7,3.8,2.8,5.6a2.71,2.71,0,0,1,.6,1.9c-.1.9-.7,1-1,2.2a3.07,3.07,0,0,0,.1,2.3c.4.7.8.5,1.5,1.3a5.09,5.09,0,0,1,1,2.5,5.5,5.5,0,0,1,.3,1.6c0,.9-.4,1.3-1,2.9-.4,1.2-.7,1.8-.6,2.2.1.9.8,1,2.8,2.9a8.71,8.71,0,0,1,2.3,2.6,9.39,9.39,0,0,1,.7,1.9,6.19,6.19,0,0,1,.3,1.6c.1,1.1.1,1.9.1,2.5,0,.9.1,1.9.3,3.8.2,2.6.4,2.9.2,3.6a5.38,5.38,0,0,1-1.6,2.5c-1.2.9-2,.6-2.5,1.4-.7,1.1.3,2.6,0,2.7s-2.7-2.6-2-4.1c.4-.9,1.8-1,1.7-1.3s-1.5-.3-2.7-.3c-1.6,0-1.7.2-2.6.1a5.55,5.55,0,0,1-2.9-.8,5.06,5.06,0,0,1-2-2.7,7,7,0,0,1-.6-4.1c.1-1.1.4-1.2,1.5-3.8s1.5-3.7,1.2-4.6c-.1-.3-.3-.6-2.8-2.7-1.9-1.6-2.1-1.6-3.1-2.5a20.23,20.23,0,0,1-3.2-3.3,26.05,26.05,0,0,1-1.8-2.9c-.7-1.1-1.6-2.4-2.7-3.8"/><path class="cls-1" d="M529.8,169c-1.1-.2-2.3-.5-3.4-.7l-4.3.6-2,1.4-2.2,1.2-3.9-.6-6.5-.6-5.3-1.4h-7.7l-3.7,3.7-3.5,7.3-.9,4.7-1.2,4.7v8.1l1.1,6.6-.1,3.8.7,4.5.4,5.6.3,3.9v6.1l-.5,3.1-1.8,4.9-2.3,5.7-2.6,6.5-1.4,6-2.7,10.2L472.9,278l-2.4,9.1-1.6,2.6-.9,4.5v3.5l-3.3,9.4c-.2,1.6-.5,3.3-.7,4.9.2,1,.3,2,.5,3,.3,1.2.7,2.4,1,3.7l1.6,2.9,2.4,3.8,1.7,2.5.6,1.4-.5,3.6-1.5,9.3-.9,5.8-2.4,8-.6,7.2-1,7.1-.4,1.9-2,3.4-1.4,9.4-1.4,11.1L457,410.3l-2.9,19.1-2.7,14.9-.3,4.6-.9,3-.7,2.6v1.2l1.4,2.1,3.3,1.3,7.5,1.7,3.2-.3,3.1-1,3.4-2.7,1.2-1-.6-4,2.1-12.4,5.7-16.2,8.9-24.2,8.8-20.2,8.5-18.5,4.6-12.1c1.1-2.4,2.3-4.8,3.4-7.2,1.1-2.2,2.1-4.5,3.2-6.7l2.2-4.2,4.2-6.4,3.3-5.5,4.5-6.7,1-1.6,2.5-5.2,1-2.8V287.1l-1-3.3-1.1-4.3"/><path class="cls-1" d="M513.9,341.3c.7,2.3,1.4,4.7,2.1,7l3.7,12.3,4.6,12.4,1.1,2.9.6,4.8,1.9,7.9,2.4,8.3.8,6.2.6,4.6,1,3.5,2.3,7.9.5,4.5,1.3,12.6.6,8.8,1.6,9.1.6,6V462l.7.5h1.6l2.4-1.2,5.9-.5,4.4-.7,5.3-.4,2.2-1.1V456l-.8-2.3-.5-5.6V437.7l-.6-8.9-.5-14.3-.6-7.3-.7-5.7-.9-10.7-1.1-7.2-1.5-8-2.2-14.5-3.3-11-1.7-6.9-.3-2.9,1.6-8.1,1-5.6.6-5.1.2-7.6v-7.2l-1.2-8-2.2-8.3-2.4-5.5-2.1-4.9-2.1-4.8-1.4-4.4-1.9-2.4-2.5-4.1-2.8-5-.5-1.9.9-.9.2-4.8-.8-4-.2-.7-.7-.5,3.9-4.4,4.6-4.9,3.4-4.1,1.8-5.7,2.5-5.5,3.8-2.6,2.2-2.6.7-1.3.5-6.5.9-7c-.2-.2-.3-.5-.5-.7"/><path class="cls-1" d="M487.5,228c.4-1.7.9-3.5,1.3-5.2l1.1-6.7,1.5-8.1.9-9.3,1.4-10.5,1-7.8.6-3.3,1.2-2.5,1.6-1.3.9-.7c-.6-1.2-1.3-2.4-1.9-3.6"/><path class="cls-1" d="M499,172.5c.8,2.2,1.7,4.5,2.5,6.7l1.5,5.6,1.9,7.2,1.7,7.8,1.3,6.6-1,7.6-2.1,6.2-1.4,7.1-1.8,6.9-1.1,5-.6,6.1-1,3.8-2.3,5.3-3.2,6.2-4.8,8.2-4,8.1-3.6,6.2-3.1,5.6-1,2.1-.5,3.3,1.3,4.2.5,3.2v1l-1.4,4.2-1,2.9-1.6,3.8-.4,3,.3,2.9-.3,2.9-.6,1.7c-.6,1.8-1.2,3.5-1.8,5.3"/><path class="cls-1" d="M519.2,254.2c.8.1,1.7.3,2.5.4l5.6,1.3c1.5.5,2.9.9,4.4,1.4"/><path class="cls-1" d="M498.2,251.3h3.9l3.8,1,3.5.6h2.4c1.5.2,3,.4,4.4.7"/><polyline class="cls-1" points="520.7 244.3 528.1 245.8 531.1 246.4"/><path class="cls-1" d="M500.4,241.3h3.9l5.4.9,4.1.9,4.3.6"/><path class="cls-1" d="M518.6,242.3l2.2.5v2.9l-.8,3.4-.8,3.1v4.1L516,256v-1.5l.1-.9.6-4.3c.4-1,.9-2,1.3-3.1v-3.7Z"/><path class="cls-1" d="M553.8,215.9c0,1.8.1,3.6.1,5.4l-.4,7.8-.3,6.2-.4,7.8-.6,8.8-.5,5-.4,3-1.4,3-1.3,4.3-2.4,8.8c-.7,2.3-1.4,4.7-2.1,7"/><polyline class="cls-1" points="535.8 265.5 537.1 261.3 538.5 258.4 538.8 254.7 538.5 250.5 537.6 244.1 537.4 239.4"/><polyline class="cls-1" points="514.5 170.9 513.9 169.2 512.4 167.9 510.9 167.1 508.9 167.8 506.7 168.6 504.3 168.3 502.5 165.7 501 162.2 498.6 158.2 497.1 156.4 496.2 153.6 496.2 148.8 494.4 144.9 493.9 142.6 493.9 139.5 493.9 135.7 494.3 131.4 496.8 128.6 500.2 126.5 503.4 125.9 507.4 126.7 511.7 129.1 514.5 130.6 518.1 134.3 520.1 137.3 522.6 140.3 524.1 142.4 527.1 149.6 528.9 153.1 528.5 154.4 527 156.9 526.3 160.1 526.9 164 528.3 167 529.8 169"/><polyline class="cls-1" points="450.1 457.8 448.7 460.7 447.8 462.7 446.5 464.6 446.5 466.4 446.5 468.5 449.1 470.7 451.3 471.7 453.7 471.4 455.3 469.2 457.2 466.7 459.5 466.2 461.6 465.9 463.7 465.6 464 463.7 464.8 461.7"/><path class="cls-1" d="M463.7,464.6l3.7,4,1.9,1.8,1.8,3.6,1.2,6.2.6,4.1.7,2.3v2.6l-1.3,1.7-4.3,1.3-2.8,1-4.3,1.2-2.6.8H454l-4-1.1-2.2-.9-.7-1.2-.6-3.6-5.5-.3-1,2.4-1,.5-7-.7-3.3-.8-1.2-.7-.6-1.8-.5-1.1-1.2.1-.5.8-.8-.1-1.2-2-1.1-3V479l.2-1,.1-.4.3-1.2,1.1-2.9,1.8-1.6,2.6-.9,2.5-.5,1.9.3,2.1-3.2,3-2.7,2.7-2.1,2.6-1,2,.6,1.8.9"/><path class="cls-1" d="M422,478.1c.6.6,1.2,1.1,1.7,1.7l1.8,1.5,1,.9.6.3,2.4-.7,3.9-1.7,1.9-.4h1.3l1.3.7,1.5,1.3,1.6,1.7,1,.3h5l1.5-1.5,1.1-.3,3.3.3,2.9.6H457l1.8-.8,2.2-2,3.2-1.9,2.6-.2,2.6.2c.8.2,1.6.5,2.5.7"/><path class="cls-1" d="M540.2,462.7v1.1l-.2.3-.1.2-.1.3-.3.6-.3,1.2v2.2l.2,1.3,1.1.9,1.7,1.1h2.9l1.9-2.3,1.3-1.6,1.2-.5,2.7-.2,2.5-.2,1.3.5,1.1,1,.9,2.7.4,2.2.4,1.2.5,2.3-.3,2.6.3,1.8.3,2.4.6,2.3.8,1.3.3,1,.5,1.8.8,2.8v1.8l-.7,1.4-1.3.3h-7l-5.3.6h-5.6l-1.5-1-1.5-3.4-.3-3.1.5-1.7-.5-.5-.5.9-.4,1.3-.6.3-2-.2-3.5-1.1-2.1-1-.8-1.2c.1-1.9.1-2.6,0-2.6s-.3,1.4-.5,1.3-.3-.6-.4-1.4l-.2-2.5v-2.4l.5-1.1.5-.6.4-3.2.8-1.7,2.3-1.4.7.1.9-.6,1.6-1.5.8-1.6,1.2-1.5.5-1,.5-.5a1.42,1.42,0,0,1,.6-.2"/><path class="cls-1" d="M561.5,488.5c-.7-.5-1.5-1-2.2-1.5l-2.9-.4-2.3-.2-2,.3-2.5.9-1.6.9-1.9,1.4-1.1.8-.7.4-.9.5h-.8l-1-.4-.8-.5-.2-.8-.2-1.4v-1.8l-.9-.7-.8-3.1-1.6-1.4-1.8-1.5-1.5-.6-1.3.6-1.3.4-.6-.1-.8-1.5c-.2-.3-.4-.7-.6-1"/><polyline class="cls-1" points="553.9 460.4 553.9 462.7 553.9 464.3 553.9 465.4 554.2 467.1"/><path class="cls-2" d="M716.3,205.7c.4.5.9,1.2,1.6,2s1.3,1.6,2.1,2.4c1.3,1.4,1.6,1.5,2,2.2a20.48,20.48,0,0,1,.7,2,19.41,19.41,0,0,0,1.9,3.5,10.62,10.62,0,0,0,1.6,2.1,9.26,9.26,0,0,0,2,1.5,13.44,13.44,0,0,0,3.4,1.6c2,.7,2.5.4,3.2,1.1a17.36,17.36,0,0,1,1.3,1.7,15.75,15.75,0,0,1,1,1.3,11.67,11.67,0,0,1,.9,1.4,11.67,11.67,0,0,0,.9,1.4,9.35,9.35,0,0,0,.8,1.5,7.56,7.56,0,0,0,1.6,1.8,7,7,0,0,0,1.2.8,2.83,2.83,0,0,0,1.4.2c.5-.1,1-.2,1-.4s-.5-.1-1.3-.4a5.8,5.8,0,0,1-1.9-1,8.47,8.47,0,0,1-1-1.4l-.3-.6a5.07,5.07,0,0,1-.2-1.3,9.44,9.44,0,0,0-.3-.9c-.1-.5-.1-.9.1-1.1.4-.3,1.2-.1,1.7.2.3.2.3.3.9,1,.5.5.5.4.8.8.5.6.5.7,1.1,1.4a4.64,4.64,0,0,0,1,1c.1,0,0-.3-.2-.8a4.1,4.1,0,0,1-.1-1.1c-.2-1.2-.5-1.7-.3-1.8s.2,0,.8.3a5.82,5.82,0,0,0,1.1.5c.9.4.8.4,1.3.6a10.38,10.38,0,0,0,1.2.3,3.27,3.27,0,0,0,1.4,0c.6-.1,1.2-.4,1.1-.5s-.4.1-1.1,0a2.8,2.8,0,0,1-1.1-.2,4.32,4.32,0,0,1-.9-.6c-.4-.3-.4-.3-.7-.5a6.78,6.78,0,0,0-.9-.6,5.47,5.47,0,0,1-1-1.1,3.15,3.15,0,0,1-.8-1.5c0-.2-.3-1.2.1-1.4.1,0,.2-.1,1.5.5a7.91,7.91,0,0,0,1.3.5c.1,0,.4.1,1,.2a10.93,10.93,0,0,0,2,.1,4.53,4.53,0,0,0,2.5-.4,6.42,6.42,0,0,0,1-.6,6.7,6.7,0,0,0,1.2-1c1.1-1.1,1.8-2.4,1.6-2.5a3.84,3.84,0,0,0-.9.9c-.4.5-.5.6-.7.7a2.38,2.38,0,0,1-1.2.3,2,2,0,0,1-1.1,0,4.17,4.17,0,0,1-2.3-.7,2.79,2.79,0,0,1-1.1-1.1,4.58,4.58,0,0,1-.4-1.5,11.24,11.24,0,0,1-.2-2c0-1.3.3-1.2.3-2.3a14,14,0,0,0-.4-2.5c0-.2-.2-1-.4-2s-.3-1.4-.4-1.7a17.64,17.64,0,0,0-.9-2.1c-.6-1.2-.8-1.7-1.1-2.3-.6-1.4-.5-1.4-.9-2.3a20.86,20.86,0,0,0-1.5-2.4,14.44,14.44,0,0,0-1.2-1.8,9.24,9.24,0,0,1-1.4-1.4c-.6-.6-.5-.8-1-1.3s-.8-.7-1.4-1.2-.9-.6-2.2-1.5a10.85,10.85,0,0,1-1.6-1.1,4,4,0,0,1-1.2-2.3,4,4,0,0,1,.3-2.2c.1-.4.6-1.3.9-1.2s-.1,1.4.7,2.8a6,6,0,0,0,1.8,1.8,18.05,18.05,0,0,0,1.7.9c.6.3,1.5.8,2.5,1.4s1.1.8,2.3,1.6a18,18,0,0,0,2,1.1c1.9,1.1,2.4,1.7,2.5,1.9a6.76,6.76,0,0,1,.8,1.5c1.2,2.9,1.7,5,1.9,4.9s.1-.4,0-1.1a8,8,0,0,0-.1-1.1.37.37,0,0,0-.1-.3,4.08,4.08,0,0,1-.2-.7c-.1-.3-.2-.7-.3-1-.2-.7,0-.9-.2-1.3-.2-.8-.6-.7-1.4-1.9-.5-.8-.4-.9-.9-1.3a6.88,6.88,0,0,0-1.3-.7,14.63,14.63,0,0,0-1.3-.9c-.7-.5-.8-.4-1.6-.9a11.28,11.28,0,0,1-1.7-1.2c-1.5-1.1-1.3-1-1.7-1.3-1.2-.7-1.4-.6-2-1.2a6.47,6.47,0,0,1-1-1.5,4,4,0,0,1-.6-1.6c0-.6.2-.8.1-1.4,0-.3-.1-.3-.3-.9a6.13,6.13,0,0,1-.3-1.9,5.28,5.28,0,0,1,.1-1.2,15.69,15.69,0,0,1,.3-1.6,6.86,6.86,0,0,0-.1-1.9v-1.4a3.26,3.26,0,0,0-1.2-3.1,7.11,7.11,0,0,0-1.3-1,16.92,16.92,0,0,0-2.3-1.1,10.75,10.75,0,0,0-2.3-1.1c-.8-.2-.8-.1-1.8-.3a5.25,5.25,0,0,1-2.4-.9,3.41,3.41,0,0,1-1-1.8,5.83,5.83,0,0,1-.4-1.7c-.1-.9,0-1-.1-1.7s-.2-.6-.5-1.8-.3-1.2-.6-2.2a9,9,0,0,1-.5-1.6,6.07,6.07,0,0,0-.4-1.7c-.3-.7-.5-.6-.7-1.3-.4-1,0-1.4-.4-2.1-.1-.2-.2-.2-1.2-1.1a12,12,0,0,1-1.2-1.1,13.44,13.44,0,0,1-1.1-1.4c-1-1.3-1.4-1.3-2.4-2.6-.1-.1,0,0-1.1-1.5a20.49,20.49,0,0,1-1.4-2.1c-.5-.9-.5-1-1-1.9s-.9-1.3-1.1-1.6a17.21,17.21,0,0,0-2-2.2,26.82,26.82,0,0,0-2-1.8,7.69,7.69,0,0,1-1.3-1.2,17.1,17.1,0,0,1-1.1-1.4c-.4-.5-1-1-2.1-2.1-.7-.7-1.1-1-1.3-1.2a23,23,0,0,0-2.3-1.7c-.9-.7-1.3-1-1.4-1.1-.5-.5-.6-.6-1-.7a11.6,11.6,0,0,0-1.6-.3,8.56,8.56,0,0,1-1.5-.5,8.38,8.38,0,0,1-1-.2c-.5-.1-1.1-.2-1.9-.3a7.72,7.72,0,0,1-1,.1,7.57,7.57,0,0,0-1.6.2,6.21,6.21,0,0,0-1,.3c-.9.3-1,.5-1.4.5s-.5-.1-1.1-.4a10.41,10.41,0,0,0-2.2-.5,16.11,16.11,0,0,0-1.9.2,6.13,6.13,0,0,0-1.5.2c-.6.2-.6.4-1.4.8s-.8.2-1.3.5a7.29,7.29,0,0,0-1.1.9c-.4.3-.4.2-1.1.7-.1.1-.3.2-1.1.8s-1.2.9-1.3,1a6.79,6.79,0,0,0-1.2,1.2c-.2.2-.6.7-1,1.2a8.4,8.4,0,0,0-1.1,2.2c-3.6,6.7-6.1,10.8-6.9,13.8,0,.2-.3,1.1-.8,2.9a11.93,11.93,0,0,1-.6,2.1,10.35,10.35,0,0,1-1.6,2.3,10.24,10.24,0,0,1-1.9,1.8,7.75,7.75,0,0,1-1.6,1.1c-1.9,1.2-2.2,1.1-3.6,1.9a13.08,13.08,0,0,0-2.7,2.4,7.65,7.65,0,0,0-1.4,2.1,2.68,2.68,0,0,0-.2,1,5.34,5.34,0,0,0,.1,1.7c.1.9,0,.3.2,1.9a13.7,13.7,0,0,0,.2,1.6,5.28,5.28,0,0,1,.1,1.2c0,1.1-.1,1.3-.2,1.4a4.35,4.35,0,0,1-.7.6,5.74,5.74,0,0,0-.7.4c-.1,0-.3.1-.7.2-.6.1-1,0-1,.1s.5.3.7.3a1.75,1.75,0,0,0,.5.1h.2a3.44,3.44,0,0,0,1.5-.5,2.84,2.84,0,0,0,1.1-.8,2.25,2.25,0,0,0,.5-1.2,8.31,8.31,0,0,0-.1-2.2c-.2-1.4-.1-.9-.3-2.8a11.7,11.7,0,0,1-.3-2.2,5.6,5.6,0,0,1,1.3-2.6,4.71,4.71,0,0,1,1.4-1.2c.4-.3.7-.5,1.3-.9a21.87,21.87,0,0,1,1.9-1.1,7.59,7.59,0,0,1,1.8-.6c.4-.1.5,0,1.1-.1.9-.1,1.1-.2,1.2-.1s0,.4-1.1,1.7a8.82,8.82,0,0,0-1,1.3c-.5.8-.4.9-.9,1.6-.8,1.2-1.1,1.1-1.6,2.1a3.11,3.11,0,0,0-.5,1.7c0,.5.1.6.2,1.7a9.72,9.72,0,0,1,.1,1.8,13.55,13.55,0,0,1-.2,2c0,1.4.2,1.6.1,2.6a4.85,4.85,0,0,1-.6,2,2.36,2.36,0,0,1-.6.9,4.54,4.54,0,0,1-3.7,2,16.18,16.18,0,0,1-1.8.1h-2a9.06,9.06,0,0,1-2.5-.4,7.45,7.45,0,0,0,2.6,1.4,8,8,0,0,0,1.6.3c.3,0,.9.1,1.5.1a6.9,6.9,0,0,0,2.3-.3,8.89,8.89,0,0,0,2.2-1.1,7.47,7.47,0,0,0,1.9-1.4c.3-.5.1-.6.4-1.9s.5-1.4.6-2.3v-2.8c.1-.7.2-.9.4-1,.4-.1.7,1,1.9,2.3.8.9.9.7,1.4,1.4a6.78,6.78,0,0,1,1.1,2.8,7.82,7.82,0,0,1-.2,2.7,5.2,5.2,0,0,1-.7,2.3,10.11,10.11,0,0,1-1.8,1.7c-1.1,1-1.2,1-1.4,1.3a5.26,5.26,0,0,0-.9,2.1,2.5,2.5,0,0,0,.1,1.7,3.13,3.13,0,0,0,2.2,1.6c1,.4,1.1,0,2.1.4a7.5,7.5,0,0,1,2.3,1.5,1,1,0,0,0,.4.8c.8.7,2.5.1,4.8-.7a31.33,31.33,0,0,0,4.3-1.9,11.25,11.25,0,0,0,2.1-1.2A12.13,12.13,0,0,0,675,187a8.47,8.47,0,0,0,1.2-1.3v-.1c.1-.1.1-.1.1-.2a.35.35,0,0,0,.1-.2,10.18,10.18,0,0,0,.8-1.7c.5-.9.8-1.2,1-1.6.6-1,.1-1.6-.2-4.5-.3-2.4-.1-3.1-.9-3.8-.5-.5-.8-.4-1.7-.9a7,7,0,0,1-2.4-2.6c-1.2-2.1-.5-2.8-1.7-6.1-.4-1.1-.5-.9-1-2.2a24.62,24.62,0,0,1-1.4-5.3c-.6-3.2-.2-3.4-.4-6.2a3.43,3.43,0,0,1,.3-1.8c.2-.4.4-.6.5-.8a7.57,7.57,0,0,1,1.3-1.3,7.47,7.47,0,0,0,1.6-2.7c.6-1.2.4-1,1.5-3.7a19.63,19.63,0,0,0,.9-2.2c.3-.9.2-1.2.6-1.6A7.43,7.43,0,0,1,677,135a15.52,15.52,0,0,1,1.4-.8,20.74,20.74,0,0,1,2.5-1.3,20.52,20.52,0,0,1,2.8-.8,13.32,13.32,0,0,1,4.5-.3,10.68,10.68,0,0,1,3.6,1,8.48,8.48,0,0,1,3.1,2.2c1.8,1.7,1.4,2.3,3.4,4.8a9.13,9.13,0,0,1,1.3,2.2c.1.2.1.5.3,1s.4.8.6,1.3c.3.9.2.9.4,1.5a4.14,4.14,0,0,0,1.6,1.8c.8.5,1.2.4,1.8,1a2.89,2.89,0,0,1,.7,1.1,10.47,10.47,0,0,1,.8,3.2,22.8,22.8,0,0,1,0,2.7c0,1.7.1,2,.1,3.2,0,.4-.1,1-.2,2.1-.1.8-.2,1.7-.4,2.8a20.8,20.8,0,0,1-.7,3.3,8.93,8.93,0,0,1-.9,1.7,10.54,10.54,0,0,0-.7,1.1c-.1.2-.1.2-.8,1.4a11.47,11.47,0,0,0-.8,1.4,7.27,7.27,0,0,0-.7,2.9,15,15,0,0,0,0,3c0,.3.1.7.1,1.7l.2,2a13.13,13.13,0,0,0,.2,2.2c.1.5.3.7.1,1s-.4.3-1,.7c-.4.2-.4.3-.9.7s-.7.4-1.5,1-1.1.7-2,1.2c-1.2.7-1.2.7-2.3,1.3a13.7,13.7,0,0,1-1.4.8,19.41,19.41,0,0,0-1.7,1c-.8.4-1.1.7-1.6.9l-1.6.8c-.9.4-.9.3-1.7.7-1.4.6-1.4.8-1.9.8s-.9-.4-1.9-1.2a15.37,15.37,0,0,0-1.7-1.3c-.8-.4-.9-.3-1.3-.7-.2-.2-.3-.3-.9-1.6s-.7-1.5-.8-1.7a6.37,6.37,0,0,1-.2-.9,2.18,2.18,0,0,1-.1-.6,5.94,5.94,0,0,0-.6-1.6"/><path class="cls-2" d="M716.3,205.7c-1.9-2-2.7-2.7-3.1-3.1l-.1-.1c-.2-.2-.6-.6-1.2-1.1-.1-.1-.4-.4-1.8-2-.2-.2-.6-.7-1.1-1.2s-.9-.9-1.1-.8,0,1.1.5,1.9a2,2,0,0,1,.5.9,2.82,2.82,0,0,1,0,1.3c-.1.6-.2,1.1-.2,1.2a2.67,2.67,0,0,1-.4,1,3.55,3.55,0,0,0-.4.9c-.2.4-.1.4-.4,1a7.6,7.6,0,0,0-.4,1.1,3.63,3.63,0,0,0-.3,1.1,7.07,7.07,0,0,0-.2,1.2c-.1.7-.2,1.3-.2,1.3a5.81,5.81,0,0,0-.1,1,2.7,2.7,0,0,0,.5,1.1,5,5,0,0,0,.7.8,5.72,5.72,0,0,1,.7.8c.3.4.6.7.5.7a6.09,6.09,0,0,1-2.1-1.7,6.85,6.85,0,0,1-1.1-1.8,5.71,5.71,0,0,1-.4-1.6,5.25,5.25,0,0,1,.1-1.7c.2-.6.3-.6.5-1.3a6.3,6.3,0,0,0,.3-1.3,15.52,15.52,0,0,1,.3-1.6c.2-.8.4-.8.5-1.4a6,6,0,0,0-.1-1.8,12.86,12.86,0,0,0-.4-1.9c-.1-1,0-.9-.2-1.3-.3-.9-.7-.9-1.2-2a10.37,10.37,0,0,0-.4-1c-.1-.2-.3-.4-.9-1.2a7.21,7.21,0,0,0-1-1,3.23,3.23,0,0,1-.3-1.7,7,7,0,0,1,.2-1.6c.1-.4.1-1.1.2-1.9"/><path class="cls-2" d="M702.9,186.8a1,1,0,0,0-.5-1.1,1.48,1.48,0,0,0-1-.2"/><path class="cls-2" d="M661.6,192.5a6.76,6.76,0,0,1-1.7.7c-.1,0,0,0-1.5.4a10.23,10.23,0,0,1-1.1.3c-.4.1-.5.1-1,.2a8.14,8.14,0,0,0-.9.2c-.6.2-.7.2-1.3.4-.3.1-.4.1-.8.2-1.4.4-1.4.4-1.8.5-.2.1-.6.2-1.5.6a12.62,12.62,0,0,0-1.6.7,13.39,13.39,0,0,0-1.2.6l-1.2.6a5.83,5.83,0,0,0-1.1.7,6.13,6.13,0,0,0-.8.5,2.68,2.68,0,0,0-.6,1.2,8.11,8.11,0,0,0-.3,1.1c-.2.7-.2.8-.3,1.1s-.3.6-.4.9c-.3.5-.4.6-.8,1.2s-.2.4-.8,1.3a7.38,7.38,0,0,1-.8,1.3c-.5.8-.6.7-.8,1.1s-.2.6-.6,1.4c-.2.5-.3.5-.5,1a5.9,5.9,0,0,0-.5,1.5c-.2.7-.2,1-.4,1.9-.2,1.1-.2,1-.4,2a15.72,15.72,0,0,0-.4,2.3c-.1,1.1-.4,1-.5,1.9,0,.2-.2.8-.4,2.1a9.54,9.54,0,0,0-.4,1.7c0,.4-.2,1-.2,1.4v.4a7.93,7.93,0,0,1-.4,1.7"/><path class="cls-2" d="M653.6,270.9c-.2.8-.3,1.4-.4,1.8a5.63,5.63,0,0,1-.2,1c0,.2-.1.5-.1.8-.2,1.6-.1,2-.2,3.1a24.92,24.92,0,0,1-1.4,6c-.4,1.4-.5,1.3-1.1,3a19.63,19.63,0,0,0-1,3.8c-.2,1.1,0,.9-.3,3.3a26.72,26.72,0,0,1-.5,3.3c-.1.7-.1.6-.5,2.4-.5,2.5-.5,2.4-.6,3.1-.3,1-.5,1.8-1,3.2-.4,1.1-.5,1.3-.8,2.2-.7,1.9-1.1,3.4-1.3,4-.5,1.8-.3,1.6-.9,4.6-.3,1.4-.4,1.5-.8,3.5-.4,1.7-.4,1.8-.6,2.7a31.5,31.5,0,0,0-1,3.2c-.3,1.6.1,1.8-.2,3.7-.2,1.3-.4,1.2-.7,2.7-.4,2.1,0,2.4-.4,4.2-.3,1.3-.5,1.2-.9,2.9a21.59,21.59,0,0,0-.6,3.8c-.3,3-.1,2.8-.4,4-.3,1.4-.6,1.4-1.7,4.2a40.2,40.2,0,0,0-1.4,4.1c-.5,1.6-.4,1.6-1,3.6a23.21,23.21,0,0,1-1.4,4.1,26.66,26.66,0,0,1-2.1,3.4c-.6.9-1.1,1.6-1.7,2.4a13.26,13.26,0,0,1-1.8,2.3c-.4.3-.9.6-.8.9,0,.1,0,.2,1,.8.6.4.7.4.8.6s0,.5.1.8a.86.86,0,0,0,.6.6c.4.1.5-.3,1.1-.3a4.12,4.12,0,0,1,.9.2c.1.1.5.3.6.6s0,.5.1,1.1c.1.4.1.6.3.8,0,0,.2.2,1.5.3a1.65,1.65,0,0,1,.8,1c.1.3,0,.4,0,.8a2.1,2.1,0,0,0,.5,1.5,1.57,1.57,0,0,0,1.2.4c.5,0,.7-.1,1.2-.1a6.48,6.48,0,0,1,1.9.2c1.1.1,1.1-.3,2.5-.3.9,0,.9.1,1.9.1.7,0,1.4-.1,2.9-.2,2-.2,2.3-.3,3.2-.3a6.8,6.8,0,0,1,1.9.3c.9.3.9.7,1.9,1s1.4.1,1.9.5c.2.2.2.3.6,1.3.3.6.4.9.5.9.5.3,1.4.1,3.2-.5a16.71,16.71,0,0,0,2.3-.9,14.8,14.8,0,0,0,1.3-.8,5.22,5.22,0,0,0,1.1-.8c.6-.5.6-.8.8-.8.5-.1.8,1,1.9,1.6.3.2.4.2,2.1.5.4.1,1.4.3,3.3.7,1.3.3,2,.4,2.4.5a21.66,21.66,0,0,0,3.4.9c.7.1.7,0,3.5-.3,1.7-.2,1.8-.1,3.4-.3a18.25,18.25,0,0,0,3-.4c.6-.1,1.8-.4,3.3-.8s1.3-.5,2.6-.9c1.7-.5,2.2-.4,2.9-1s.4-.7,1.2-1.4a7.23,7.23,0,0,1,2.1-1.2,17.8,17.8,0,0,1,2.1-1,17.34,17.34,0,0,1,2.2-.3,17.85,17.85,0,0,1,2.4-.3,7.45,7.45,0,0,1,2.7.7,10.09,10.09,0,0,0,1.5.7,12.38,12.38,0,0,0,1.9.5,9.73,9.73,0,0,0,2,.6c.8.1.9,0,1.9.1s.9.3,1.6.4a12.66,12.66,0,0,0,2.6-.1c1.8-.2,1.4-.1,3.1-.2,1.1-.1,2-.2,3.1-.4,1.4-.2,2.4-.5,2.6-.5a16.55,16.55,0,0,0,2.1-.6c1.1-.4,1.1-.6,2.5-1.2a26.51,26.51,0,0,1,3.3-1.3c.6-.2,1.1-.5,1.7-.7a3,3,0,0,0,1.6-.7c.2-.2.2-.4.4-.9,0-.1.1-.5.2-1.2.1-.9,0-1,.2-1.2a2.23,2.23,0,0,1,1-.5,6.3,6.3,0,0,1,1.3-.3,8.39,8.39,0,0,1,1.3-.2,4.64,4.64,0,0,0,1.7-.9c.6-.5.4-.7.9-1.1a5.17,5.17,0,0,1,1.7-.6c.1,0,1.4-.3,2.2-.5,1.2-.3,2.1-.6,2.7-.8s1.1-.4,1.9-.7c2.5-.9,2.9-1.2,3.1-1.4a4.28,4.28,0,0,0,.9-1.3,6.36,6.36,0,0,0,.7-2.1,3.38,3.38,0,0,0-.1-1.7,6.14,6.14,0,0,0-.9-1.3l-1.4-1.4c-.6-.6-.8-.7-1-.9-.9-.9-1-1.9-1.4-3.4-.2-.8-.1-.1-1.6-4.3-.6-1.5-.7-2-1.2-3a25.05,25.05,0,0,0-1.1-2.3c-.6-1.3-.8-2-1.6-4.2s-.2-.5-1.8-4.8c-1.7-4.6-1.5-4.3-2-5.5-1.4-3.6-1.5-3.4-2.1-5.2-.7-2.1-.6-2.6-1.4-5.1a31.68,31.68,0,0,0-1.3-3.4c-.3-.8-.9-2-1.6-3.5-.6-1.2-1.1-2.1-1.4-2.7-1.2-2.1-1.3-2.1-1.9-3.3-.7-1.5-.5-1.5-1.5-3.8-.5-1.1-.4-.9-1.8-3.9s-1.4-3.2-1.9-3.9c-1.1-1.7-1.4-1.5-1.9-2.8s-.5-2.1-1.4-2.8c-.5-.4-.8-.5-1.5-1.1a3.64,3.64,0,0,1-.9-1.2c-.9-1.5-1.4-2.4-1.8-3.2-.3-.4-.9-1.4-2.2-3.2a15.81,15.81,0,0,0-1.6-2.2c-.4-.5-.7-.8-2.3-2.5l-.3-.3c-1.2-1.3-1.9-2-2.1-2.2-1.7-1.6-2.4-1.3-3-2.5-.3-.5,0-.4-.5-1.8a27.61,27.61,0,0,1-.9-2.7c0-.1-.1-.8-.1-2.2-.1-1.7-.1-1.9-.1-2.4a9.91,9.91,0,0,1-.3-1.9,5.13,5.13,0,0,1,.7-2.4,8.11,8.11,0,0,1,1-1.8c.7-1,1.2-1,2.6-2.4a20,20,0,0,0,1.9-2.1,11.23,11.23,0,0,0,1.3-2,15.07,15.07,0,0,0,.6-1.5c.4-1.2.4-1.9.6-1.9s.5,1.8.6,2.3c.2,1.1.1,1.2.2,1.9a12,12,0,0,0,.6,2,13.16,13.16,0,0,1,.5,2.3c.1.5.1.8.2,1.6.1,1.2.1,1.4.2,2.4,0,.4.1.5.2,1.7.2,1.8.2,1.9.3,2.4.1.7.2.6.5,1.8.1.5.1.5.4,1.9s.3,1.5.4,2a7.45,7.45,0,0,1,.2,1.8c0,.6.1.9,0,1.1s-.2.5-1.4,1.4c-.6.5-1,.8-1,.8-1.2.7-2.3,1.4-3.5,2.1"/><path class="cls-2" d="M735.6,283.3a8.79,8.79,0,0,0,3.4-2.9,11.82,11.82,0,0,0,1.5-3.6c.3-1.3.1-1.5.3-4.1,0-.7.1-.8.5-4.9.2-1.8.3-2.3.4-3.4.1-1.7.1-2.8.1-3.1a15.92,15.92,0,0,0-.2-2.7c-.2-1.5-.3-1.7-.6-3.9-.3-1.7-.2-1.6-.6-4-.2-1.6-.4-2.3-.6-3.4-.4-1.8-.5-1.8-.8-3.5-.4-2-.6-3.6-.7-4.1-.2-1.4-.1-1.4-.3-2.9s-.3-1.6-.5-3.1c-.1-1.1-.2-1.9-.2-2.7-.1-1-.1-2.2-.2-3.7"/><path class="cls-2" d="M735.6,283.3l-1,.5a6.12,6.12,0,0,0-1.2.5,13.35,13.35,0,0,1-1.2.6c-.6.2-1,.3-1.3.4a26.27,26.27,0,0,0-4.6,1.5"/><path class="cls-2" d="M587.2,184.8c.3-.4.5-.7.8-1.1l1.2-.1.6.8.2,1,.7,1.9,1.1,2,1,1.6.9,1,.6.7"/><path class="cls-2" d="M585.9,180.9c.4.1.9.3,1.3.4a9.29,9.29,0,0,1-1.3-.4,7.39,7.39,0,0,0-1.9-.3l-.6.6c0,.3-.1.6-.1.9a6.89,6.89,0,0,0,.3.8c.2.2.5.4.7.6s.6.5.9.7.8.1,1.3.2"/><path class="cls-2" d="M634.6,227.4c-2.3,12.9-3.3,16.5-3.8,16.4-.1,0-.3-.3-.7-.9a7.29,7.29,0,0,0-.9-1.1c-.4-.6-.5-.6-2.3-2.8a29.51,29.51,0,0,1-1.9-2.3c-1.2-1.6-1.2-1.9-2.5-3.7-.9-1.2-.9-1.1-2-2.5-.5-.7-1-1.5-2.1-3.1a18.82,18.82,0,0,1-1.7-2.6c-.6-.9-1-1.5-1.5-2.3-.2-.4-.7-1.1-1.2-2-.1-.2-.2-.3-.2-.4a4.17,4.17,0,0,1-.5-1,17.07,17.07,0,0,0-2.5-2.9c-1.4-1.4-.9-1.3-3.3-3.9-1.6-1.7-1.7-1.7-2.6-2.8a29,29,0,0,1-2.5-3.7c-1.8-2.8-2.7-4.2-3-4.8-.6-1.2-4.1-10.9-4.1-10.9l-2.8-4.2-1.9-2.2c-.8-.6-1.6-1.1-2.4-1.7"/><polyline class="cls-2" points="654.4 382.8 653.6 388.8 650.6 399 648.7 409.6 648.8 423.8 648.4 439.8 648.4 451.1 646.1 457.2 646.6 461.3 645.3 465.4 642.6 473.6 640.8 475.5 639.7 476.6 636.6 484.5 634.5 490.5 633.9 492 631.5 496.6 630.7 499.1 631 501.6 633.4 502.2 637.6 501.6 644.4 499.9 649.6 498.1 654.7 495.4 654.1 490.7 654.5 486.5 655 485 658 485.6 659.7 486.3 660.8 486.7 663.5 485.4 663.6 483.1 663.2 471.7 665 468.9 664.6 466.1 663 463.6 661 460.5 659.8 457.1 664.7 437.3 669.8 421.7 673.3 412.2 674.5 400.5 677.8 392 680 385.3"/><polyline class="cls-2" points="660.6 459.4 659.5 465.6 657.6 470.9 654.2 478.2 649.8 484.2 647 486.6 642.8 487.1 639.5 487.5 638 487.1 638.5 484.1 640.1 479.9 641.7 474.5"/><polyline class="cls-2" points="663.2 471.7 661.6 474.6 657.8 478.6 655.6 482.4 655 485"/><polyline class="cls-2" points="699.4 379.1 701.3 388.3 702.1 398.6 701.5 406.3 703 418.4 705 435 705.6 447 706 450.5 703.8 454.1 702.5 455.9 703.1 460.7 702.6 463.5 701.1 465.6 701.5 469.1 703.2 472.9 705 477.4 705.5 481 705.8 487.9 706.5 489.5 708.3 490.6 712.4 491.5 717.1 491.9 723.1 491.2 725 489.2 726.5 485.3 726 481.4 723.2 477.3 721 469.4 718.7 464.9 717.8 459.3 716.9 448.8 717.5 443.6 722 424.7 723.5 409.2 724.1 395.3 723.4 383.7 723.3 380.2"/><polyline class="cls-2" points="718.7 464.9 719 467.9 720.5 471.5 721.2 476.9 720.3 478.4 717.8 478.7 713.4 479.3 710.3 479.7 706.6 477.1 704.6 472.8 703.5 469.2 703 465.4 702.6 463.5"/><path class="cls-2" d="M583.4,200.9l.6.9,1.2,2.5,1.4,2.2,4.2,3.4,2.3,2.4,4.5,6,4.8,7.5a35.42,35.42,0,0,1,2.3,4.2c0,.1.3.7.6,1.6s.5,1.4,1.1,2.9c1,2.6,1.4,3.8,1.7,4.5,1.1,2.4,1.4,2.4,2.6,5,1,2.1.8,2.3,1.6,3.8s1.5,2.3,2.4,3.6c1.5,2,1.8,2,2.8,3.6.8,1.3.8,1.4,1.7,2.7.8,1.1,1.1,1.4,2.2,2.8,1.8,2.2,1.6,2.2,3.1,4.1.4.5,1.5,1.8,3,3.4,1.3,1.3,2.4,2.5,3.4,3.3a5.72,5.72,0,0,0,2.4.7,6.47,6.47,0,0,0,2.5-.3c.6-.2,1-.5,1.5-.7a22.12,22.12,0,0,0,2.4-1.9,22.64,22.64,0,0,0,1.8-1.6,8.35,8.35,0,0,0,1.5-2.4c.3-.6.5-1.1.7-1.6,1.2-2.2,2.2-4.1,2.9-5.6,1-2.1,1.6-3.2,2-4.2,1.4-3.5,1.4-3.1,2-4.6.5-1.3,1.1-2.7,1.7-4.6.4-1.2.7-2.4,1.3-4.6.5-1.8.9-3.3,1.2-4.4,0-.4,0,3.9.1,5.7v1c.1,1,.2,1.6.3,3.5,0,.5,0,.6-.1,5.2-.1,2.7-.1,3-.1,3.7-.2,1.5-.4,1.9-.5,3.5a23.72,23.72,0,0,0-.1,3.1c0,1.5-.1,3.3-.2,4.6a43.53,43.53,0,0,1-.6,5"/><path class="cls-2" d="M586,186.6a1.27,1.27,0,0,1-.6-.1,4.87,4.87,0,0,0-1.2.1c-.4.2-.7.3-1.1.5l-.6,1-.1,1.1.5.9-1.2,1-.3,1-.1,1,.5.8-.7.4-.7,1.4v1.6l.8.8c.1.1.2.3.4.4"/><line class="cls-2" x1="587.2" y1="185.1" x2="587.2" y2="184.8"/><polyline class="cls-2" points="590 200.3 589.1 198.2 588.9 196.7 589.1 195 589.2 193.8 587.9 191 587.1 188.9 586.9 186.2 587.2 185.1"/><polyline class="cls-2" points="584.7 186.5 585.1 187.7 585.6 188.6 586 189.8 585.2 191 584.3 191.2 583.4 191.1 582.9 190.2"/><polyline class="cls-2" points="581.8 194 582.6 195 583.6 195.6 584.6 195.9 585.1 195.6 586 194.6 585.9 193.7 585.1 192.9 584.5 192.2 583.8 191.6 583.4 191.1"/><polyline class="cls-2" points="580.5 197.4 581.9 197.6 582.9 197.6"/><path class="cls-2" d="M582.9,197.6l.7-.3.6-.5-.1-.5c-.2-.2-.4-.5-.6-.7"/><path class="cls-2" d="M581.7,198.6c.2.2.4.3.5.5"/><path class="cls-2" d="M584.8,195.7c-.2.7-.3,1.4-.5,2,0,.6.1,1.1.1,1.7l.5.5,1.3.6,1.8.7.8.3.3.5-1.7-.2-1.5-.3-3.2-.9-3-.7-2.7-.8v-.2l.2-.2,1.1-.1c.8.2,1.6.3,2.4.5H582c.2-.1.3-.1.5-.2.3-.4.6-.9.9-1.3,0-.1.1-.2.1-.3"/><path class="cls-2" d="M587,187.2l-1.5,6"/><path class="cls-2" d="M585.5,188.5c.8-3.4,1.7-6.9,2.5-10.3l-1.4-1.7a15.38,15.38,0,0,1-1.2-1.3c-.3-.7-.6-1.3-.9-2,2.3-8.7,4.7-17.5,7-26.2,1.1.8,2.2,1.5,3.3,2.3,1.3.3,2.7.7,4,1,1.2,0,2.5-.1,3.7-.1-1.3,4.5-2.5,9.1-3.8,13.6-1.1,4.1-2.2,8.1-3.4,12.2-.7.5-1.5.9-2.2,1.4a16.25,16.25,0,0,0-1.9.4c-.8.2-1.5.4-2.2.6-.5,1.9-.9,3.8-1.4,5.7"/><path class="cls-2" d="M584.5,192.2c.1-.4.2-.7.3-1.1"/><polyline class="cls-2" points="602.5 150.2 599.5 147.8 595.5 146.7 591.5 147"/><path class="cls-2" d="M586.9,164.3c1.3-.6,2.5-1.3,3.8-1.9h4.9c1,.6,2,1.3,3,1.9-1.2.7-2.4,1.3-3.5,2-1.8,0-3.6,0-5.4.1A25.53,25.53,0,0,0,586.9,164.3Z"/><path class="cls-1" d="M379.1,175c-3.2,2.5-5.8,4.4-7.7,5.6-3.1,2.1-4.7,2.8-8,5.2l-6.4,4.6c-2.9,1.5-6,3-9.1,4.4-.9.4-1.9.8-2.8,1.3"/><path class="cls-2" d="M330.4,257c-.3,4.8-.5,9.6-.8,14.4v13.1l-6.7,80.9-2.3,18.5,9,4.7,7.5.9,7.4-1.6h7.3l7.7,3.3,14.7-3.3,5-6.8,3.7-8.5,4.8-6.2,5.1-62.1V292.4l.4-15.4,1.9-13.5L393.6,245l1.5-10.2c-2-10-4.1-20-6.1-29.9-1.1-4.3-2.2-8.7-3.3-13l-3.6-6.6c-1-3.5-1.9-7-2.9-10.5,1.5-1,3.1-2.1,4.6-3.1,1.4-1.9,2.7-3.8,4.1-5.6,1.1-1.6,2.2-3.2,3.2-4.7.7-2.1,1.5-4.2,2.2-6.3s1.4-4,2.1-6.1c.3,1.3.7,2.5,1,3.8-.1,1.5-.1,3-.2,4.5l-2.1,5.1c-.8,1.9-1.6,3.9-2.4,5.8-1.3,1.6-2.7,3.1-4,4.7-1.2.8-2.5,1.7-3.7,2.5-.6,1.1-1.3,2.2-1.9,3.3v6.6l3.6,6.6c.6,2.3,1.1,4.5,1.7,6.8,2.6,12.1,5.2,24.1,7.7,36.2,1.2-2.5,2.4-5.1,3.6-7.6.6-2.5,1.3-4.9,1.9-7.4-.3-3.7-.5-7.4-.8-11.1a28.37,28.37,0,0,1-1.7-8.2,30.49,30.49,0,0,1,.6-8.7c.7-2.9,1.4-3.8,3.5-8.5a99.11,99.11,0,0,0,4.5-11.5,46.45,46.45,0,0,0,1.9-12.2c-.7-3.6-1.4-7.2-2.1-10.9-1.1-1.6-2.2-3.2-3.3-4.9-1.2-.9-2.4-1.9-3.6-2.8l.3-2.1c-.6-.4-1.3-.9-1.9-1.3l-2.8.3-3.8-.6c-1.7-2.5-3.5-5.1-5.2-7.6-3.5-2.4-7-4.8-10.5-7.3l-7.9-2.3-10.2,3.1-8.9,6.6-6.6,6.2-.4,1.2c-1.2,3.9-2.4,7.8-3.6,11.6-.2,3.4-.4,6.9-.7,10.3,1.9,6.9,2.6,10.4,3,12.4a36.47,36.47,0,0,0,1.1,4.6c.4,1.1.8,2.2,1.2,3.1a3.87,3.87,0,0,0,1.2,2.6c.4.3.9.6,3.4.8,1.3.1,2.3.2,3.1.2-1,.7-2.1,1.5-3.3,2.2a30.87,30.87,0,0,1-6.9,3.1,10.72,10.72,0,0,1,2.7,2.4,10.55,10.55,0,0,1,1.9,4.3,3.4,3.4,0,0,0,.1,1h-.1l-3,1.1.3,2.6c-.1,1.7-.2,3.5-.3,5.2a62.18,62.18,0,0,1-3.5,8.9,53.22,53.22,0,0,1-3.3,5.5c-.7,3.4-1.5,6.9-2.2,10.3-.4,3.4-.7,6.8-1.1,10.1"/><path class="cls-1" d="M342,197.3a23.18,23.18,0,0,1,3,2.6h0"/><path class="cls-1" d="M345.2,200c-.1,0-.1-.1-.2-.1"/><path class="cls-1" d="M382,185.5l-6.2,8.1-4.6,5-8.1,5.8-7.3,4.6-3.5,1.9a32.28,32.28,0,0,0-6.3-10l-.8-.8"/><path class="cls-2" d="M358.5,229.4l-3.5,10s-1.5,6.2-1.5,7.3v11.1a9.13,9.13,0,0,0-1.3-.8l-.6,7.2a16.18,16.18,0,0,1,1.8,1c1.7,1.4,3.3,2.8,5,4.2l7.7,2.7,6.2,1.5c.5.2,1.1.3,1.6.5,1-1.6,1.9-3.3,2.9-4.9-.4-.3-.9-.6-1.3-.9.7-1.2,1.4-2.3,2.1-3.5v-4.6l4.2-8.7,2.7-5.2c.9-1.5,1.8-3.1,2.8-4.6"/><path class="cls-1" d="M353.5,257.9c2.6,1.8,5.3,3.6,7.9,5.4l9.1,3.5,5.2,1.6"/><path class="cls-1" d="M370.5,273.3a20,20,0,0,1-3.6,3.8,14.11,14.11,0,0,1-5.2,3.2,10.6,10.6,0,0,1-6.8-.8c-5.2-3.9-9.4-7.5-12.6-10.4-5.4-4.9-9.3-9.1-12.6-12.6-3.8-4.1-6.9-7.7-9.1-10.4-1.4-1.6-2.9-3.1-4.3-4.7-1.3-.2-2.6-.4-3.8-.6l-3.3-1.5-5-4-2.3-5.6v-6.2l1.9-3.5s1.9-1.5,3.1,0,8,3.9,8,3.9l5.1,5.8,11.9,10.4q5.55,5,11.1,10.2c3.1,2.8,6.1,5.7,9.1,8.5"/><path class="cls-1" d="M368.4,389.3l-.3,6.9-.3,8.4c1.1,2,2.5,4.7,4.1,7.9a58.76,58.76,0,0,1,4.6,10.8c1.4,5,2.7,10.1,4.1,15.1l1.5,5,3.9,2.3c2.1,1,3.4.7,5.6,1.6.8,1.3,1.6,2.6,2.4,3.8.4,1.1.8,2.3,1.2,3.4-.4,2.6-.8,5.3-1.1,7.9l2.1,2.7c1.8,2.1,2.5,3.1,4.3,5.2l2.7,3c-.6.6-1.2,1.3-1.7,1.9-.7-1.2-1.5-2.4-2.2-3.6-1.2-1.4-2.5-2.8-3.7-4.3-1.8-2.1-2.4-3-3.9-5l-.9,4.3v8.9s-.2,1.6-.2,2.3a9.63,9.63,0,0,1-.9,2.5l-1.6,3.2-2.5,2.3-5.7,3.2s-3.9,2.3-4.6,2.5-8.2,3.3-8.2,3.3c-.6-.2-1.2-.5-1.8-.7l.4-1a18.94,18.94,0,0,1,.9-2.1c.5-.5.9-1.1,1.4-1.6l1.6-2.1,2.5-3,1.6-3.2,1.1-2.5-.2-5.7-1.6-8-1.1-6.6-1.1-7.1-3-7.3-2.7-7.5-9.8-15.7L345,403.8l-6.4-9.1c-1.6-2-3.2-3.9-4.8-5.9"/><path class="cls-1" d="M367.8,404.6c-2.8-4.5-5.5-8.9-8.3-13.4"/><path class="cls-1" d="M364.9,436.7l-1.5,13v11.1l1.5,3.2,1.6,2.7c.2.9.4,1.9.6,2.8-.3,1.4-.7,2.7-1,4.1-1,1.2-2.1,2.4-3.1,3.5l-1.9,2.7-.7,2.9-.6,3.8-.4,4.2h-2.3l.9-4.1.5-3.2-.2-2.7-.2-2.3-.6-.9-1.5.7-2.3,2.3-2.6,3.3-2.1,3.4-.9,1.9-1.8,1-4.2,1.5h-5.9l-10.5-1.3-3-.9-.9-.7.6-1.2,1.6-.7,3.2-1,8.6-2.9,2.4-.9,3-5.8,2.9-6.8,2.6-3.9,1.1-6,.8-12.1c.6-5.2,1.2-10.3,1.8-15.5a139.46,139.46,0,0,0,.5-18"/><polyline class="cls-1" points="384.8 445 385.9 448.3 386.6 452.1 385.7 461.7 384.4 471.9 383.4 480 378.4 481.1 375.2 481.1 373.9 480.7"/><polyline class="cls-1" points="337.5 482.3 340.2 483.8 341.8 484.6 343.1 484.6 352.9 473.5 358.7 466.6 361.4 463.4 363.4 460.8"/><path class="cls-1" d="M342,137.3c1.8-.5,3.5-1.1,5.3-1.6l3-.8v2.8l7,3.1L357,145l.3,4.4,6,2.1,3,.6-1.1,5.9c1.4.8,2.7,1.7,4.1,2.5,1.4-2,2.8-4.1,4.1-6.1l2.2-.4,1.3.3,1.5.6.6,1.3.3,2.2v3.2c.3,3-.4,4.8-1.1,5.8s-1.7,1.8-1.8,3.4a10.52,10.52,0,0,0,0,1.8,7.76,7.76,0,0,0,1.3,3.5"/><path class="cls-1" d="M357,190.5l.2-2.3-.2-1.4-.5-1.7-.5-2.7-1,.5-1.2.1c-1.6-.1-3.2-.1-4.7-.2"/><path class="cls-2" d="M310.9,222.1c.7-1.7,1.5-3.3,2.2-5a4.76,4.76,0,0,1-1.9-1.5,6.86,6.86,0,0,1-.9-1.6,1.89,1.89,0,0,1-.1-1.1,2,2,0,0,1,.7-1.4,5.56,5.56,0,0,1,.8-.4c.7-.3.8-.3.9-.5s-.2-.5-.2-1,.5-.7,1.1-1.9c.2-.3.2-.5.4-.6.5-.3,1.1,0,1.2-.1s-.5-.2-.5-.6a.83.83,0,0,1,.3-.8,2.43,2.43,0,0,1,.9-.7,2.33,2.33,0,0,1,1.1-.2c.5,0,.7.2.8.1s.1-.2-.2-.6a2.91,2.91,0,0,1-.2-.8,3.78,3.78,0,0,1,.1-1.2,2.6,2.6,0,0,1,.9-1.2c.3-.2.6-.3.7-.4.5-.2.8-.3.8-.4s-.3-.1-.6-.3a1.54,1.54,0,0,1-.7-.7c-.1-.2-.2-.3-.2-.5,0-.5.5-.6,1.2-1.6.3-.4.3-.5.5-.6a1.83,1.83,0,0,1,1.1,0s-.6,0-.7-.4h0c-.1-.5,1.8-1.8,1.8-1.8.3-.3,1.6-1.6,3.1-1.3a2.54,2.54,0,0,1,.7.2c.1-.2.3-.4.4-.6l1.2-2.7c.1-.1.3-.4.4-.5h0c.2,0,.3.1.5.1a1.45,1.45,0,0,0-.2.7l-1.2,2.7c0,.2-.1.3-.1.5a3.54,3.54,0,0,1,.6-.1,1.43,1.43,0,0,1,.7.2,4.23,4.23,0,0,1,.7.5,8.18,8.18,0,0,1,.8.9,6.89,6.89,0,0,1,.4,1,2.79,2.79,0,0,1,.1,1,1.56,1.56,0,0,1-.3,1.2c-.1.1-.2.1-.3.2a8.51,8.51,0,0,1-1.7.4l-.2-.7c-.2.2-.5.4-.8.7a9.68,9.68,0,0,0-.7.9c-.7,1.2-.8,2.1-1.1,2s-.3-.4-.3-.4l.2.8a3.71,3.71,0,0,1,.2.9,8.14,8.14,0,0,1-.2.9,6.37,6.37,0,0,1-.2.7,1.61,1.61,0,0,1-.4.7,2.31,2.31,0,0,1-.7.5c-.3.1-.4.2-.6.2-.5-.1-.7-.9-.9-.9a1.09,1.09,0,0,0-.2.4c-.1.3-.1.3-.2.4s-.2.2-.2.3.1.2.2.3a1.63,1.63,0,0,1,.3.6,8.49,8.49,0,0,1,.3.9,6.53,6.53,0,0,1,.2,1.1c0,.3-.1.4-.3.8a9,9,0,0,1-.5.9c-.5.8-.5.8-.6.8s-.1-.2-.1-.5a4.66,4.66,0,0,0-.2-1.2s-.1,0-.5.4a5.72,5.72,0,0,1-.7.8c-.2.2-.2.1-.5.5-.6.6-.6.7-.6.8s.2,0,.4.1a1.24,1.24,0,0,1,.2.3c.1.1.1.3.2.5s.1.5.2.6v.5c0,.3,0,.5-.1.6a1.27,1.27,0,0,1-.4.6c-.2.2-.3.4-.4.4a1.54,1.54,0,0,1-.6.4c-.1.1-.3.1-.5.2s-.5.1-.8.2-.5.1-1,.1a11.62,11.62,0,0,1-1.3.1h-.7l-2.4,5.1"/><polyline class="cls-1" points="175.3 115 172.1 115.2 174.5 113.6 178.6 111.1 182.6 109.3 185.8 108.7 189 108.4 193.5 108.5 195.1 108.6 196.9 109.3 196.8 110.2"/><path class="cls-1" d="M172.1,115.2l-2.7.6-3.9,1.2-5.7,3.2-5.5,3.1-5.5,4.3-.4.5-2.7,3.3-1.2,3.6-.1.8,3.8,2.5,5.6-6.6,4.9-4.8,7-5.4,8.6-6,8-3.3,8.8-1.7,5.6-.2-.2,2-1.1,1.1-1.5.7c-2.2,1.4-4.4,2.9-6.6,4.3"/><path class="cls-1" d="M148,128.7c-.8-1.7-1.6-3.3-2.4-5l-2.5-5.5-.2-3,2-6.2,3-4.1,4.5-4.3,5.8-3.4,5.3-2.1,3.8-1.3,2.9-.6.9.1,1.4.8,1.3,1.4,2.6,2.5,2.8,3.2c2.6,2.5,5.1,5,7.7,7.5"/><path class="cls-1" d="M157.8,162.1c-2.3-.7-4.6-1.4-7-2.2-6.1,3.6-12.1,7.2-18.2,10.8-1,2.1-2,4.3-2.9,6.4-.3,3.5-.7,7.1-1,10.6l-3,13.8c1,7.5,2,14.9,3,22.4-1,3.5-2,7-3,10.6a25.89,25.89,0,0,0-1.3,18.3c.7,2.4,1.4,4.8,2.2,7.2l7.5,6.9-2.6,11.8L129.8,293l-1.7,17L125,328.6l-2.2,16.3-1,13.3-1.7,12.2a23.41,23.41,0,0,0-.8,7.2,28.82,28.82,0,0,0,.8,5.1c1.2.4,2.9,1,5,1.5a42.23,42.23,0,0,0,10.3.8c6.8.2,6.7.9,12.9,1.1a82.44,82.44,0,0,0,13.2-.6,10,10,0,0,0,1.2-1.9c5-8.7,3-18.9,1.3-24.6.4-3.9.8-7.7,1.2-11.6V306.3l.4-15.8,1.5-18.4.6-15.1V223.7l-2.9-14.9C162.4,193.2,160.1,177.6,157.8,162.1Z"/><path class="cls-1" d="M191.3,161.3v9.9l-1.9,9.3L186.5,192l-3.7,12-1.2,9.9,1.1,10.1,3.1,8.1,2,7.6v13.8l-.9,13.1-1.3,15.3-2.4,17.6-2,11-.8,9.5L179,332.7l-1.8,10.8-2.8,10.9-1.7,10.2-.7,11.8c.6,1.4,1.2,2.7,1.8,4.1a33.26,33.26,0,0,0,5.3,1.6,40.69,40.69,0,0,0,15.3.6l14.6-1.5a43.44,43.44,0,0,0,9.9-1.4,33.82,33.82,0,0,0,3.4-1.1,10.79,10.79,0,0,0,1.6-9.9c-.6-3.6-1.1-7.2-1.7-10.8l-1.1-18.2-1.5-18s-.1-19.8-.1-20,1.2-20.5,1.2-20.5l3-16.8,2-6.8,1.5-8.7c-.3-2.6-.6-5.2-1-7.8-.9-1.7-1.8-3.4-2.8-5-1-2.1-2-4.2-3-6.2-.5-4.5-1-9-1.5-13.4L216.1,202l-3-13-3.3-13.4-2.1-5.3-5.1-3.5-6.3-4.7c-.1-.2-.4-.5-.6-.8a3.19,3.19,0,0,1-.6-.7c-1.5-1.4-1.6-1.6-1.8-1.6a1.92,1.92,0,0,0-1.2.3A2.74,2.74,0,0,0,191.3,161.3Z"/><polyline class="cls-1" points="167.6 251.3 179.3 251.3 187.7 251.3"/><polyline class="cls-1" points="165.1 329.7 170.7 318.7 174.1 305.5 176.2 324 178.3 336.4"/><path class="cls-1" d="M164.3,379.5a22.58,22.58,0,0,0,2.9.4,26.23,26.23,0,0,0,2.7.1l.7-.1s2.5-.4,2.6-.4"/><path class="cls-1" d="M178.1,382c-1.6,2.6-3.3,5.3-4.9,7.9l-1.4,16.6-1.9,16.6-2.1,14.2,8.6,3.4h11.5l1.2-9.6,2.4-19.3,4.3-13.6V382.8"/><path class="cls-1" d="M124.2,384c-.7,5.2-1.4,10.4-2.2,15.5l-1.4,19.7-2.6,13-1.2,7.4,1.7,4.3,10.1,2.4h11.8v-11l3-19,3.1-11.5-1-9.1,1-5.3c.7-1.5,1.4-2.9,2.1-4.4"/><path class="cls-1" d="M191.3,161.3l-2.4,1-1.8,1.8c-.6,1.3-1.2,2.5-1.8,3.8-1,1-2.1,2-3.1,3.1l-2.8.6c-1.1.2-2.3.3-3.4.5-1.5-.3-3-.5-4.4-.8-1.2-.4-2.4-.9-3.5-1.3"/><path class="cls-1" d="M147.2,137.6c0,1.3-.1,2.5-.1,3.8l-.3,1c-.3.2-.5.4-.8.6-.2.5-.3,1-.5,1.5-.3.7-.5,1.3-.8,1.9,0,0-.4,1.6-.4,1.9v3.4l.4,1.4a5.35,5.35,0,0,1,.6,1.3,11.08,11.08,0,0,0,.9,1.9c.2.2,1.3,1.7,1.3,1.7a9.23,9.23,0,0,0,.9.8,2.88,2.88,0,0,0,.6.4c.6.3,1.2.5,1.9.8"/><path class="cls-1" d="M188.5,121.4h0l-.2-.6-.6-1.4c-.2-.7-.3-1.5-.5-2.2v-2.4l-.1-2.1a6.11,6.11,0,0,0-.7-1.4"/><path class="cls-1" d="M189.9,129.7v-.4l-.4-1.8-.3-2.6-.3-1c-.1-.4-.1-.9-.2-1.3"/><path class="cls-1" d="M186.7,165l-2.3-2-1.3-2-.4-2.6v-2.6l-.3-2.2v-2.1l1.4-.3H185l2.1-.8.7-.8,1-1.4v-2.7l.8-2.7.4-2.6.3-2.1v-5.8c-.1-.5-.1-.9-.2-1.4"/><path class="cls-1" d="M165,127.4l6.9-1.7.3,4.3.8,1.4,1.1.9,1,.6H179l1.4-.4,1-.7.6-.8.6-1.7v-2.4l2.2-.6.4,1.1.7,1.3,1,1s.5.7.7.7,2.2.4,2.2.4l2,.2,1.1-.4,1-1,.5-.8a10.81,10.81,0,0,0,.5-2.1,14.68,14.68,0,0,0,.2-2.8,4.7,4.7,0,0,0-.2-1.8,5.89,5.89,0,0,0-.5-1.3,27.41,27.41,0,0,0-2.8-.5c-.9.2-1.8.4-2.8.6a6.89,6.89,0,0,1-.8.3l-.8.3c-.5.3-.9.6-1.4.9l-.7.9-3.2.7-1.4-.9-.8-.3-1.4-.2h-2.1l-3.2.4-2.3.3-1.4.6c-1.6.4-3.2.9-4.7,1.3"/><path class="cls-1" d="M120.9,444.5V448l-.8,4.4v2.4l-.7,3.1-.7,2.8-1,1.5-.9,1.4c-.9.6-1.9,1.2-2.8,1.8s-1.7,1.2-2.5,1.8-1.6,1.4-2.4,2.2-1.5,1.5-2.2,2.3c-.7.5-1.5,1-2.2,1.5l-2.6,1.3s-3,1.2-3.4,1.3-2.9,1.6-2.9,1.6a7.66,7.66,0,0,0-1,2.2v2.5L94,485v1.2l.6,1.1,1.7.7,4.4.6H108l5-.6,5-1.6,7.4-3.2,6.5-4.2.9-2.6v-3.5l-.9-.8.1-3c0-2.2-.1-4.5-.1-6.7.3-2.5.5-5,.8-7.4a15.46,15.46,0,0,1,.6-3.9,11.83,11.83,0,0,1,1-2.7v-1.9"/><polyline class="cls-1" points="117.2 462.9 118.5 463.3 121.4 465.3 123.1 468.1 125.5 473.2 126.3 476.3 131.9 472"/><polyline class="cls-1" points="94.6 482.7 99.8 483.9 105.9 483.9 111.1 483.9 120.4 480.3 126.3 476.3"/><path class="cls-1" d="M168.9,437.7v5l-.7,4.4-1,3c-.4.9-.7,1.8-1.1,2.7-.4,1.2-.9,2.4-1.3,3.6v7.4l-.2.8-.6,2.5v9.1l1.3,3,1.9,4.6,2.2,1,5.5,1.3,5.3-.5,3.6-.4,2.4-1.4.4-3.8-1.1-2.3-2.4-5-1.5-2.9-.9-2.7-.5-2.7-1.1-4.1-.6-1.1-.2-3.6-.2-5.4.9-2.6,2.6-6.9"/><polyline class="cls-1" points="178.5 459.4 174.9 457.8 170.1 458.1 168.3 459.2 166.5 462 164.8 464"/><polyline class="cls-1" points="164.5 465.2 164.8 470.2 166.1 474.3 167.3 476.3 169.1 478.3 172.5 479.8 177.9 480.1 181.6 479.7 184.1 478.6 184.9 476.5"/><path class="cls-1" d="M165.4,121.7v1.9s-.4,1.8-.4,2.1v1.7l-.6,1.6a3.06,3.06,0,0,0-.8,1,14.62,14.62,0,0,1-.9,1.5v.8l-1,1.3-.6,2.3s.5,1.2.6,1.4.5,1.4.6,1.6.5.6.7.8a3.92,3.92,0,0,0,.9.8,10.83,10.83,0,0,1,1.5,1.2l1.3,2.1-.2.8a4.07,4.07,0,0,1,.2,1,1.78,1.78,0,0,0-.2,1.1c0,.9.2.6.1,1.6a10.3,10.3,0,0,0-.1,1.3c0,.2.5.3.6,1.1s0,.9.3,1.6.7.9.8,1.4a3.11,3.11,0,0,1,.1,1.1c0,.9.2.1,0,.9v5.1l-.6,2-.3,2.8a8.84,8.84,0,0,0,0,2.3c.6.7.3,1.4.4,2.1a12.6,12.6,0,0,1,0,3.4,5.64,5.64,0,0,1-1.2-.4l-.4-2.6c0-1.1-.1-2.3-.1-3.4a2.92,2.92,0,0,0-.9-.2s-1.4,2.6-1.5,2.6l-1.6,2.3.1,1.7.2,1.9v3.4l.6,2.7V183a11.94,11.94,0,0,0-.8,1.6c-.2-.1-.4-.3-.6-.4a19.14,19.14,0,0,0,0-2.4,8.87,8.87,0,0,1-.3-1.4c0-.1-.9-2.9-.9-2.9-.3-.9-.6-1.7-.9-2.6"/><path class="cls-1" d="M187.5,118.2c-1.2-1-2.3-2-3.5-3-1.4-.7-2.9-1.3-4.3-2"/><path class="cls-1" d="M190.2,139.9l.4,2.3,1.5,2.1,1.4,1.4a18.08,18.08,0,0,0,1,1.7,13.3,13.3,0,0,1,1.4,1.9c.2.4.8,1.7.8,1.7s.3,3.7.4,3.7a23.59,23.59,0,0,1,.4,3.1v2.8l-.2,2.2"/><path class="cls-1" d="M173.4,125c-.1.2-.1.5-.2.7a8.33,8.33,0,0,0,.1,3.9l.9,1.3,1.3.7,3.5-.1,1.2-.3a17.38,17.38,0,0,1,1.3-1.5c0-1.1.1-2.3.1-3.4-.1-.4-.3-.9-.4-1.3l-1.2-.5a12.49,12.49,0,0,0-6,.4A1.08,1.08,0,0,0,173.4,125Z"/><path class="cls-1" d="M186,124.7c.1.5.1,1,.2,1.5l.7,1.4,1.1,1.2,1,.7,2,.4a5.85,5.85,0,0,1,1.3-.2,5.5,5.5,0,0,0,.9-.7c.2-.5.3-1,.5-1.5a21.05,21.05,0,0,0,.2-2.5v-1.6l-.3-1.2c-.6-.2-1.2-.4-1.7-.6a22.11,22.11,0,0,1-2.5.5c-.8.4-1.6.7-2.4,1.1A4,4,0,0,1,186,124.7Z"/><path class="cls-2" d="M233.3,425.1c2.3.6,4.6,1.3,6.8,1.9,3.6,0,7.2,0,10.9-.1a10.38,10.38,0,0,0-1,2.1,7.42,7.42,0,0,0-.4,1.8,5,5,0,0,0,.2,1.5,3.08,3.08,0,0,0,.8,1.2l2.1.6a8,8,0,0,0,3.1-.6,3.13,3.13,0,0,0,1-.5,2.24,2.24,0,0,0,1-.7,1.93,1.93,0,0,0,.4-1.4c-.1-.4-.2-.8-.3-1.3a5.72,5.72,0,0,0-1.3-2,1.27,1.27,0,0,1,.6.1,16,16,0,0,1,3.3.7l4.8,1.2c1.2-1.1,2.4-2.2,3.7-3.2,1.3-.6,2.6-1.3,3.9-1.9"/><path class="cls-2" d="M222,423.1c1.8.4,3.6.8,5.4,1.3"/><path class="cls-1" d="M228.5,420.5a13,13,0,0,1-1.8,5.2c-.1.2-.3.4-.4.6a6.29,6.29,0,0,0-.8,1.1,3.28,3.28,0,0,0-.2,2.1,5,5,0,0,0,1,2.2,6.66,6.66,0,0,0,1.2.6,8.46,8.46,0,0,0,2.4.4,3.42,3.42,0,0,0,1.7-.1c.4-.1.8-.3,1.1-.4a2.89,2.89,0,0,0,1.2-1.1,1.61,1.61,0,0,0,.3-.9c.1-.3.1-.8.2-1.4h0v-.6a13.08,13.08,0,0,0-1-3c0-1.2-.1-2.3-.1-3.5"/><path class="cls-1" d="M258.2,423.2c-.7-2.1-1.4-4.2-2.2-6.3.1,2,.1,4.1.2,6.1,1.1.1,2.1.3,3.2.4h2.5l6.2.6,4.6.5.5,2.3,1.8,10.4,1.8,10.8.8,10.9,1,11v2.4l-4.7,4.2-6.8,3.8h-2.4l-7.1-1-17.2-3-15.7-2.8-10.2-1.8-2.2-1.9v-6.1l1-6,.4-8.4.6-8.8.4-5.4,1-4.3,1.2-5.9.4-2.2,2.9-.1,1.9.4.4-1.2-.1-1.4h6.2"/><path class="cls-1" d="M236.9,420.9V410.5l.7-4.7.7-4.3,1.9-4.2,1.7-3.4,2.7-.6c.7.2,1.3.5,2,.7l2.2,5.2.6,6,.5,4.2,1,6.1v3.7l.6,4.1c-.1,1.2-.3,2.4-.4,3.7"/><path class="cls-1" d="M261.9,423.4c-.7-2.4-1.4-4.8-2-7.2-.7-1.6-1.4-3.2-2-4.8-.9-2.1-1.8-4.2-2.6-6.2a44.27,44.27,0,0,0-1.7-5.6,42.8,42.8,0,0,0-1.7-4.3l-2.6-3.1-2.5-1.7h-4.1l-2,1.6-3.2,4c-.7,1.4-1.4,2.8-2.1,4.1-.4,1.3-.9,2.5-1.3,3.8-.7,2-1.3,4-2,6l-2,4.3-.7,2.2c-.3,1.4-.6,2.8-.8,4.2"/><path class="cls-1" d="M254.8,403.6c0,.1.8,8.6.8,8.6l.4,4.6"/><path class="cls-1" d="M265.2,429.6l-.7,7c-.1,5.1-.2,10.2-.4,15.3l1.6,10.5v6l1.2,11a3,3,0,0,1,.2,1"/><path class="cls-1" d="M233.1,421.7a34.11,34.11,0,0,1,1.2-6.7,32.53,32.53,0,0,1,2.9-6.9"/><line class="cls-1" x1="256.3" y1="423" x2="256.5" y2="427.6"/><path class="cls-1" d="M233.2,421h4l1.9,1.2h10.4c.6.1,1.1.1,1.7.2"/><polyline class="cls-3" points="133.9 266.8 138.2 263.5 143.3 260.9 148.6 255.8"/><line class="cls-1" x1="193.9" y1="122.2" x2="188.9" y2="123.9"/></svg>