<?xml version="1.0" encoding="utf-8"?>
<!-- Generator: Adobe Illustrator 24.2.1, SVG Export Plug-In . SVG Version: 6.00 Build 0)  -->
<svg version="1.1" id="Ebene_1" xmlns="http://www.w3.org/2000/svg" xmlns:xlink="http://www.w3.org/1999/xlink" x="0px" y="0px"
	 viewBox="0 0 841.9 595.3" style="enable-background:new 0 0 841.9 595.3;" xml:space="preserve">
<style type="text/css">
	.st0{fill:none;stroke:#000000;stroke-width:2;stroke-miterlimit:10;}
	.st1{fill:none;stroke:#000000;stroke-width:2;stroke-linecap:round;stroke-linejoin:round;stroke-miterlimit:10;}
	.st2{fill:#FFFFFF;stroke:#000000;stroke-width:2;stroke-miterlimit:10;}
</style>
<path class="st0" d="M501.7,163.8c-0.5,0.5-1.1,1.2-1.7,2.2c-0.6,1.1-1,2.2-1.1,2.9"/>
<path class="st0" d="M497.4,156.7c0.1,0.5,0.2,1.1,0.3,1.6c0.4,0.7,0.7,1,0.6,1c-0.1,0.1-1.1-1.1-3.1-3.4c-0.9-1.5-1.8-2.9-2.7-4.4
	c-0.7-2.2-1.4-4.3-2.2-6.5c-0.3-2.5-0.6-5-0.9-7.4c0.3-2,0.5-4,0.8-6c0.6-1.3,1.1-2.6,1.7-3.9c1.2-1.4,2.4-2.8,3.6-4.2
	c1.8-1.6,3.6-3.2,5.4-4.9c1.9-0.9,3.9-1.8,5.8-2.7c1.7-0.1,3.4-0.3,5-0.4c1-0.5,1.9-0.9,2.9-1.4c1.3,0,2.9,0.1,4.5,0.3
	c3.2,0.5,5.8,1.4,7.8,2.3c2.2,2.4,4.5,4.8,6.7,7.2c1.4,2.9,2.7,5.7,4.1,8.6c0.7,3.1,1.4,6.2,2.1,9.3c0.7,2.3,1.4,4.6,2.1,6.9
	c1.5,4.6,3,7.4,4.1,9.1c1.1,1.7,1.7,3.8,2.8,5.6c0.3,0.4,0.7,1.1,0.6,1.9c-0.1,0.9-0.7,1-1,2.2c-0.1,0.3-0.4,1.4,0.1,2.3
	c0.4,0.7,0.8,0.5,1.5,1.3c0.6,0.7,0.8,1.5,1,2.5c0.2,0.7,0.3,1.1,0.3,1.6c0,0.9-0.4,1.3-1,2.9c-0.4,1.2-0.7,1.8-0.6,2.2
	c0.1,0.9,0.8,1,2.8,2.9c1.7,1.5,2.1,2.2,2.3,2.6c0.4,0.8,0.7,1.8,0.7,1.9c0.1,0.2,0.2,0.7,0.3,1.6c0.1,1.1,0.1,1.9,0.1,2.5
	c0,0.9,0.1,1.9,0.3,3.8c0.2,2.6,0.4,2.9,0.2,3.6c-0.1,0.3-0.5,1.6-1.6,2.5c-1.2,0.9-2,0.6-2.5,1.4c-0.7,1.1,0.3,2.6,0,2.7
	c-0.4,0.2-2.7-2.6-2-4.1c0.4-0.9,1.8-1,1.7-1.3c-0.1-0.3-1.5-0.3-2.7-0.3c-1.6,0-1.7,0.2-2.6,0.1c-0.9-0.1-1.9-0.1-2.9-0.8
	c-1.2-0.7-1.6-1.8-2-2.7c-0.9-2-0.7-3.7-0.6-4.1c0.1-1.1,0.4-1.2,1.5-3.8c1-2.5,1.5-3.7,1.2-4.6c-0.1-0.3-0.3-0.6-2.8-2.7
	c-1.9-1.6-2.1-1.6-3.1-2.5c-1.1-0.9-2.1-1.9-3.2-3.3c-0.8-1-0.8-1.3-1.8-2.9c-0.7-1.1-1.6-2.4-2.7-3.8"/>
<path class="st0" d="M529.8,169c-1.1-0.2-2.3-0.5-3.4-0.7l-4.3,0.6l-2,1.4l-2.2,1.2l-3.9-0.6l-6.5-0.6l-5.3-1.4h-5.2h-2.5l-3.7,3.7
	l-3.5,7.3l-0.9,4.7l-1.2,4.7v3.8v4.3l1.1,6.6l-0.1,3.8l0.7,4.5l0.4,5.6l0.3,3.9v3.7v2.4l-0.5,3.1l-1.8,4.9l-2.3,5.7l-2.6,6.5l-1.4,6
	l-2.7,10.2l-3.4,13.7l-2.4,9.1l-1.6,2.6l-0.9,4.5v3.5l-3.3,9.4c-0.2,1.6-0.5,3.3-0.7,4.9c0.2,1,0.3,2,0.5,3c0.3,1.2,0.7,2.4,1,3.7
	l1.6,2.9l2.4,3.8l1.7,2.5l0.6,1.4l-0.5,3.6l-1.5,9.3l-0.9,5.8l-2.4,8l-0.6,7.2l-1,7.1l-0.4,1.9l-2,3.4l-1.4,9.4l-1.4,11.1l-2.7,14.2
	l-2.9,19.1l-2.7,14.9l-0.3,4.6l-0.9,3l-0.7,2.6v1.2l1.4,2.1l3.3,1.3l7.5,1.7l3.2-0.3l3.1-1l3.4-2.7l1.2-1l-0.6-4l2.1-12.4l5.7-16.2
	l8.9-24.2l8.8-20.2l8.5-18.5l4.6-12.1c1.1-2.4,2.3-4.8,3.4-7.2c1.1-2.2,2.1-4.5,3.2-6.7l2.2-4.2l4.2-6.4l3.3-5.5l4.5-6.7l1-1.6
	l2.5-5.2l1-2.8v-4.9v-4.9v-5l-1-3.3l-1.1-4.3"/>
<path class="st0" d="M513.9,341.3c0.7,2.3,1.4,4.7,2.1,7l3.7,12.3l4.6,12.4l1.1,2.9l0.6,4.8l1.9,7.9l2.4,8.3l0.8,6.2l0.6,4.6l1,3.5
	l2.3,7.9l0.5,4.5l1.3,12.6l0.6,8.8l1.6,9.1l0.6,6v1.9l0.7,0.5h1.6l2.4-1.2l5.9-0.5l4.4-0.7l5.3-0.4l2.2-1.1V456l-0.8-2.3l-0.5-5.6
	v-10.4l-0.6-8.9l-0.5-14.3l-0.6-7.3l-0.7-5.7l-0.9-10.7l-1.1-7.2l-1.5-8l-2.2-14.5l-3.3-11l-1.7-6.9l-0.3-2.9l1.6-8.1l1-5.6l0.6-5.1
	l0.2-7.6v-7.2l-1.2-8l-2.2-8.3l-2.4-5.5l-2.1-4.9l-2.1-4.8l-1.4-4.4l-1.9-2.4l-2.5-4.1l-2.8-5l-0.5-1.9l0.9-0.9l0.2-4.8l-0.8-4
	l-0.2-0.7l-0.7-0.5l3.9-4.4l4.6-4.9l3.4-4.1l1.8-5.7l2.5-5.5l3.8-2.6l2.2-2.6l0.7-1.3l0.5-6.5l0.9-7c-0.2-0.2-0.3-0.5-0.5-0.7"/>
<path class="st0" d="M487.5,228c0.4-1.7,0.9-3.5,1.3-5.2l1.1-6.7l1.5-8.1l0.9-9.3l1.4-10.5l1-7.8l0.6-3.3l1.2-2.5l1.6-1.3l0.9-0.7
	c-0.6-1.2-1.3-2.4-1.9-3.6"/>
<path class="st0" d="M499,172.5c0.8,2.2,1.7,4.5,2.5,6.7l1.5,5.6l1.9,7.2l1.7,7.8l1.3,6.6l-1,7.6l-2.1,6.2l-1.4,7.1l-1.8,6.9l-1.1,5
	l-0.6,6.1l-1,3.8l-2.3,5.3l-3.2,6.2l-4.8,8.2l-4,8.1l-3.6,6.2l-3.1,5.6l-1,2.1l-0.5,3.3l1.3,4.2l0.5,3.2v1l-1.4,4.2l-1,2.9l-1.6,3.8
	l-0.4,3l0.3,2.9l-0.3,2.9l-0.6,1.7c-0.6,1.8-1.2,3.5-1.8,5.3"/>
<path class="st0" d="M519.2,254.2c0.8,0.1,1.7,0.3,2.5,0.4l5.6,1.3c1.5,0.5,2.9,0.9,4.4,1.4"/>
<path class="st0" d="M519.2,254.2"/>
<path class="st0" d="M515.8,253.7"/>
<path class="st0" d="M498.2,251.3c1.3,0,2.6,0,3.9,0l3.8,1l3.5,0.6h2.4c1.5,0.2,3,0.4,4.4,0.7"/>
<polyline class="st0" points="520.7,244.3 528.1,245.8 531.1,246.4 "/>
<path class="st0" d="M519.9,244.1"/>
<path class="st0" d="M500.4,241.3c1.3,0,2.6,0,3.9,0l5.4,0.9l4.1,0.9c1.4,0.2,2.9,0.4,4.3,0.6"/>
<path class="st0" d="M518.6,242.3l2.2,0.5v2.9l-0.8,3.4l-0.8,3.1v4.1L516,256v-1.5c0,0,0.1-0.9,0.1-0.9c0,0,0.6-4.3,0.6-4.3
	c0.4-1,0.9-2,1.3-3.1l0-3.7L518.6,242.3z"/>
<path class="st0" d="M553.8,215.9c0,1.8,0.1,3.6,0.1,5.4l-0.4,7.8l-0.3,6.2l-0.4,7.8l-0.6,8.8l-0.5,5l-0.4,3l-1.4,3l-1.3,4.3
	l-2.4,8.8c-0.7,2.3-1.4,4.7-2.1,7"/>
<polyline class="st0" points="535.8,265.5 537.1,261.3 538.5,258.4 538.8,254.7 538.5,250.5 537.6,244.1 537.4,239.4 "/>
<polyline class="st0" points="514.5,170.9 513.9,169.2 512.4,167.9 510.9,167.1 508.9,167.8 506.7,168.6 504.3,168.3 502.5,165.7 
	501,162.2 498.6,158.2 497.1,156.4 496.2,153.6 496.2,148.8 494.4,144.9 493.9,142.6 493.9,139.5 493.9,135.7 494.3,131.4 
	496.8,128.6 500.2,126.5 503.4,125.9 507.4,126.7 511.7,129.1 514.5,130.6 518.1,134.3 520.1,137.3 522.6,140.3 524.1,142.4 
	527.1,149.6 528.9,153.1 528.5,154.4 527,156.9 526.3,160.1 526.9,164 528.3,167 529.8,169 "/>
<polyline class="st0" points="450.1,457.8 448.7,460.7 447.8,462.7 446.5,464.6 446.5,466.4 446.5,468.5 449.1,470.7 451.3,471.7 
	453.7,471.4 455.3,469.2 457.2,466.7 459.5,466.2 461.6,465.9 463.7,465.6 464,463.7 464.8,461.7 "/>
<path class="st0" d="M463.7,464.6c1.2,1.3,2.5,2.7,3.7,4l1.9,1.8l1.8,3.6l1.2,6.2l0.6,4.1l0.7,2.3v2.6l-1.3,1.7l-4.3,1.3l-2.8,1
	l-4.3,1.2l-2.6,0.8H454l-4-1.1l-2.2-0.9l-0.7-1.2l-0.6-3.6l-5.5-0.3l-1,2.4L439,491l-7-0.7l-3.3-0.8l-1.2-0.7l-0.6-1.8l-0.5-1.1
	l-1.2,0.1l-0.5,0.8l-0.8-0.1l-1.2-2l-1.1-3v-2.7l0.2-1l0.1-0.4l0.3-1.2l1.1-2.9l1.8-1.6l2.6-0.9l2.5-0.5l1.9,0.3l2.1-3.2l3-2.7
	l2.7-2.1l2.6-1l2,0.6c0.6,0.3,1.2,0.6,1.8,0.9"/>
<path class="st0" d="M422,478.1c0.6,0.6,1.2,1.1,1.7,1.7l1.8,1.5l1,0.9l0.6,0.3l2.4-0.7l3.9-1.7l1.9-0.4l1.3,0l1.3,0.7l1.5,1.3
	l1.6,1.7l1,0.3h2.8h2.2l1.5-1.5l1.1-0.3l3.3,0.3l2.9,0.6h1.2l1.8-0.8l2.2-2l3.2-1.9l2.6-0.2l2.6,0.2c0.8,0.2,1.6,0.5,2.5,0.7"/>
<path class="st0" d="M540.2,462.7v1.1l-0.2,0.3l-0.1,0.2l-0.1,0.3l-0.3,0.6l-0.3,1.2v2.2l0.2,1.3l1.1,0.9l1.7,1.1h1.5h1.4l1.9-2.3
	l1.3-1.6l1.2-0.5l2.7-0.2l2.5-0.2l1.3,0.5l1.1,1l0.9,2.7l0.4,2.2l0.4,1.2l0.5,2.3l-0.3,2.6l0.3,1.8l0.3,2.4l0.6,2.3l0.8,1.3l0.3,1
	l0.5,1.8l0.8,2.8v1.8l-0.7,1.4l-1.3,0.3h-3.6h-3.4l-5.3,0.6h-3.2h-2.4l-1.5-1l-1.5-3.4l-0.3-3.1l0.5-1.7l-0.5-0.5l-0.5,0.9l-0.4,1.3
	l-0.6,0.3l-2-0.2l-3.5-1.1l-2.1-1l-0.8-1.2c0.1-1.9,0.1-2.6,0-2.6c-0.1,0-0.3,1.4-0.5,1.3c-0.2,0-0.3-0.6-0.4-1.4l-0.2-2.5v-2.4
	l0.5-1.1l0.5-0.6l0.4-3.2l0.8-1.7l2.3-1.4l0.7,0.1l0.9-0.6l1.6-1.5l0.8-1.6l1.2-1.5l0.5-1l0.5-0.5c0.2-0.1,0.4-0.2,0.6-0.2"/>
<path class="st0" d="M561.5,488.5c-0.7-0.5-1.5-1-2.2-1.5l-2.9-0.4l-2.3-0.2l-2,0.3l-2.5,0.9l-1.6,0.9l-1.9,1.4l-1.1,0.8l-0.7,0.4
	l-0.9,0.5h-0.8l-1-0.4l-0.8-0.5l-0.2-0.8l-0.2-1.4v-1.8l-0.9-0.7l-0.8-3.1l-1.6-1.4l-1.8-1.5l-1.5-0.6l-1.3,0.6l-1.3,0.4l-0.6-0.1
	l-0.8-1.5c-0.2-0.3-0.4-0.7-0.6-1"/>
<polyline class="st0" points="553.9,460.4 553.9,462.7 553.9,464.3 553.9,465.4 554.2,467.1 "/>
<path class="st1" d="M716.3,205.7c0.4,0.5,0.9,1.2,1.6,2c0.8,0.9,1.3,1.6,2.1,2.4c1.3,1.4,1.6,1.5,2,2.2c0.4,0.7,0.2,0.8,0.7,2
	c0.7,1.7,1.5,2.9,1.9,3.5c0.5,0.8,0.9,1.4,1.6,2.1c0.8,0.8,1.5,1.2,2,1.5c0.4,0.3,1.6,1,3.4,1.6c2,0.7,2.5,0.4,3.2,1.1
	c0.2,0.2,0.1,0.1,1.3,1.7c0.6,0.7,0.7,0.9,1,1.3c0.2,0.2,0.4,0.6,0.9,1.4c0.5,0.8,0.7,1.2,0.9,1.4c0.5,1,0.4,0.9,0.8,1.5
	c0.6,0.9,1.2,1.5,1.6,1.8c0.7,0.6,1.1,0.7,1.2,0.8c0.7,0.3,1.3,0.2,1.4,0.2c0.5-0.1,1-0.2,1-0.4c0-0.1-0.5-0.1-1.3-0.4
	c-0.3-0.1-1.2-0.4-1.9-1c-0.4-0.4-0.6-0.8-1-1.4c-0.1-0.2-0.2-0.4-0.3-0.6c-0.2-0.5-0.1-0.7-0.2-1.3c-0.1-0.5-0.2-0.5-0.3-0.9
	c-0.1-0.5-0.1-0.9,0.1-1.1c0.4-0.3,1.2-0.1,1.7,0.2c0.3,0.2,0.3,0.3,0.9,1c0.5,0.5,0.5,0.4,0.8,0.8c0.5,0.6,0.5,0.7,1.1,1.4
	c0.2,0.3,0.9,1,1,1c0.1,0,0-0.3-0.2-0.8c-0.1-0.5-0.1-0.6-0.1-1.1c-0.2-1.2-0.5-1.7-0.3-1.8c0.1-0.1,0.2,0,0.8,0.3
	c0.5,0.3,0.4,0.2,1.1,0.5c0.9,0.4,0.8,0.4,1.3,0.6c0.3,0.1,0.7,0.2,1.2,0.3c0.4,0.1,0.8,0.1,1.4,0c0.6-0.1,1.2-0.4,1.1-0.5
	c0-0.1-0.4,0.1-1.1,0c-0.2,0-0.6,0-1.1-0.2c-0.2-0.1-0.4-0.2-0.9-0.6c-0.4-0.3-0.4-0.3-0.7-0.5c-0.5-0.4-0.6-0.4-0.9-0.6
	c-0.4-0.3-0.6-0.6-1-1.1c-0.4-0.5-0.7-0.9-0.8-1.5c0-0.2-0.3-1.2,0.1-1.4c0.1,0,0.2-0.1,1.5,0.5c0.7,0.3,0.9,0.4,1.3,0.5
	c0.1,0,0.4,0.1,1,0.2c0.5,0.1,1.1,0.1,2,0.1c1.2,0,1.8,0,2.5-0.4c0.3-0.1,0.5-0.3,1-0.6c0.2-0.1,0.7-0.5,1.2-1
	c1.1-1.1,1.8-2.4,1.6-2.5c-0.1,0-0.9,0.8-0.9,0.9c-0.4,0.5-0.5,0.6-0.7,0.7c-0.4,0.2-0.7,0.3-1.2,0.3c-0.5,0.1-0.9,0.1-1.1,0
	c-0.5,0-1.4-0.1-2.3-0.7c-0.2-0.1-0.8-0.5-1.1-1.1c-0.2-0.4-0.3-0.8-0.4-1.5c-0.1-0.6-0.2-1.2-0.2-2c0-1.3,0.3-1.2,0.3-2.3
	c0-0.4-0.1-1.1-0.4-2.5c0-0.2-0.2-1-0.4-2c-0.2-0.9-0.3-1.4-0.4-1.7c-0.2-0.6-0.3-0.8-0.9-2.1c-0.6-1.2-0.8-1.7-1.1-2.3
	c-0.6-1.4-0.5-1.4-0.9-2.3c-0.2-0.4-0.6-1.1-1.5-2.4c-0.9-1.4-1-1.6-1.2-1.8c-0.6-0.6-0.8-0.6-1.4-1.4c-0.6-0.6-0.5-0.8-1-1.3
	c-0.4-0.4-0.8-0.7-1.4-1.2c-0.7-0.5-0.9-0.6-2.2-1.5c-1-0.6-1.5-1-1.6-1.1c-0.3-0.3-1-1-1.2-2.3c0-0.2-0.2-1.1,0.3-2.2
	c0.1-0.4,0.6-1.3,0.9-1.2c0.4,0.1-0.1,1.4,0.7,2.8c0.5,0.9,1.4,1.5,1.8,1.8c0.5,0.3,0.5,0.3,1.7,0.9c0.6,0.3,1.5,0.8,2.5,1.4
	c1.1,0.7,1.1,0.8,2.3,1.6c0.9,0.6,0.9,0.5,2,1.1c1.9,1.1,2.4,1.7,2.5,1.9c0.3,0.4,0.5,0.8,0.8,1.5c1.2,2.9,1.7,5,1.9,4.9
	c0.1,0,0.1-0.4,0-1.1c0-0.6-0.1-1-0.1-1.1c0-0.1,0-0.2-0.1-0.3c-0.1-0.3-0.2-0.6-0.2-0.7c-0.1-0.3-0.2-0.7-0.3-1
	c-0.2-0.7,0-0.9-0.2-1.3c-0.2-0.8-0.6-0.7-1.4-1.9c-0.5-0.8-0.4-0.9-0.9-1.3c-0.4-0.3-0.5-0.3-1.3-0.7c-0.6-0.4-0.6-0.5-1.3-0.9
	c-0.7-0.5-0.8-0.4-1.6-0.9c-0.4-0.2-0.8-0.5-1.7-1.2c-1.5-1.1-1.3-1-1.7-1.3c-1.2-0.7-1.4-0.6-2-1.2c-0.4-0.4-0.6-0.8-1-1.5
	c-0.4-0.8-0.6-1.2-0.6-1.6c0-0.6,0.2-0.8,0.1-1.4c0-0.3-0.1-0.3-0.3-0.9c-0.1-0.3-0.3-1-0.3-1.9c0-0.4,0-0.7,0.1-1.2
	c0.1-0.9,0.2-1,0.3-1.6c0.1-0.6,0-0.6-0.1-1.9c0-0.6,0-0.7,0-1.4c0-0.9,0-1.3-0.1-1.5c-0.2-0.7-0.7-1.1-1.1-1.6
	c-0.1-0.1-0.5-0.5-1.3-1c-0.8-0.5-1-0.5-2.3-1.1c-1.4-0.7-1.5-0.9-2.3-1.1c-0.8-0.2-0.8-0.1-1.8-0.3c-1-0.2-1.8-0.4-2.4-0.9
	c-0.5-0.4-0.7-0.9-1-1.8c-0.1-0.2-0.3-0.8-0.4-1.7c-0.1-0.9,0-1-0.1-1.7c-0.1-0.6-0.2-0.6-0.5-1.8c-0.3-1.1-0.3-1.2-0.6-2.2
	c-0.3-1-0.4-0.9-0.5-1.6c-0.2-0.9-0.1-1.1-0.4-1.7c-0.3-0.7-0.5-0.6-0.7-1.3c-0.4-1,0-1.4-0.4-2.1c-0.1-0.2-0.2-0.2-1.2-1.1
	c-0.4-0.3-0.8-0.7-1.2-1.1c-0.5-0.6-0.7-0.8-1.1-1.4c-1-1.3-1.4-1.3-2.4-2.6c-0.1-0.1,0,0-1.1-1.5c-1.1-1.6-1.2-1.7-1.4-2.1
	c-0.5-0.9-0.5-1-1-1.9c-0.5-0.8-0.9-1.3-1.1-1.6c-0.4-0.6-1.1-1.3-2-2.2c-0.7-0.7-1.5-1.4-2-1.8c-0.6-0.5-0.9-0.7-1.3-1.2
	c-0.6-0.6-0.5-0.7-1.1-1.4c-0.4-0.5-1-1-2.1-2.1c-0.7-0.7-1.1-1-1.3-1.2c-0.8-0.7-0.9-0.7-2.3-1.7c-0.9-0.7-1.3-1-1.4-1.1
	c-0.5-0.5-0.6-0.6-1-0.7c-0.5-0.2-0.7-0.1-1.6-0.3c-0.6-0.1-0.6-0.2-1.5-0.5c-0.2,0-0.5-0.1-1-0.2c-0.5-0.1-1.1-0.2-1.9-0.3
	c0,0-0.6,0.1-1,0.1c-1.2,0.1-1.2,0.1-1.6,0.2c-0.4,0.1-0.8,0.2-1,0.3c-0.9,0.3-1,0.5-1.4,0.5c-0.4,0-0.5-0.1-1.1-0.4
	c-0.3-0.1-1.2-0.4-2.2-0.5c-0.3,0-0.2,0-1.9,0.2c-1.1,0.1-1.2,0.1-1.5,0.2c-0.6,0.2-0.6,0.4-1.4,0.8c-0.7,0.4-0.8,0.2-1.3,0.5
	c-0.5,0.3-0.5,0.4-1.1,0.9c-0.4,0.3-0.4,0.2-1.1,0.7c-0.1,0.1-0.3,0.2-1.1,0.8c-0.8,0.6-1.2,0.9-1.3,1c-0.5,0.4-0.9,0.8-1.2,1.2
	c-0.2,0.2-0.6,0.7-1,1.2c-0.7,1-1,1.9-1.1,2.2c-3.6,6.7-6.1,10.8-6.9,13.8c0,0.2-0.3,1.1-0.8,2.9c-0.3,1.3-0.4,1.6-0.6,2.1
	c-0.5,1-1,1.6-1.6,2.3c-0.7,0.8-1.3,1.4-1.9,1.8c-0.2,0.2-0.7,0.6-1.6,1.1c-1.9,1.2-2.2,1.1-3.6,1.9c-1.2,0.8-2,1.6-2.7,2.4
	c-0.7,0.8-1.1,1.4-1.4,2.1c-0.2,0.5-0.2,0.9-0.2,1c-0.1,0.5,0,0.8,0.1,1.7c0.1,0.9,0,0.3,0.2,1.9c0,0.4,0.1,0.9,0.2,1.6
	c0.1,0.5,0.1,0.8,0.1,1.2c0,1.1-0.1,1.3-0.2,1.4c-0.2,0.2-0.4,0.4-0.7,0.6c-0.2,0.1-0.4,0.2-0.7,0.4c-0.1,0-0.3,0.1-0.7,0.2
	c-0.6,0.1-1,0-1,0.1c0,0.1,0.5,0.3,0.7,0.3c0.3,0.1,0.5,0.1,0.5,0.1c0,0,0.1,0,0.2,0c0.7,0,1.5-0.5,1.5-0.5c0.4-0.2,0.8-0.4,1.1-0.8
	c0.2-0.2,0.4-0.6,0.5-1.2c0.1-0.8,0-1.3-0.1-2.2c-0.2-1.4-0.1-0.9-0.3-2.8c-0.3-1.8-0.3-1.8-0.3-2.2c0.2-1.3,1-2.2,1.3-2.6
	c0.5-0.6,1-1,1.4-1.2c0.4-0.3,0.7-0.5,1.3-0.9c0.8-0.5,1.3-0.8,1.9-1.1c0.7-0.3,1.2-0.5,1.8-0.6c0.4-0.1,0.5,0,1.1-0.1
	c0.9-0.1,1.1-0.2,1.2-0.1c0.1,0.1,0,0.4-1.1,1.7c-0.7,0.9-0.8,0.9-1,1.3c-0.5,0.8-0.4,0.9-0.9,1.6c-0.8,1.2-1.1,1.1-1.6,2.1
	c-0.2,0.3-0.5,0.9-0.5,1.7c0,0.5,0.1,0.6,0.2,1.7c0.1,0.5,0.1,1.1,0.1,1.8c0,1-0.1,1-0.2,2c0,1.4,0.2,1.6,0.1,2.6
	c0,0.5-0.2,1.2-0.6,2c-0.1,0.3-0.3,0.6-0.6,0.9c-0.3,0.5-0.9,1.2-1.9,1.6c-0.6,0.3-1.2,0.4-1.8,0.4c-0.3,0-0.5,0.1-1.8,0.1
	c-1.2,0-1.8,0-2,0c-0.6,0-1.5-0.1-2.5-0.4c1.1,0.9,2,1.2,2.6,1.4c0.7,0.2,1.4,0.3,1.6,0.3c0.3,0,0.9,0.1,1.5,0.1
	c0.6,0,1.4,0,2.3-0.3c0.7-0.2,1.2-0.5,2.2-1.1c1.1-0.7,1.6-1,1.9-1.4c0.3-0.5,0.1-0.6,0.4-1.9c0.3-1.4,0.5-1.4,0.6-2.3
	c0-0.3,0-0.9,0-2c0-0.1,0-0.8,0-0.8c0.1-0.7,0.2-0.9,0.4-1c0.4-0.1,0.7,1,1.9,2.3c0.8,0.9,0.9,0.7,1.4,1.4c0.8,1.1,1,2.3,1.1,2.8
	c0.1,1,0,1.9-0.2,2.7c-0.2,1.2-0.3,1.7-0.7,2.3c-0.2,0.3-0.7,0.8-1.8,1.7c-1.1,1-1.2,1-1.4,1.3c-0.1,0.2-0.7,0.9-0.9,2.1
	c-0.1,0.6-0.2,1.1,0.1,1.7c0.5,1.1,1.7,1.5,2.2,1.6c1,0.4,1.1,0,2.1,0.4c1.3,0.5,2.3,1.5,2.3,1.5c0,0.2,0.1,0.6,0.4,0.8
	c0.8,0.7,2.5,0.1,4.8-0.7c1.9-0.7,3.2-1.3,4.3-1.9c0.7-0.3,1.4-0.7,2.1-1.2c0.9-0.5,1.5-0.9,2.2-1.5c0,0,0.7-0.6,1.2-1.3
	c0,0,0-0.1,0-0.1c0.1-0.1,0.1-0.1,0.1-0.2c0,0,0.1-0.1,0.1-0.2c0.4-0.6,0.8-1.7,0.8-1.7c0.5-0.9,0.8-1.2,1-1.6
	c0.6-1,0.1-1.6-0.2-4.5c-0.3-2.4-0.1-3.1-0.9-3.8c-0.5-0.5-0.8-0.4-1.7-0.9c-1.3-0.8-2-1.9-2.4-2.6c-1.2-2.1-0.5-2.8-1.7-6.1
	c-0.4-1.1-0.5-0.9-1-2.2c-0.8-2-1.1-3.6-1.4-5.3c-0.6-3.2-0.2-3.4-0.4-6.2c0-0.3-0.1-1,0.3-1.8c0.2-0.4,0.4-0.6,0.5-0.8
	c0.5-0.7,1.1-1.1,1.3-1.3c0.6-0.5,0.9-1.2,1.6-2.7c0.6-1.2,0.4-1,1.5-3.7c0.7-1.6,0.7-1.6,0.9-2.2c0.3-0.9,0.2-1.2,0.6-1.6
	c0.2-0.2,0.4-0.4,1.8-1.2c0.8-0.5,1.2-0.7,1.4-0.8c1.2-0.7,1.8-1,2.5-1.3c1.1-0.4,1.9-0.6,2.8-0.8c1.5-0.3,2.8-0.5,4.5-0.3
	c0.3,0,1.9,0.2,3.6,1c1.6,0.7,2.6,1.6,3.1,2.2c1.8,1.7,1.4,2.3,3.4,4.8c0.4,0.6,1,1.3,1.3,2.2c0.1,0.2,0.1,0.5,0.3,1
	c0.2,0.6,0.4,0.8,0.6,1.3c0.3,0.9,0.2,0.9,0.4,1.5c0.4,1,1.3,1.6,1.6,1.8c0.8,0.5,1.2,0.4,1.8,1c0.2,0.2,0.4,0.4,0.7,1.1
	c0.6,1.3,0.7,2.5,0.8,3.2c0.1,1,0,0.8,0,2.7c0,1.7,0.1,2,0.1,3.2c0,0.4-0.1,1-0.2,2.1c-0.1,0.8-0.2,1.7-0.4,2.8
	c-0.4,2.4-0.6,3-0.7,3.3c-0.4,1-0.9,1.7-0.9,1.7c-0.3,0.4-0.4,0.6-0.7,1.1c-0.1,0.2-0.1,0.2-0.8,1.4c-0.4,0.7-0.6,0.9-0.8,1.4
	c-0.5,1-0.6,1.8-0.7,2.9c-0.1,1.1-0.1,2,0,3c0,0.3,0.1,0.7,0.1,1.7c0.1,1,0.1,1,0.2,2c0.2,2.1,0.1,2,0.2,2.2c0.1,0.5,0.3,0.7,0.1,1
	c-0.1,0.3-0.4,0.3-1,0.7c-0.4,0.2-0.4,0.3-0.9,0.7c-0.4,0.3-0.7,0.4-1.5,1c-0.8,0.5-1.1,0.7-2,1.2c-1.2,0.7-1.2,0.7-2.3,1.3
	c-0.5,0.3-0.6,0.4-1.4,0.8c-0.9,0.5-1.1,0.6-1.7,1c-0.8,0.4-1.1,0.7-1.6,0.9c-0.8,0.4-1.4,0.7-1.6,0.8c-0.9,0.4-0.9,0.3-1.7,0.7
	c-1.4,0.6-1.4,0.8-1.9,0.8c-0.4,0-0.9-0.4-1.9-1.2c-1.1-0.8-1.1-1-1.7-1.3c-0.8-0.4-0.9-0.3-1.3-0.7c-0.2-0.2-0.3-0.3-0.9-1.6
	c-0.7-1.4-0.7-1.5-0.8-1.7c-0.1-0.3-0.1-0.4-0.2-0.9c0,0-0.1-0.3-0.1-0.6c-0.1-0.6-0.4-1.2-0.6-1.6"/>
<path class="st1" d="M716.3,205.7c-1.9-2-2.7-2.7-3.1-3.1c0,0-0.1-0.1-0.1-0.1c-0.2-0.2-0.6-0.6-1.2-1.1c-0.1-0.1-0.4-0.4-1.8-2
	c-0.2-0.2-0.6-0.7-1.1-1.2c-0.6-0.6-0.9-0.9-1.1-0.8c-0.2,0.1,0,1.1,0.5,1.9c0.3,0.4,0.4,0.5,0.5,0.9c0.1,0.4,0.1,0.7,0,1.3
	c-0.1,0.6-0.2,1.1-0.2,1.2c0,0.1-0.1,0.5-0.4,1c-0.2,0.4-0.3,0.5-0.4,0.9c-0.2,0.4-0.1,0.4-0.4,1c-0.2,0.6-0.3,0.6-0.4,1.1
	c-0.2,0.5-0.3,0.9-0.3,1.1c-0.1,0.4-0.1,0.4-0.2,1.2c-0.1,0.7-0.2,1.3-0.2,1.3c-0.1,0.7-0.1,0.8-0.1,1c0.1,0.4,0.2,0.7,0.5,1.1
	c0.2,0.3,0.4,0.5,0.7,0.8c0.3,0.3,0.4,0.4,0.7,0.8c0.3,0.4,0.6,0.7,0.5,0.7c-0.1,0.1-1.2-0.7-2.1-1.7c-0.7-0.8-1-1.6-1.1-1.8
	c-0.3-0.8-0.4-1.4-0.4-1.6c0-0.4-0.1-1,0.1-1.7c0.2-0.6,0.3-0.6,0.5-1.3c0.1-0.3,0.2-0.6,0.3-1.3c0.2-1.2,0.2-1.2,0.3-1.6
	c0.2-0.8,0.4-0.8,0.5-1.4c0.1-0.5,0-0.9-0.1-1.8c-0.1-0.9-0.2-1-0.4-1.9c-0.1-1,0-0.9-0.2-1.3c-0.3-0.9-0.7-0.9-1.2-2
	c-0.2-0.5-0.2-0.6-0.4-1c-0.1-0.2-0.3-0.4-0.9-1.2c-0.8-0.9-0.8-0.8-1-1c-0.3-0.5-0.3-1.1-0.3-1.7c0-0.7,0.1-1.1,0.2-1.6
	c0.1-0.4,0.1-1.1,0.2-1.9"/>
<path class="st1" d="M702.9,186.8c0.1-0.4-0.1-0.9-0.5-1.1c-0.4-0.3-1-0.2-1-0.2"/>
<path class="st1" d="M661.6,192.5c-0.7,0.4-1.3,0.6-1.7,0.7c-0.1,0,0,0-1.5,0.4c-0.8,0.2-0.9,0.3-1.1,0.3c-0.4,0.1-0.5,0.1-1,0.2
	c-0.2,0-0.4,0.1-0.9,0.2c-0.6,0.2-0.7,0.2-1.3,0.4c-0.3,0.1-0.4,0.1-0.8,0.2c-1.4,0.4-1.4,0.4-1.8,0.5c-0.2,0.1-0.6,0.2-1.5,0.6
	c-0.7,0.3-1.1,0.4-1.6,0.7c-0.5,0.2-0.8,0.4-1.2,0.6c-0.4,0.2-0.6,0.3-1.2,0.6c-0.2,0.1-0.6,0.3-1.1,0.7c-0.5,0.3-0.7,0.4-0.8,0.5
	c-0.3,0.3-0.4,0.6-0.6,1.2c-0.1,0.3-0.2,0.6-0.3,1.1c-0.2,0.7-0.2,0.8-0.3,1.1c-0.1,0.3-0.3,0.6-0.4,0.9c-0.3,0.5-0.4,0.6-0.8,1.2
	c-0.3,0.5-0.2,0.4-0.8,1.3c-0.3,0.6-0.5,0.9-0.8,1.3c-0.5,0.8-0.6,0.7-0.8,1.1c-0.3,0.5-0.2,0.6-0.6,1.4c-0.2,0.5-0.3,0.5-0.5,1
	c-0.1,0.2-0.3,0.6-0.5,1.5c-0.2,0.7-0.2,1-0.4,1.9c-0.2,1.1-0.2,1-0.4,2c-0.2,0.9-0.3,1.3-0.4,2.3c-0.1,1.1-0.4,1-0.5,1.9
	c0,0.2-0.2,0.8-0.4,2.1c-0.2,0.9-0.4,1.2-0.4,1.7c0,0.4-0.2,1-0.2,1.4c0,0.2,0,0.3,0,0.4c-0.1,0.4-0.1,1-0.4,1.7"/>
<path class="st1" d="M653.6,270.9c-0.2,0.8-0.3,1.4-0.4,1.8c-0.1,0.5-0.1,0.8-0.2,1c0,0.2-0.1,0.5-0.1,0.8c-0.2,1.6-0.1,2-0.2,3.1
	c-0.2,2.2-0.7,3.9-1.4,6c-0.4,1.4-0.5,1.3-1.1,3c-0.6,1.7-0.8,2.6-1,3.8c-0.2,1.1,0,0.9-0.3,3.3c-0.1,0.9-0.2,2-0.5,3.3
	c-0.1,0.7-0.1,0.6-0.5,2.4c-0.5,2.5-0.5,2.4-0.6,3.1c-0.3,1-0.5,1.8-1,3.2c-0.4,1.1-0.5,1.3-0.8,2.2c-0.7,1.9-1.1,3.4-1.3,4
	c-0.5,1.8-0.3,1.6-0.9,4.6c-0.3,1.4-0.4,1.5-0.8,3.5c-0.4,1.7-0.4,1.8-0.6,2.7c-0.6,2.1-0.8,2-1,3.2c-0.3,1.6,0.1,1.8-0.2,3.7
	c-0.2,1.3-0.4,1.2-0.7,2.7c-0.4,2.1,0,2.4-0.4,4.2c-0.3,1.3-0.5,1.2-0.9,2.9c-0.3,1.3-0.5,2.3-0.6,3.8c-0.3,3-0.1,2.8-0.4,4
	c-0.3,1.4-0.6,1.4-1.7,4.2c-0.7,1.8-1.2,3.3-1.4,4.1c-0.5,1.6-0.4,1.6-1,3.6c-0.6,2.1-0.9,3.1-1.4,4.1c-0.5,1-1,1.8-2.1,3.4
	c-0.6,0.9-1.1,1.6-1.7,2.4c-1,1.4-1.5,2.1-1.8,2.3c-0.4,0.3-0.9,0.6-0.8,0.9c0,0.1,0,0.2,1,0.8c0.6,0.4,0.7,0.4,0.8,0.6
	c0.2,0.3,0,0.5,0.1,0.8c0,0.1,0.2,0.5,0.6,0.6c0.4,0.1,0.5-0.3,1.1-0.3c0.4,0,0.8,0.2,0.9,0.2c0.1,0.1,0.5,0.3,0.6,0.6
	c0.2,0.4,0,0.5,0.1,1.1c0.1,0.4,0.1,0.6,0.3,0.8c0,0,0.2,0.2,1.5,0.3c0.3,0.2,0.7,0.5,0.8,1c0.1,0.3,0,0.4,0,0.8
	c0,0.5,0.1,1.1,0.5,1.5c0.4,0.4,0.9,0.4,1.2,0.4c0.5,0,0.7-0.1,1.2-0.1c0.8-0.1,1,0.1,1.9,0.2c1.1,0.1,1.1-0.3,2.5-0.3
	c0.9,0,0.9,0.1,1.9,0.1c0.7,0,1.4-0.1,2.9-0.2c2-0.2,2.3-0.3,3.2-0.3c0.6,0,1.2,0.1,1.9,0.3c0.9,0.3,0.9,0.7,1.9,1
	c1,0.3,1.4,0.1,1.9,0.5c0.2,0.2,0.2,0.3,0.6,1.3c0.3,0.6,0.4,0.9,0.5,0.9c0.5,0.3,1.4,0.1,3.2-0.5c1.5-0.5,2.1-0.8,2.3-0.9
	c0.5-0.3,0.9-0.5,1.3-0.8c0.5-0.3,0.8-0.5,1.1-0.8c0.6-0.5,0.6-0.8,0.8-0.8c0.5-0.1,0.8,1,1.9,1.6c0.3,0.2,0.4,0.2,2.1,0.5
	c0.4,0.1,1.4,0.3,3.3,0.7c1.3,0.3,2,0.4,2.4,0.5c2.3,0.6,2.3,0.8,3.4,0.9c0.7,0.1,0.7,0,3.5-0.3c1.7-0.2,1.8-0.1,3.4-0.3
	c1.4-0.1,2.1-0.2,3-0.4c0.6-0.1,1.8-0.4,3.3-0.8c1.5-0.5,1.3-0.5,2.6-0.9c1.7-0.5,2.2-0.4,2.9-1c0.6-0.5,0.4-0.7,1.2-1.4
	c0.4-0.4,1-0.7,2.1-1.2c1-0.5,1.5-0.8,2.1-1c0.4-0.1,0.5-0.1,2.2-0.3c2.1-0.3,2.1-0.3,2.4-0.3c1.2,0,2.1,0.5,2.7,0.7
	c0.7,0.3,0.8,0.5,1.5,0.7c0.7,0.3,0.8,0.2,1.9,0.5c1.3,0.4,1.2,0.5,2,0.6c0.8,0.1,0.9,0,1.9,0.1c0.9,0.1,0.9,0.3,1.6,0.4
	c0.7,0.1,1.1,0,2.6-0.1c1.8-0.2,1.4-0.1,3.1-0.2c1.1-0.1,2-0.2,3.1-0.4c1.4-0.2,2.4-0.5,2.6-0.5c0.8-0.2,1.3-0.3,2.1-0.6
	c1.1-0.4,1.1-0.6,2.5-1.2c0.3-0.2,0.2-0.1,3.3-1.3c0.6-0.2,1.1-0.5,1.7-0.7c0.8-0.2,1.2-0.3,1.6-0.7c0.2-0.2,0.2-0.4,0.4-0.9
	c0-0.1,0.1-0.5,0.2-1.2c0.1-0.9,0-1,0.2-1.2c0.2-0.2,0.4-0.3,1-0.5c0.3-0.1,0.6-0.2,1.3-0.3c1.2-0.2,1.1-0.2,1.3-0.2
	c0.3-0.1,1-0.3,1.7-0.9c0.6-0.5,0.4-0.7,0.9-1.1c0.4-0.3,0.7-0.3,1.7-0.6c0.1,0,1.4-0.3,2.2-0.5c1.2-0.3,2.1-0.6,2.7-0.8
	c0.7-0.2,1.1-0.4,1.9-0.7c2.5-0.9,2.9-1.2,3.1-1.4c0.4-0.4,0.6-0.7,0.9-1.3c0.2-0.5,0.6-1.1,0.7-2.1c0.1-0.5,0.1-1-0.1-1.7
	c-0.2-0.4-0.4-0.7-0.9-1.3c-0.1-0.1-0.4-0.4-1.4-1.4c-0.6-0.6-0.8-0.7-1-0.9c-0.9-0.9-1-1.9-1.4-3.4c-0.2-0.8-0.1-0.1-1.6-4.3
	c-0.6-1.5-0.7-2-1.2-3c-0.5-1.1-0.6-1.4-1.1-2.3c-0.6-1.3-0.8-2-1.6-4.2c-0.8-2.1-0.2-0.5-1.8-4.8c-1.7-4.6-1.5-4.3-2-5.5
	c-1.4-3.6-1.5-3.4-2.1-5.2c-0.7-2.1-0.6-2.6-1.4-5.1c-0.5-1.5-1-2.8-1.3-3.4c-0.3-0.8-0.9-2-1.6-3.5c-0.6-1.2-1.1-2.1-1.4-2.7
	c-1.2-2.1-1.3-2.1-1.9-3.3c-0.7-1.5-0.5-1.5-1.5-3.8c-0.5-1.1-0.4-0.9-1.8-3.9c-1.4-3-1.4-3.2-1.9-3.9c-1.1-1.7-1.4-1.5-1.9-2.8
	c-0.6-1.4-0.5-2.1-1.4-2.8c-0.5-0.4-0.8-0.5-1.5-1.1c-0.5-0.5-0.8-0.9-0.9-1.2c-0.9-1.5-1.4-2.4-1.8-3.2c-0.3-0.4-0.9-1.4-2.2-3.2
	c-0.8-1.2-1.2-1.8-1.6-2.2c-0.4-0.5-0.7-0.8-2.3-2.5c-0.1-0.1-0.2-0.2-0.3-0.3c-1.2-1.3-1.9-2-2.1-2.2c-1.7-1.6-2.4-1.3-3-2.5
	c-0.3-0.5,0-0.4-0.5-1.8c-0.5-1.6-0.7-1.7-0.9-2.7c0-0.1-0.1-0.8-0.1-2.2c-0.1-1.7-0.1-1.9-0.1-2.4c-0.2-1.2-0.3-1.2-0.3-1.9
	c0-0.9,0.3-1.6,0.7-2.4c0.3-0.6,0.5-1.2,1-1.8c0.7-1,1.2-1,2.6-2.4c1-1,1.7-1.8,1.9-2.1c0.8-1,1.2-1.8,1.3-2
	c0.1-0.3,0.4-0.8,0.6-1.5c0.4-1.2,0.4-1.9,0.6-1.9c0.3,0,0.5,1.8,0.6,2.3c0.2,1.1,0.1,1.2,0.2,1.9c0.1,0.7,0.2,0.7,0.6,2
	c0.2,0.7,0.4,1.4,0.5,2.3c0.1,0.5,0.1,0.8,0.2,1.6c0.1,1.2,0.1,1.4,0.2,2.4c0,0.4,0.1,0.5,0.2,1.7c0.2,1.8,0.2,1.9,0.3,2.4
	c0.1,0.7,0.2,0.6,0.5,1.8c0.1,0.5,0.1,0.5,0.4,1.9c0.3,1.3,0.3,1.5,0.4,2c0.1,0.4,0.2,1,0.2,1.8c0,0.6,0.1,0.9,0,1.1
	c-0.1,0.2-0.2,0.5-1.4,1.4c-0.6,0.5-1,0.8-1,0.8c-1.2,0.7-2.3,1.4-3.5,2.1"/>
<path class="st1" d="M735.6,283.3c1-0.5,2.4-1.4,3.4-2.9c0.3-0.5,1.1-1.8,1.5-3.6c0.3-1.3,0.1-1.5,0.3-4.1c0-0.7,0.1-0.8,0.5-4.9
	c0.2-1.8,0.3-2.3,0.4-3.4c0.1-1.7,0.1-2.8,0.1-3.1c0-0.5,0-1.5-0.2-2.7c-0.2-1.5-0.3-1.7-0.6-3.9c-0.3-1.7-0.2-1.6-0.6-4
	c-0.2-1.6-0.4-2.3-0.6-3.4c-0.4-1.8-0.5-1.8-0.8-3.5c-0.4-2-0.6-3.6-0.7-4.1c-0.2-1.4-0.1-1.4-0.3-2.9c-0.2-1.4-0.3-1.6-0.5-3.1
	c-0.1-1.1-0.2-1.9-0.2-2.7c-0.1-1-0.1-2.2-0.2-3.7"/>
<path class="st1" d="M735.6,283.3c-0.2,0.1-0.6,0.3-1,0.5c-0.5,0.2-0.7,0.2-1.2,0.5c-0.6,0.3-0.7,0.4-1.2,0.6
	c-0.6,0.2-1,0.3-1.3,0.4c-0.7,0.1-2,0.5-4.6,1.5"/>
<path class="st1" d="M587.2,184.8c0.3-0.4,0.5-0.7,0.8-1.1l1.2-0.1l0.6,0.8l0.2,1l0.7,1.9l1.1,2l1,1.6l0.9,1l0.6,0.7"/>
<path class="st1" d="M585.9,180.9c0.4,0.1,0.9,0.3,1.3,0.4C586.8,181.2,586.4,181.1,585.9,180.9c-0.7-0.2-1.4-0.3-1.9-0.3
	c-0.2,0.2-0.4,0.4-0.6,0.6c0,0.3-0.1,0.6-0.1,0.9c0.1,0.3,0.2,0.6,0.3,0.8c0.2,0.2,0.5,0.4,0.7,0.6c0.3,0.2,0.6,0.5,0.9,0.7
	c0.4,0.1,0.8,0.1,1.3,0.2"/>
<path class="st1" d="M634.6,227.4c-2.3,12.9-3.3,16.5-3.8,16.4c-0.1,0-0.3-0.3-0.7-0.9c-0.2-0.3-0.5-0.7-0.9-1.1
	c-0.4-0.6-0.5-0.6-2.3-2.8c-1.2-1.4-1.8-2.1-1.9-2.3c-1.2-1.6-1.2-1.9-2.5-3.7c-0.9-1.2-0.9-1.1-2-2.5c-0.5-0.7-1-1.5-2.1-3.1
	c-1-1.4-1.6-2.3-1.7-2.6c-0.6-0.9-1-1.5-1.5-2.3c-0.2-0.4-0.7-1.1-1.2-2c-0.1-0.2-0.2-0.3-0.2-0.4c-0.3-0.5-0.5-0.9-0.5-1
	c-0.5-1-2.5-2.9-2.5-2.9c-1.4-1.4-0.9-1.3-3.3-3.9c-1.6-1.7-1.7-1.7-2.6-2.8c-0.6-0.7-1-1.3-2.5-3.7c-1.8-2.8-2.7-4.2-3-4.8
	c-0.6-1.2-4.1-10.9-4.1-10.9l-2.8-4.2l-1.9-2.2c-0.8-0.6-1.6-1.1-2.4-1.7"/>
<polyline class="st1" points="654.4,382.8 653.6,388.8 650.6,399 648.7,409.6 648.8,423.8 648.4,439.8 648.4,451.1 646.1,457.2 
	646.6,461.3 645.3,465.4 642.6,473.6 640.8,475.5 639.7,476.6 636.6,484.5 634.5,490.5 633.9,492 631.5,496.6 630.7,499.1 
	631,501.6 633.4,502.2 637.6,501.6 644.4,499.9 649.6,498.1 654.7,495.4 654.1,490.7 654.5,486.5 655,485 658,485.6 659.7,486.3 
	660.8,486.7 663.5,485.4 663.6,483.1 663.2,471.7 665,468.9 664.6,466.1 663,463.6 661,460.5 659.8,457.1 664.7,437.3 669.8,421.7 
	673.3,412.2 674.5,400.5 677.8,392 680,385.3 "/>
<polyline class="st1" points="660.6,459.4 659.5,465.6 657.6,470.9 654.2,478.2 649.8,484.2 647,486.6 642.8,487.1 639.5,487.5 
	638,487.1 638.5,484.1 640.1,479.9 641.7,474.5 "/>
<polyline class="st1" points="663.2,471.7 661.6,474.6 657.8,478.6 655.6,482.4 655,485 "/>
<polyline class="st1" points="699.4,379.1 701.3,388.3 702.1,398.6 701.5,406.3 703,418.4 705,435 705.6,447 706,450.5 703.8,454.1 
	702.5,455.9 703.1,460.7 702.6,463.5 701.1,465.6 701.5,469.1 703.2,472.9 705,477.4 705.5,481 705.8,487.9 706.5,489.5 
	708.3,490.6 712.4,491.5 717.1,491.9 723.1,491.2 725,489.2 726.5,485.3 726,481.4 723.2,477.3 721,469.4 718.7,464.9 717.8,459.3 
	716.9,448.8 717.5,443.6 722,424.7 723.5,409.2 724.1,395.3 723.4,383.7 723.3,380.2 "/>
<polyline class="st1" points="718.7,464.9 719,467.9 720.5,471.5 721.2,476.9 720.3,478.4 717.8,478.7 713.4,479.3 710.3,479.7 
	706.6,477.1 704.6,472.8 703.5,469.2 703,465.4 702.6,463.5 "/>
<path class="st1" d="M583.4,200.9c0.2,0.3,0.4,0.6,0.6,0.9l1.2,2.5l1.4,2.2l4.2,3.4l2.3,2.4c1.5,2,3,4,4.5,6c1.6,2.5,3.2,5,4.8,7.5
	c1.4,2.3,2,3.5,2.3,4.2c0,0.1,0.3,0.7,0.6,1.6c0.4,1,0.5,1.4,1.1,2.9c1,2.6,1.4,3.8,1.7,4.5c1.1,2.4,1.4,2.4,2.6,5
	c1,2.1,0.8,2.3,1.6,3.8c0.8,1.4,1.5,2.3,2.4,3.6c1.5,2,1.8,2,2.8,3.6c0.8,1.3,0.8,1.4,1.7,2.7c0.8,1.1,1.1,1.4,2.2,2.8
	c1.8,2.2,1.6,2.2,3.1,4.1c0.4,0.5,1.5,1.8,3,3.4c1.3,1.3,2.4,2.5,3.4,3.3c0.5,0.3,1.3,0.6,2.4,0.7c0.4,0,1.4,0.1,2.5-0.3
	c0.6-0.2,1-0.5,1.5-0.7c0.6-0.4,1-0.7,2.4-1.9c1.1-0.9,1.6-1.4,1.8-1.6c0.8-0.9,1.2-1.7,1.5-2.4c0.3-0.6,0.5-1.1,0.7-1.6
	c1.2-2.2,2.2-4.1,2.9-5.6c1-2.1,1.6-3.2,2-4.2c1.4-3.5,1.4-3.1,2-4.6c0.5-1.3,1.1-2.7,1.7-4.6c0.4-1.2,0.7-2.4,1.3-4.6
	c0.5-1.8,0.9-3.3,1.2-4.4c0-0.4,0,3.9,0.1,5.7c0,0.3,0,0.6,0,1c0.1,1,0.2,1.6,0.3,3.5c0,0.5,0,0.6-0.1,5.2c-0.1,2.7-0.1,3-0.1,3.7
	c-0.2,1.5-0.4,1.9-0.5,3.5c-0.1,0.9-0.1,1.3-0.1,3.1c0,1.5-0.1,3.3-0.2,4.6c-0.1,1.2-0.2,2.9-0.6,5"/>
<path class="st1" d="M586,186.6c-0.2,0-0.4,0-0.6-0.1c-0.4,0-0.8,0-1.2,0.1c-0.4,0.2-0.7,0.3-1.1,0.5l-0.6,1l-0.1,1.1l0.5,0.9
	l-1.2,1l-0.3,1l-0.1,1l0.5,0.8l-0.7,0.4l-0.7,1.4l0,1.6l0.8,0.8c0.1,0.1,0.2,0.3,0.4,0.4"/>
<line class="st1" x1="587.2" y1="185.1" x2="587.2" y2="184.8"/>
<polyline class="st1" points="590,200.3 589.1,198.2 588.9,196.7 589.1,195 589.2,193.8 587.9,191 587.1,188.9 586.9,186.2 
	587.2,185.1 "/>
<polyline class="st1" points="584.7,186.5 585.1,187.7 585.6,188.6 586,189.8 585.2,191 584.3,191.2 583.4,191.1 582.9,190.2 "/>
<polyline class="st1" points="581.8,194 582.6,195 583.6,195.6 584.6,195.9 585.1,195.6 586,194.6 585.9,193.7 585.1,192.9 
	584.5,192.2 583.8,191.6 583.4,191.1 "/>
<polyline class="st1" points="580.5,197.4 581.9,197.6 582.9,197.6 "/>
<path class="st1" d="M582.9,197.6l0.7-0.3l0.6-0.5l-0.1-0.5c-0.2-0.2-0.4-0.5-0.6-0.7"/>
<path class="st1" d="M581.7,198.6c0.2,0.2,0.4,0.3,0.5,0.5"/>
<path class="st1" d="M584.8,195.7c-0.2,0.7-0.3,1.4-0.5,2c0,0.6,0.1,1.1,0.1,1.7l0.5,0.5l1.3,0.6l1.8,0.7l0.8,0.3l0.3,0.5l-1.7-0.2
	l-1.5-0.3l-3.2-0.9l-3-0.7l-2.7-0.8l0-0.2l0.2-0.2l1.1-0.1c0.8,0.2,1.6,0.3,2.4,0.5c0.4,0,0.9,0,1.3,0c0.2-0.1,0.3-0.1,0.5-0.2
	c0.3-0.4,0.6-0.9,0.9-1.3c0-0.1,0.1-0.2,0.1-0.3"/>
<path class="st1" d="M587,187.2c-0.5,2-1,4-1.5,6"/>
<path class="st1" d="M585.5,188.5c0.8-3.4,1.7-6.9,2.5-10.3c-0.5-0.6-0.9-1.1-1.4-1.7c-0.4-0.4-0.8-0.8-1.2-1.3
	c-0.3-0.7-0.6-1.3-0.9-2c2.3-8.7,4.7-17.5,7-26.2c1.1,0.8,2.2,1.5,3.3,2.3c1.3,0.3,2.7,0.7,4,1c1.2,0,2.5-0.1,3.7-0.1
	c-1.3,4.5-2.5,9.1-3.8,13.6c-1.1,4.1-2.2,8.1-3.4,12.2c-0.7,0.5-1.5,0.9-2.2,1.4c-0.6,0.1-1.2,0.2-1.9,0.4c-0.8,0.2-1.5,0.4-2.2,0.6
	c-0.5,1.9-0.9,3.8-1.4,5.7"/>
<path class="st1" d="M584.5,192.2c0.1-0.4,0.2-0.7,0.3-1.1"/>
<polyline class="st1" points="602.5,150.2 599.5,147.8 595.5,146.7 591.5,147 "/>
<path class="st1" d="M586.9,164.3c1.3-0.6,2.5-1.3,3.8-1.9c1.6,0,3.3,0,4.9,0c1,0.6,2,1.3,3,1.9c-1.2,0.7-2.4,1.3-3.5,2
	c-1.8,0-3.6,0-5.4,0.1C588.8,165.6,587.8,164.9,586.9,164.3z"/>
<path class="st0" d="M379.1,175c-3.2,2.5-5.8,4.4-7.7,5.6c-3.1,2.1-4.7,2.8-8,5.2c-2.1,1.5-4.3,3.1-6.4,4.6c-2.9,1.5-6,3-9.1,4.4
	c-0.9,0.4-1.9,0.8-2.8,1.3"/>
<path class="st1" d="M330.4,257c-0.3,4.8-0.5,9.6-0.8,14.4v13.1l-6.7,80.9l-2.3,18.5l9,4.7l7.5,0.9l7.4-1.6h7.3l7.7,3.3l14.7-3.3
	l5-6.8l3.7-8.5l4.8-6.2l5.1-62.1v-11.9l0.4-15.4l1.9-13.5l-1.5-18.5l1.5-10.2c-2-10-4.1-20-6.1-29.9c-1.1-4.3-2.2-8.7-3.3-13
	c-1.2-2.2-2.4-4.4-3.6-6.6c-1-3.5-1.9-7-2.9-10.5c1.5-1,3.1-2.1,4.6-3.1c1.4-1.9,2.7-3.8,4.1-5.6c1.1-1.6,2.2-3.2,3.2-4.7
	c0.7-2.1,1.5-4.2,2.2-6.3c0.7-2,1.4-4,2.1-6.1c0.3,1.3,0.7,2.5,1,3.8c-0.1,1.5-0.1,3-0.2,4.5c-0.7,1.7-1.4,3.4-2.1,5.1
	c-0.8,1.9-1.6,3.9-2.4,5.8c-1.3,1.6-2.7,3.1-4,4.7c-1.2,0.8-2.5,1.7-3.7,2.5c-0.6,1.1-1.3,2.2-1.9,3.3c0,2.2,0,4.4,0,6.6
	c1.2,2.2,2.4,4.4,3.6,6.6c0.6,2.3,1.1,4.5,1.7,6.8c2.6,12.1,5.2,24.1,7.7,36.2c1.2-2.5,2.4-5.1,3.6-7.6c0.6-2.5,1.3-4.9,1.9-7.4
	c-0.3-3.7-0.5-7.4-0.8-11.1c-0.7-1.9-1.5-4.7-1.7-8.2c-0.3-4.5,0.4-7.9,0.6-8.7c0.7-2.9,1.4-3.8,3.5-8.5c1.3-2.9,3.2-7.2,4.5-11.5
	c0.8-2.8,1.8-6.9,1.9-12.2c-0.7-3.6-1.4-7.2-2.1-10.9c-1.1-1.6-2.2-3.2-3.3-4.9c-1.2-0.9-2.4-1.9-3.6-2.8c0.1-0.7,0.2-1.4,0.3-2.1
	c-0.6-0.4-1.3-0.9-1.9-1.3c-0.9,0.1-1.9,0.2-2.8,0.3c-1.3-0.2-2.5-0.4-3.8-0.6c-1.7-2.5-3.5-5.1-5.2-7.6c-3.5-2.4-7-4.8-10.5-7.3
	l-7.9-2.3l-10.2,3.1l-8.9,6.6l-6.6,6.2l-0.4,1.2c-1.2,3.9-2.4,7.8-3.6,11.6c-0.2,3.4-0.4,6.9-0.7,10.3c1.9,6.9,2.6,10.4,3,12.4
	c0.1,0.6,0.4,2.3,1.1,4.6c0.4,1.1,0.8,2.2,1.2,3.1c0.1,0.7,0.3,1.9,1.2,2.6c0.4,0.3,0.9,0.6,3.4,0.8c1.3,0.1,2.3,0.2,3.1,0.2
	c-1,0.7-2.1,1.5-3.3,2.2c-2.5,1.5-4.9,2.5-6.9,3.1c0.7,0.4,1.7,1.2,2.7,2.4c1.3,1.7,1.7,3.4,1.9,4.3c0,0.3,0,0.7,0.1,1
	c0,0-0.1,0-0.1,0l-3,1.1l0.3,2.6c-0.1,1.7-0.2,3.5-0.3,5.2c-0.8,2.6-1.9,5.6-3.5,8.9c-1.1,2.1-2.2,3.9-3.3,5.5
	c-0.7,3.4-1.5,6.9-2.2,10.3c-0.4,3.4-0.7,6.8-1.1,10.1"/>
<path class="st0" d="M342,197.3c1,0.7,2,1.6,3,2.6l0,0"/>
<path class="st0" d="M345.2,200c-0.1,0-0.1-0.1-0.2-0.1"/>
<path class="st0" d="M382,185.5l-6.2,8.1l-4.6,5l-8.1,5.8l-7.3,4.6l-3.5,1.9c-1.1-2.7-3-6.5-6.3-10c-0.3-0.3-0.6-0.6-0.8-0.8"/>
<path class="st1" d="M358.5,229.4l-3.5,10c0,0-1.5,6.2-1.5,7.3c0,1.2,0,6.9,0,6.9v4.2c-0.4-0.3-0.9-0.6-1.3-0.8
	c-0.2,2.4-0.4,4.8-0.6,7.2c0.6,0.3,1.2,0.6,1.8,1c1.7,1.4,3.3,2.8,5,4.2l7.7,2.7l6.2,1.5c0.5,0.2,1.1,0.3,1.6,0.5
	c1-1.6,1.9-3.3,2.9-4.9c-0.4-0.3-0.9-0.6-1.3-0.9c0.7-1.2,1.4-2.3,2.1-3.5v-4.6l4.2-8.7l2.7-5.2c0.9-1.5,1.8-3.1,2.8-4.6"/>
<path class="st0" d="M353.5,257.9c2.6,1.8,5.3,3.6,7.9,5.4l9.1,3.5l5.2,1.6"/>
<path class="st0" d="M370.5,273.3c-0.7,1-1.9,2.4-3.6,3.8c-1.7,1.4-3.1,2.6-5.2,3.2c-2.9,0.7-5.5-0.2-6.8-0.8
	c-5.2-3.9-9.4-7.5-12.6-10.4c-5.4-4.9-9.3-9.1-12.6-12.6c-3.8-4.1-6.9-7.7-9.1-10.4c-1.4-1.6-2.9-3.1-4.3-4.7
	c-1.3-0.2-2.6-0.4-3.8-0.6l-3.3-1.5l-5-4l-2.3-5.6v-6.2l1.9-3.5c0,0,1.9-1.5,3.1,0c1.2,1.5,8,3.9,8,3.9l5.1,5.8l11.9,10.4
	c3.7,3.3,7.4,6.7,11.1,10.2c3.1,2.8,6.1,5.7,9.1,8.5"/>
<path class="st0" d="M368.4,389.3c-0.1,2.3-0.2,4.6-0.3,6.9c-0.1,2.8-0.2,5.6-0.3,8.4c1.1,2,2.5,4.7,4.1,7.9
	c1.2,2.5,3.3,6.1,4.6,10.8c1.4,5,2.7,10.1,4.1,15.1l1.5,5l3.9,2.3c2.1,1,3.4,0.7,5.6,1.6c0.8,1.3,1.6,2.6,2.4,3.8
	c0.4,1.1,0.8,2.3,1.2,3.4c-0.4,2.6-0.8,5.3-1.1,7.9l2.1,2.7c1.8,2.1,2.5,3.1,4.3,5.2c0.9,1,1.8,2,2.7,3c-0.6,0.6-1.2,1.3-1.7,1.9
	c-0.7-1.2-1.5-2.4-2.2-3.6c-1.2-1.4-2.5-2.8-3.7-4.3c-1.8-2.1-2.4-3-3.9-5l-0.9,4.3v2.5v3.4v3c0,0-0.2,1.6-0.2,2.3
	c0,0.7-0.9,2.5-0.9,2.5l-1.6,3.2l-2.5,2.3l-5.7,3.2c0,0-3.9,2.3-4.6,2.5c-0.7,0.2-8.2,3.3-8.2,3.3c-0.6-0.2-1.2-0.5-1.8-0.7
	c0,0,0.4-1,0.4-1c0-0.1,0.8-2,0.9-2.1c0.5-0.5,0.9-1.1,1.4-1.6l1.6-2.1l2.5-3l1.6-3.2l1.1-2.5l-0.2-5.7l-1.6-8l-1.1-6.6l-1.1-7.1
	l-3-7.3l-2.7-7.5l-9.8-15.7l-10.3-16.9l-6.4-9.1c-1.6-2-3.2-3.9-4.8-5.9"/>
<path class="st0" d="M367.8,404.6c-2.8-4.5-5.5-8.9-8.3-13.4"/>
<path class="st0" d="M364.9,436.7l-1.5,13v5.7v4.1v1.3l1.5,3.2l1.6,2.7c0.2,0.9,0.4,1.9,0.6,2.8c-0.3,1.4-0.7,2.7-1,4.1
	c-1,1.2-2.1,2.4-3.1,3.5l-1.9,2.7l-0.7,2.9l-0.6,3.8l-0.4,4.2h-2.3l0.9-4.1l0.5-3.2l-0.2-2.7l-0.2-2.3l-0.6-0.9l-1.5,0.7l-2.3,2.3
	l-2.6,3.3l-2.1,3.4l-0.9,1.9l-1.8,1l-4.2,1.5h-5.9l-10.5-1.3l-3-0.9l-0.9-0.7l0.6-1.2l1.6-0.7l3.2-1l8.6-2.9l2.4-0.9l3-5.8l2.9-6.8
	l2.6-3.9l1.1-6l0.8-12.1c0.6-5.2,1.2-10.3,1.8-15.5c0.7-6.4,0.6-12.5,0.5-18"/>
<polyline class="st0" points="384.8,445 385.9,448.3 386.6,452.1 385.7,461.7 384.4,471.9 383.4,480 378.4,481.1 375.2,481.1 
	373.9,480.7 "/>
<polyline class="st0" points="337.5,482.3 340.2,483.8 341.8,484.6 343.1,484.6 352.9,473.5 358.7,466.6 361.4,463.4 363.4,460.8 
	"/>
<path class="st0" d="M342,137.3c1.8-0.5,3.5-1.1,5.3-1.6l3-0.8v2.8l7,3.1l-0.3,4.2l0.3,4.4l6,2.1l3,0.6l-1.1,5.9
	c1.4,0.8,2.7,1.7,4.1,2.5c1.4-2,2.8-4.1,4.1-6.1l2.2-0.4l1.3,0.3l1.5,0.6l0.6,1.3l0.3,2.2c0,1.1,0,2.2,0,3.2c0.3,3-0.4,4.8-1.1,5.8
	c-0.6,0.9-1.7,1.8-1.8,3.4c-0.1,0.8,0,1.4,0,1.8c0.2,1.6,0.8,2.8,1.3,3.5"/>
<path class="st0" d="M357,190.5l0.2-2.3l-0.2-1.4l-0.5-1.7l-0.5-2.7l-1,0.5l-1.2,0.1c-1.6-0.1-3.2-0.1-4.7-0.2"/>
<path class="st1" d="M310.9,222.1c0.7-1.7,1.5-3.3,2.2-5c-0.5-0.2-1.3-0.7-1.9-1.5c-0.2-0.3-0.6-0.8-0.9-1.6
	c-0.1-0.3-0.2-0.6-0.1-1.1c0-0.2,0.1-0.9,0.7-1.4c0.1-0.1,0.4-0.2,0.8-0.4c0.7-0.3,0.8-0.3,0.9-0.5c0.2-0.3-0.2-0.5-0.2-1
	c0-0.6,0.5-0.7,1.1-1.9c0.2-0.3,0.2-0.5,0.4-0.6c0.5-0.3,1.1,0,1.2-0.1c0-0.1-0.5-0.2-0.5-0.6c-0.1-0.3,0.1-0.6,0.3-0.8
	c0.3-0.4,0.7-0.6,0.9-0.7c0.1-0.1,0.6-0.2,1.1-0.2c0.5,0,0.7,0.2,0.8,0.1c0.1-0.1,0.1-0.2-0.2-0.6c0,0-0.2-0.5-0.2-0.8
	c-0.1-0.5,0.1-1,0.1-1.2c0.1-0.2,0.3-0.8,0.9-1.2c0.3-0.2,0.6-0.3,0.7-0.4c0.5-0.2,0.8-0.3,0.8-0.4c0-0.1-0.3-0.1-0.6-0.3
	c-0.2-0.1-0.5-0.3-0.7-0.7c-0.1-0.2-0.2-0.3-0.2-0.5c0-0.5,0.5-0.6,1.2-1.6c0.3-0.4,0.3-0.5,0.5-0.6c0.5-0.2,1.1,0,1.1,0
	c0,0-0.6,0-0.7-0.4c0,0,0,0,0,0c-0.1-0.5,1.8-1.8,1.8-1.8c0.3-0.3,1.6-1.6,3.1-1.3c0.2,0,0.4,0.1,0.7,0.2c0.1-0.2,0.3-0.4,0.4-0.6
	c0.4-0.9,0.8-1.8,1.2-2.7c0.1-0.1,0.3-0.4,0.4-0.5c0,0,0,0,0,0c0.2,0,0.3,0.1,0.5,0.1c-0.1,0.2-0.2,0.4-0.2,0.7
	c-0.4,0.9-0.8,1.8-1.2,2.7c0,0.2-0.1,0.3-0.1,0.5c0.1,0,0.3-0.1,0.6-0.1c0.1,0,0.3,0,0.7,0.2c0.3,0.2,0.5,0.3,0.7,0.5
	c0.2,0.2,0.5,0.5,0.8,0.9c0.2,0.4,0.3,0.7,0.4,1c0.1,0.2,0.1,0.6,0.1,1c0,0.5,0,0.9-0.3,1.2c-0.1,0.1-0.2,0.1-0.3,0.2
	c-0.3,0.1-0.9,0.3-1.7,0.4l-0.2-0.7c-0.2,0.2-0.5,0.4-0.8,0.7c-0.2,0.2-0.4,0.5-0.7,0.9c-0.7,1.2-0.8,2.1-1.1,2
	c-0.2,0-0.3-0.4-0.3-0.4c0,0,0.1,0.4,0.2,0.8c0.1,0.4,0.2,0.6,0.2,0.9c0,0.2-0.1,0.4-0.2,0.9c-0.1,0.3-0.1,0.5-0.2,0.7
	c-0.1,0.3-0.2,0.5-0.4,0.7c-0.3,0.3-0.5,0.4-0.7,0.5c-0.3,0.1-0.4,0.2-0.6,0.2c-0.5-0.1-0.7-0.9-0.9-0.9c0,0-0.1,0.1-0.2,0.4
	c-0.1,0.3-0.1,0.3-0.2,0.4c-0.1,0.2-0.2,0.2-0.2,0.3c0,0.1,0.1,0.2,0.2,0.3c0.1,0.1,0.2,0.3,0.3,0.6c0,0.1,0.2,0.4,0.3,0.9
	c0.1,0.5,0.2,0.8,0.2,1.1c0,0.3-0.1,0.4-0.3,0.8c-0.1,0.3-0.3,0.5-0.5,0.9c-0.5,0.8-0.5,0.8-0.6,0.8c-0.1,0-0.1-0.2-0.1-0.5
	c-0.1-1-0.2-1.2-0.2-1.2c0,0-0.1,0-0.5,0.4c-0.3,0.4-0.4,0.5-0.7,0.8c-0.2,0.2-0.2,0.1-0.5,0.5c-0.6,0.6-0.6,0.7-0.6,0.8
	c0,0.1,0.2,0,0.4,0.1c0,0,0.1,0.1,0.2,0.3c0.1,0.1,0.1,0.3,0.2,0.5c0.1,0.3,0.1,0.5,0.2,0.6c0,0.1,0,0.2,0,0.5c0,0.3,0,0.5-0.1,0.6
	c-0.1,0.3-0.2,0.4-0.4,0.6c-0.2,0.2-0.3,0.4-0.4,0.4c-0.1,0.1-0.3,0.3-0.6,0.4c-0.1,0.1-0.3,0.1-0.5,0.2c-0.3,0.1-0.5,0.1-0.8,0.2
	c-0.2,0-0.5,0.1-1,0.1c-0.9,0.1-1.2,0.1-1.3,0.1c-0.3,0-0.5,0-0.7,0c-0.8,1.7-1.6,3.4-2.4,5.1"/>
<polyline class="st0" points="175.3,115 172.1,115.2 174.5,113.6 178.6,111.1 182.6,109.3 185.8,108.7 189,108.4 193.5,108.5 
	195.1,108.6 196.9,109.3 196.8,110.2 "/>
<path class="st0" d="M172.1,115.2l-2.7,0.6l-3.9,1.2l-5.7,3.2l-5.5,3.1l-5.5,4.3l-0.4,0.5l-2.7,3.3l-1.2,3.6l-0.1,0.8l3.8,2.5
	l5.6-6.6l4.9-4.8l7-5.4l8.6-6l8-3.3l8.8-1.7l5.6-0.2l-0.2,2l-1.1,1.1l-1.5,0.7c-2.2,1.4-4.4,2.9-6.6,4.3"/>
<path class="st0" d="M148,128.7c-0.8-1.7-1.6-3.3-2.4-5l-2.5-5.5l-0.2-3l2-6.2l3-4.1l4.5-4.3l5.8-3.4l5.3-2.1l3.8-1.3l2.9-0.6
	l0.9,0.1l1.4,0.8l1.3,1.4l2.6,2.5l2.8,3.2c2.6,2.5,5.1,5,7.7,7.5"/>
<path class="st0" d="M157.8,162.1c-2.3-0.7-4.6-1.4-7-2.2c-6.1,3.6-12.1,7.2-18.2,10.8c-1,2.1-2,4.3-2.9,6.4
	c-0.3,3.5-0.7,7.1-1,10.6c-1,4.6-2,9.2-3,13.8c1,7.5,2,14.9,3,22.4c-1,3.5-2,7-3,10.6c-0.9,1.9-2,4.9-2.3,8.7
	c-0.4,4.2,0.4,7.5,1,9.6c0.7,2.4,1.4,4.8,2.2,7.2c2.5,2.3,5,4.6,7.5,6.9l-2.6,11.8l-1.7,14.3l-1.7,17l-3.1,18.6l-2.2,16.3l-1,13.3
	l-1.7,12.2c-0.5,1.7-0.9,4.2-0.8,7.2c0.1,2,0.5,3.8,0.8,5.1c1.2,0.4,2.9,1,5,1.5c4.1,0.9,6.9,0.8,10.3,0.8c6.8,0.2,6.7,0.9,12.9,1.1
	c3.2,0.1,7.7,0.1,13.2-0.6c0.5-0.6,0.9-1.3,1.2-1.9c5-8.7,3-18.9,1.3-24.6c0.4-3.9,0.8-7.7,1.2-11.6V324v-17.7l0.4-15.8l1.5-18.4
	l0.6-15.1V241v-17.3l-2.9-14.9C162.4,193.2,160.1,177.6,157.8,162.1z"/>
<path class="st0" d="M191.3,161.3c0,3.3,0,6.6,0,9.9l-1.9,9.3l-2.9,11.5l-3.7,12l-1.2,9.9l1.1,10.1l3.1,8.1l2,7.6v13.8l-0.9,13.1
	l-1.3,15.3l-2.4,17.6l-2,11l-0.8,9.5l-1.4,12.7l-1.8,10.8l-2.8,10.9l-1.7,10.2l-0.7,11.8c0.6,1.4,1.2,2.7,1.8,4.1
	c1.6,0.6,3.3,1.2,5.3,1.6c6,1.4,11.4,1.2,15.3,0.6c4.9-0.5,9.8-1,14.6-1.5c2.8-0.1,6.2-0.4,9.9-1.4c1.2-0.3,2.3-0.7,3.4-1.1
	c0.5-0.7,1-1.5,1.4-2.5c1.2-3.2,0.6-6.1,0.2-7.4c-0.6-3.6-1.1-7.2-1.7-10.8l-1.1-18.2l-1.5-18c0,0-0.1-19.8-0.1-20
	s1.2-20.5,1.2-20.5l3-16.8l2-6.8c0.5-2.9,1-5.8,1.5-8.7c-0.3-2.6-0.6-5.2-1-7.8c-0.9-1.7-1.8-3.4-2.8-5c-1-2.1-2-4.2-3-6.2
	c-0.5-4.5-1-9-1.5-13.4l-2.8-14.6l-3-13l-3.3-13.4l-2.1-5.3l-5.1-3.5l-6.3-4.7c-0.1-0.2-0.4-0.5-0.6-0.8c-0.3-0.3-0.5-0.5-0.6-0.7
	c-1.5-1.4-1.6-1.6-1.8-1.6c-0.6-0.1-1.2,0.3-1.2,0.3C191.4,159.9,191.3,160.9,191.3,161.3z"/>
<polyline class="st0" points="167.6,251.3 179.3,251.3 187.7,251.3 "/>
<polyline class="st0" points="165.1,329.7 170.7,318.7 174.1,305.5 176.2,324 178.3,336.4 "/>
<path class="st0" d="M164.3,379.5c0.9,0.2,1.8,0.3,2.9,0.4c1,0.1,1.9,0.1,2.7,0.1c0,0,0.7-0.1,0.7-0.1c0,0,2.5-0.4,2.6-0.4"/>
<path class="st0" d="M178.1,382c-1.6,2.6-3.3,5.3-4.9,7.9l-1.4,16.6l-1.9,16.6l-2.1,14.2l8.6,3.4h8.4h3.1l1.2-9.6l2.4-19.3l4.3-13.6
	c0-5.1,0-10.3,0-15.4"/>
<path class="st0" d="M124.2,384c-0.7,5.2-1.4,10.4-2.2,15.5l-1.4,19.7l-2.6,13l-1.2,7.4l1.7,4.3l10.1,2.4h8.4h3.4v-11l3-19l3.1-11.5
	l-1-9.1l1-5.3c0.7-1.5,1.4-2.9,2.1-4.4"/>
<path class="st0" d="M191.3,161.3l-2.4,1l-1.8,1.8c-0.6,1.3-1.2,2.5-1.8,3.8c-1,1-2.1,2-3.1,3.1l-2.8,0.6c-1.1,0.2-2.3,0.3-3.4,0.5
	c-1.5-0.3-3-0.5-4.4-0.8c-1.2-0.4-2.4-0.9-3.5-1.3"/>
<path class="st0" d="M147.2,137.6c0,1.3-0.1,2.5-0.1,3.8l-0.3,1c-0.3,0.2-0.5,0.4-0.8,0.6c-0.2,0.5-0.3,1-0.5,1.5
	c-0.3,0.7-0.5,1.3-0.8,1.9c0,0-0.4,1.6-0.4,1.9c0,0.3,0,3.4,0,3.4l0.4,1.4c0,0,0.6,1,0.6,1.3c0.1,0.3,0.7,1.7,0.9,1.9
	c0.2,0.2,1.3,1.7,1.3,1.7s0.6,0.6,0.9,0.8c0.2,0.2,0.6,0.4,0.6,0.4c0.6,0.3,1.2,0.5,1.9,0.8"/>
<path class="st0" d="M188.5,121.4L188.5,121.4c0,0-0.2-0.6-0.2-0.6c0,0-0.6-1.4-0.6-1.4c-0.2-0.7-0.3-1.5-0.5-2.2v-1.8l0-0.6
	l-0.1-2.1c-0.2-0.5-0.4-1-0.7-1.4"/>
<path class="st0" d="M188.6,121.6"/>
<path class="st0" d="M189.9,129.7c0-0.1,0-0.3,0-0.4l-0.4-1.8l-0.3-2.6l-0.3-1c-0.1-0.4-0.1-0.9-0.2-1.3"/>
<path class="st0" d="M186.7,165l-2.3-2l-1.3-2l-0.4-2.6v-2.6l-0.3-2.2v-2.1l1.4-0.3h1.2l2.1-0.8l0.7-0.8l1-1.4v-2.7l0.8-2.7l0.4-2.6
	l0.3-2.1v-3.2V133v-0.7c-0.1-0.5-0.1-0.9-0.2-1.4"/>
<path class="st0" d="M165,127.4l6.9-1.7l0.3,4.3l0.8,1.4l1.1,0.9l1,0.6h1.9h2l1.4-0.4l1-0.7l0.6-0.8l0.6-1.7v-1.2v-1.2l2.2-0.6
	l0.4,1.1l0.7,1.3l1,1c0,0,0.5,0.7,0.7,0.7c0.2,0,2.2,0.4,2.2,0.4l2,0.2l1.1-0.4l1-1l0.5-0.8c0.2-0.6,0.4-1.3,0.5-2.1
	c0.2-1.1,0.2-2,0.2-2.8c0-0.8,0-1.3-0.2-1.8c-0.1-0.6-0.4-1-0.5-1.3c-0.9-0.2-1.9-0.4-2.8-0.5c-0.9,0.2-1.8,0.4-2.8,0.6
	c0,0-0.7,0.3-0.8,0.3c0,0-0.8,0.3-0.8,0.3c-0.5,0.3-0.9,0.6-1.4,0.9l-0.7,0.9l-3.2,0.7l-1.4-0.9l-0.8-0.3l-1.4-0.2h-2.1l-3.2,0.4
	l-2.3,0.3l-1.4,0.6c-1.6,0.4-3.2,0.9-4.7,1.3"/>
<path class="st0" d="M120.9,444.5v3.5l-0.8,4.4v2.4l-0.7,3.1l-0.7,2.8l-1,1.5l-0.9,1.4c-0.9,0.6-1.9,1.2-2.8,1.8
	c-0.8,0.6-1.7,1.2-2.5,1.8c-0.8,0.7-1.6,1.4-2.4,2.2c-0.7,0.8-1.5,1.5-2.2,2.3c-0.7,0.5-1.5,1-2.2,1.5l-2.6,1.3c0,0-3,1.2-3.4,1.3
	c-0.4,0.1-2.9,1.6-2.9,1.6s-1,1.6-1,2.2c0,0.6,0,2.5,0,2.5l-0.8,2.9v1.2l0.6,1.1l1.7,0.7l4.4,0.6h3.7h3.6l5-0.6l5-1.6l7.4-3.2
	l6.5-4.2l0.9-2.6v-3.5l-0.9-0.8l0.1-3c0-2.2-0.1-4.5-0.1-6.7c0.3-2.5,0.5-5,0.8-7.4c0-1.1,0.2-2.4,0.6-3.9c0.3-1.1,0.6-2,1-2.7
	c0-0.6,0-1.3,0-1.9"/>
<polyline class="st0" points="117.2,462.9 118.5,463.3 121.4,465.3 123.1,468.1 125.5,473.2 126.3,476.3 131.9,472 "/>
<polyline class="st0" points="94.6,482.7 99.8,483.9 105.9,483.9 111.1,483.9 120.4,480.3 126.3,476.3 "/>
<path class="st0" d="M168.9,437.7v5l-0.7,4.4l-1,3c-0.4,0.9-0.7,1.8-1.1,2.7c-0.4,1.2-0.9,2.4-1.3,3.6v4.2v1.2v0.9v1.1l-0.2,0.8
	l-0.6,2.5v3v6.1l1.3,3l1.9,4.6l2.2,1l5.5,1.3l5.3-0.5l3.6-0.4l2.4-1.4l0.4-3.8l-1.1-2.3l-2.4-5l-1.5-2.9l-0.9-2.7l-0.5-2.7l-1.1-4.1
	l-0.6-1.1l-0.2-3.6l-0.2-5.4l0.9-2.6l2.6-6.9"/>
<polyline class="st0" points="178.5,459.4 174.9,457.8 170.1,458.1 168.3,459.2 166.5,462 164.8,464 "/>
<polyline class="st0" points="164.5,465.2 164.8,470.2 166.1,474.3 167.3,476.3 169.1,478.3 172.5,479.8 177.9,480.1 181.6,479.7 
	184.1,478.6 184.9,476.5 "/>
<path class="st0" d="M165.4,121.7c0,0.6,0,1.3,0,1.9c0,0-0.4,1.8-0.4,2.1c0,0.2,0,1.7,0,1.7l-0.6,1.6c0,0-0.7,0.6-0.8,1
	c-0.1,0.3-0.9,1.5-0.9,1.5v0.8l-1,1.3l-0.6,2.3c0,0,0.5,1.2,0.6,1.4c0.1,0.2,0.5,1.4,0.6,1.6c0.2,0.2,0.5,0.6,0.7,0.8
	c0.2,0.2,0.1,0.2,0.9,0.8c0.9,0.6,1.5,1.2,1.5,1.2l1.3,2.1l-0.2,0.8c0,0,0.2,0.6,0.2,1c-0.1,0.3-0.2,0.2-0.2,1.1
	c0,0.9,0.2,0.6,0.1,1.6c-0.1,1-0.1,1-0.1,1.3c0,0.2,0.5,0.3,0.6,1.1c0.2,0.8,0,0.9,0.3,1.6c0.4,0.7,0.7,0.9,0.8,1.4
	c0.1,0.6,0.1,0.2,0.1,1.1c0,0.9,0.2,0.1,0,0.9v5.1l-0.6,2l-0.3,2.8c0,0-0.2,2.2,0,2.3c0.6,0.7,0.3,1.4,0.4,2.1
	c0.1,0.8,0.2,1.9,0,3.4c-0.4-0.1-0.8-0.2-1.2-0.4l-0.4-2.6c0-1.1-0.1-2.3-0.1-3.4c-0.3-0.1-0.6-0.2-0.9-0.2c0,0-1.4,2.6-1.5,2.6
	c0,0-1.6,2.3-1.6,2.3l0.1,1.7l0.2,1.9v3.4l0.6,2.7v1.6c-0.3,0.5-0.6,1.1-0.8,1.6c-0.2-0.1-0.4-0.3-0.6-0.4c0,0,0.1-2.2,0-2.4
	c-0.1-0.2-0.3-1.3-0.3-1.4s-0.9-2.9-0.9-2.9c-0.3-0.9-0.6-1.7-0.9-2.6"/>
<path class="st0" d="M187.5,118.2c-1.2-1-2.3-2-3.5-3c-1.4-0.7-2.9-1.3-4.3-2"/>
<path class="st0" d="M190.2,139.9l0.4,2.3l1.5,2.1l1.4,1.4c0,0,0.8,1.5,1,1.7s1.3,1.6,1.4,1.9c0.2,0.4,0.8,1.7,0.8,1.7
	s0.3,3.7,0.4,3.7c0.1,0,0.4,2.8,0.4,3.1s0,2.8,0,2.8l-0.2,2.2"/>
<path class="st0" d="M182.4,151.5"/>
<path class="st0" d="M173.4,125c-0.1,0.2-0.1,0.5-0.2,0.7c-0.3,1.5-0.2,2.9,0.1,3.9l0.9,1.3l1.3,0.7l3.5-0.1l1.2-0.3
	c0.4-0.5,0.8-1,1.3-1.5c0-1.1,0.1-2.3,0.1-3.4c-0.1-0.4-0.3-0.9-0.4-1.3l-1.2-0.5c-1.8-0.3-3.9-0.3-6,0.4
	C173.7,124.9,173.6,124.9,173.4,125z"/>
<path class="st0" d="M186,124.7c0.1,0.5,0.1,1,0.2,1.5l0.7,1.4l1.1,1.2l1,0.7l2,0.4c0.4-0.1,0.9-0.2,1.3-0.2
	c0.3-0.2,0.6-0.4,0.9-0.7c0.2-0.5,0.3-1,0.5-1.5c0.1-0.8,0.2-1.7,0.2-2.5v-1.6c-0.1-0.4-0.2-0.8-0.3-1.2c-0.6-0.2-1.2-0.4-1.7-0.6
	c-0.8,0.2-1.7,0.4-2.5,0.5c-0.8,0.4-1.6,0.7-2.4,1.1C186.8,123.8,186.4,124.3,186,124.7z"/>
<path class="st0" d="M133.9,266.8"/>
<path class="st1" d="M233.3,425.1c2.3,0.6,4.6,1.3,6.8,1.9c3.6,0,7.2,0,10.9-0.1c-0.3,0.5-0.7,1.2-1,2.1c-0.2,0.7-0.4,1.3-0.4,1.8
	c0,0.3,0,0.8,0.2,1.5c0.2,0.6,0.6,1,0.8,1.2c0.7,0.2,1.4,0.4,2.1,0.6c0.8,0,1.9-0.1,3.1-0.6c0.4-0.1,0.7-0.3,1-0.5
	c0.2-0.1,0.6-0.2,1-0.7c0.5-0.6,0.4-1.3,0.4-1.4c-0.1-0.4-0.2-0.8-0.3-1.3c-0.4-1-0.9-1.6-1.3-2c0.2,0,0.4,0,0.6,0.1
	c1.2,0.1,2.3,0.4,3.3,0.7c1.6,0.4,3.2,0.8,4.8,1.2c1.2-1.1,2.4-2.2,3.7-3.2c1.3-0.6,2.6-1.3,3.9-1.9"/>
<path class="st1" d="M222,423.1c1.8,0.4,3.6,0.8,5.4,1.3"/>
<path class="st0" d="M228.5,420.5c-0.2,1.6-0.7,3.4-1.8,5.2c-0.1,0.2-0.3,0.4-0.4,0.6c-0.2,0.2-0.5,0.6-0.8,1.1
	c-0.4,0.9-0.3,1.8-0.2,2.1c0.2,1.1,0.7,1.8,1,2.2c0.3,0.2,0.7,0.4,1.2,0.6c1,0.3,1.8,0.4,2.4,0.4c0.4,0.1,1,0.1,1.7-0.1
	c0.4-0.1,0.8-0.3,1.1-0.4c0.3-0.1,0.8-0.5,1.2-1.1c0.2-0.3,0.3-0.6,0.3-0.9c0.1-0.3,0.1-0.8,0.2-1.4c0,0,0,0,0,0c0,0,0-0.3,0-0.6
	c0-0.2-0.3-1.4-1-3c0-1.2-0.1-2.3-0.1-3.5"/>
<path class="st0" d="M258.2,423.2c-0.7-2.1-1.4-4.2-2.2-6.3c0.1,2,0.1,4.1,0.2,6.1c1.1,0.1,2.1,0.3,3.2,0.4h2.5l6.2,0.6l4.6,0.5
	l0.5,2.3l1.8,10.4l1.8,10.8l0.8,10.9l1,11v2.4l-4.7,4.2l-6.8,3.8h-2.4l-7.1-1l-17.2-3l-15.7-2.8l-10.2-1.8l-2.2-1.9v-6.1l1-6
	l0.4-8.4l0.6-8.8l0.4-5.4l1-4.3l1.2-5.9l0.4-2.2l2.9-0.1l1.9,0.4l0.4-1.2l-0.1-1.4c2.1,0,4.2,0,6.2,0"/>
<path class="st0" d="M236.9,420.9c0-2.1,0-4.2,0-6.3v-4.1l0.7-4.7l0.7-4.3l1.9-4.2l1.7-3.4c0.9-0.2,1.8-0.4,2.7-0.6
	c0.7,0.2,1.3,0.5,2,0.7l2.2,5.2l0.6,6l0.5,4.2l1,6.1v3.7l0.6,4.1c-0.1,1.2-0.3,2.4-0.4,3.7"/>
<path class="st0" d="M261.9,423.4c-0.7-2.4-1.4-4.8-2-7.2c-0.7-1.6-1.4-3.2-2-4.8c-0.9-2.1-1.8-4.2-2.6-6.2c-0.4-1.8-1-3.7-1.7-5.6
	c-0.5-1.5-1.1-3-1.7-4.3l-2.6-3.1l-2.5-1.7h-4.1l-2,1.6l-3.2,4c-0.7,1.4-1.4,2.8-2.1,4.1c-0.4,1.3-0.9,2.5-1.3,3.8c-0.7,2-1.3,4-2,6
	l-2,4.3l-0.7,2.2c-0.3,1.4-0.6,2.8-0.8,4.2"/>
<path class="st0" d="M256.3,423"/>
<path class="st0" d="M254.8,403.6c0,0.1,0.8,8.6,0.8,8.6c0,0,0.4,4.6,0.4,4.6"/>
<path class="st0" d="M265.2,429.6l-0.7,7c-0.1,5.1-0.2,10.2-0.4,15.3l1.6,10.5v6l1.2,11c0.1,0.3,0.2,0.6,0.2,1"/>
<path class="st0" d="M233.1,421.7c0.1-1.8,0.5-4.1,1.2-6.7c0.8-2.8,1.9-5.1,2.9-6.9"/>
<line class="st0" x1="256.3" y1="423" x2="256.5" y2="427.6"/>
<path class="st0" d="M233.2,421h4l1.9,1.2h4.2c2.1,0,4.2,0,6.2,0c0.6,0.1,1.1,0.1,1.7,0.2"/>
<polyline class="st2" points="133.9,266.8 138.2,263.5 143.3,260.9 148.6,255.8 "/>
<line class="st2" x1="193.9" y1="122.2" x2="188.9" y2="123.9"/>
<g>
</g>
<g>
</g>
<g>
</g>
<g>
</g>
<g>
</g>
<g>
</g>
</svg>
