<?xml version="1.0" encoding="utf-8"?>
<!-- Generator: Adobe Illustrator 24.2.1, SVG Export Plug-In . SVG Version: 6.00 Build 0)  -->
<svg version="1.1" id="Ebene_1" xmlns="http://www.w3.org/2000/svg" xmlns:xlink="http://www.w3.org/1999/xlink" x="0px" y="0px"
	 viewBox="0 0 841.9 595.3" style="enable-background:new 0 0 841.9 595.3;" xml:space="preserve">
<style type="text/css">
	.st0{fill:none;stroke:#000000;stroke-width:0.7893;stroke-miterlimit:10;}
	.st1{fill:none;stroke:#000000;stroke-width:0.819;stroke-linecap:round;stroke-linejoin:round;stroke-miterlimit:10;}
	.st2{fill:none;stroke:#000000;stroke-width:0.7913;stroke-miterlimit:10;}
	.st3{fill:none;stroke:#000000;stroke-width:0.7913;stroke-linecap:round;stroke-linejoin:round;stroke-miterlimit:10;}
	.st4{fill:none;stroke:#000000;stroke-width:0.7369;stroke-linecap:round;stroke-linejoin:round;stroke-miterlimit:10;}
	.st5{fill:none;stroke:#000000;stroke-width:0.7369;stroke-miterlimit:10;}
	.st6{fill:none;stroke:#000000;stroke-width:0.7915;stroke-miterlimit:10;}
	.st7{fill:none;stroke:#000000;stroke-width:0.7915;stroke-linecap:round;stroke-linejoin:round;stroke-miterlimit:10;}
</style>
<g>
	<path class="st0" d="M329.4,118c-0.6,0.6-1.2,1.4-1.8,2.4c-0.6,1.2-1,2.4-1.2,3.1"/>
	<path class="st0" d="M324.9,110.7c0.2,0.6,0.2,1.2,0.4,1.8c0.4,0.6,0.6,1,0.6,1s-1.2-1.2-3.1-3.5c-1-1.6-1.8-3.1-2.8-4.5
		c-0.8-2.2-1.6-4.5-2.2-6.7c-0.4-2.6-0.6-5.1-1-7.7c0.2-2.2,0.6-4.1,0.8-6.3c0.6-1.4,1.2-2.8,1.8-3.9c1.2-1.4,2.6-2.9,3.7-4.3
		c1.8-1.8,3.7-3.3,5.5-5.1c2-1,3.9-1.8,6.1-2.8c1.8-0.2,3.5-0.4,5.3-0.4c1-0.4,2-1,2.9-1.4c1.4,0,2.9,0,4.7,0.4
		c3.3,0.6,6.1,1.6,8.1,2.4c2.4,2.6,4.5,4.9,6.9,7.5c1.4,2.9,2.8,5.9,4.1,8.8c0.8,3.1,1.4,6.5,2.2,9.6c0.8,2.4,1.4,4.7,2.2,7.1
		c1.6,4.7,3.1,7.7,4.1,9.4c1.2,1.8,1.8,3.9,2.9,5.7c0.2,0.4,0.8,1.2,0.6,2c-0.2,1-0.8,1-1,2.2c0,0.4-0.4,1.4,0,2.4
		c0.4,0.8,0.8,0.6,1.6,1.4c0.6,0.8,0.8,1.6,1,2.6c0.2,0.8,0.2,1.2,0.2,1.8c0,1-0.4,1.4-1,2.9c-0.4,1.2-0.6,2-0.6,2.2
		c0.2,1,0.8,1,2.9,2.9c1.8,1.6,2.2,2.4,2.4,2.8c0.4,0.8,0.6,1.8,0.8,2c0,0.2,0.2,0.8,0.2,1.6c0.2,1.2,0,2,0,2.6c0,1,0,2,0.2,3.9
		c0.2,2.8,0.4,2.9,0.2,3.7c0,0.4-0.6,1.6-1.8,2.6c-1.2,1-2.2,0.6-2.6,1.4c-0.8,1.2,0.2,2.6,0,2.8c-0.4,0.2-2.8-2.6-2.2-4.1
		c0.4-1,1.8-1,1.8-1.4s-1.6-0.2-2.8-0.2c-1.6,0-1.8,0.2-2.8,0c-1,0-2-0.2-3.1-0.8c-1.2-0.8-1.8-2-2.2-2.8c-1-2-0.6-3.9-0.6-4.1
		c0.2-1.2,0.4-1.2,1.6-3.9c1-2.6,1.6-3.9,1.2-4.7c-0.2-0.4-0.2-0.6-2.9-2.8c-2-1.6-2.2-1.6-3.1-2.6c-1.2-1-2.2-2-3.3-3.3
		c-0.8-1-0.8-1.4-2-2.9c-0.8-1.2-1.6-2.4-2.8-3.9"/>
	<path class="st0" d="M358.5,123.5c-1.2-0.2-2.4-0.6-3.5-0.8l-4.3,0.6l-2,1.4l-2.2,1.2l-4.1-0.6l-6.7-0.6l-5.5-1.4h-5.5h-2.8
		l-3.7,3.7l-3.7,7.7l-1,4.9l-1.2,4.9v3.9v4.5l1.2,6.9l-0.2,3.9l0.8,4.7l0.4,5.7l0.2,4.1v3.7v2.6l-0.6,3.1l-1.8,5.1l-2.4,5.9
		l-2.8,6.7l-1.4,6.1l-2.8,10.6l-3.5,14.1l-2.6,9.4l-1.8,2.8l-0.8,4.7v3.7l-3.3,9.8c-0.2,1.8-0.6,3.3-0.8,5.1c0.2,1,0.4,2,0.4,3.1
		c0.4,1.2,0.8,2.6,1,3.7l1.6,2.9l2.6,3.9l1.8,2.6l0.6,1.6l-0.6,3.7L296,303l-1,6.1l-2.6,8.3l-0.6,7.5l-1,7.3l-0.4,2l-2,3.5l-1.6,9.6
		l-1.6,11.6l-2.8,14.7l-2.9,19.8l-2.8,15.5l-0.4,4.7l-1,3.1l-0.8,2.8v1.2l1.4,2.2l3.3,1.4l7.7,1.8l3.3-0.4l3.1-1l3.5-2.8l1.2-1
		l-0.6-4.1l2.2-12.8l5.9-16.7l9.2-25.1l9-20.8l8.8-19.3l4.7-12.6c1.2-2.6,2.4-4.9,3.5-7.5c1.2-2.4,2.2-4.7,3.3-7.1l2.4-4.3l4.3-6.7
		l3.5-5.7l4.7-6.9l1-1.6l2.6-5.5l1-2.9v-5.1v-5.1V246l-1-3.3l-1.2-4.5"/>
	<path class="st0" d="M342,301.8c0.8,2.4,1.4,4.9,2.2,7.3l3.9,12.8l4.7,12.8l1.2,2.9l0.6,5.1l2,8.1l2.6,8.6l0.8,6.5l0.6,4.7l1,3.5
		l2.4,8.3l0.6,4.7l1.4,13.2l0.6,9l1.6,9.4l0.6,6.3v2l0.8,0.6h1.6l2.6-1.2l6.1-0.6l4.5-0.8l5.5-0.4l2.4-1.2v-2.9l-0.8-2.4l-0.6-5.7
		v-10.8l-0.6-9.2l-0.6-14.7l-0.6-7.7l-0.8-5.9l-1-11.2l-1.2-7.5l-1.6-8.3l-2.4-15.1l-3.5-11.4l-1.8-7.1l-0.4-2.9l1.6-8.4l1-5.7
		l0.6-5.3l0.2-7.9v-7.5l-1.2-8.3L376,249l-2.6-5.7l-2.2-5.1l-2.2-4.9l-1.6-4.5l-2-2.6l-2.6-4.3l-2.9-5.1l-0.6-2l1-1l0.2-5.1
		l-0.8-4.1l-0.2-0.8l-0.8-0.6l4.1-4.5l4.7-5.1l3.5-4.3l2-5.9l2.6-5.7l3.9-2.8l2.4-2.8l0.8-1.4l0.6-6.7l1-7.3
		c-0.2-0.2-0.4-0.6-0.6-0.8"/>
	<path class="st0" d="M314.7,184.6c0.4-1.8,0.8-3.5,1.4-5.5l1.2-6.9l1.6-8.4l0.8-9.6l1.4-10.8l1-8.1l0.6-3.5l1.4-2.6l1.6-1.4l1-0.8
		c-0.6-1.2-1.4-2.6-2-3.7"/>
	<path class="st0" d="M326.7,127.2c0.8,2.4,1.8,4.7,2.6,6.9l1.6,5.7l2,7.5l1.8,8.1l1.4,6.9l-1,7.9l-2.2,6.5l-1.4,7.5l-1.8,7.1
		l-1.2,5.1l-0.6,6.3l-1,3.9l-2.4,5.5l-3.3,6.5l-4.9,8.4l-4.1,8.3l-3.7,6.5l-3.1,5.7l-1,2.2l-0.6,3.5l1.4,4.3l0.6,3.3v1l-1.4,4.3
		l-1,2.9l-1.6,3.9l-0.4,3.1l0.4,2.9l-0.4,2.9l-0.6,1.8c-0.6,1.8-1.2,3.7-1.8,5.5"/>
	<path class="st0" d="M347.5,211.7c0.8,0.2,1.8,0.2,2.6,0.4l5.9,1.4c1.6,0.4,3.1,1,4.5,1.4"/>
	<path class="st0" d="M325.7,208.7c1.4,0,2.8,0,3.9,0l3.9,1l3.7,0.6h2.6c1.6,0.2,3.1,0.4,4.5,0.6"/>
	<polyline class="st0" points="349.1,201.4 356.7,203 359.9,203.6 	"/>
	<path class="st0" d="M328,198.3c1.4,0,2.8,0,4.1,0l5.5,1l4.3,1c1.6,0.2,2.9,0.4,4.5,0.6"/>
	<path class="st0" d="M346.9,199.3l2.2,0.6v2.9l-0.8,3.5l-0.8,3.1v4.1l-3.3-0.4v-1.6l0.2-1c0,0,0.6-4.3,0.6-4.5c0.4-1,1-2.2,1.4-3.1
		V199L346.9,199.3z"/>
	<path class="st0" d="M383.2,172c0,1.8,0,3.7,0,5.5l-0.4,8.1l-0.2,6.5l-0.4,8.1l-0.6,9l-0.6,5.1l-0.4,3.1l-1.4,3.1l-1.4,4.5l-2.6,9
		c-0.8,2.4-1.4,4.9-2.2,7.3"/>
	<polyline class="st0" points="364.8,223.4 365.9,219.1 367.5,216 367.7,212.3 367.5,207.9 366.5,201.3 366.3,196.3 	"/>
	<polyline class="st0" points="342.8,125.4 342,123.7 340.4,122.3 338.8,121.5 336.9,122.3 334.5,123.1 332.2,122.7 330.2,120.1 
		328.6,116.4 326.3,112.3 324.7,110.3 323.7,107.5 323.7,102.6 321.7,98.5 321.4,96.2 321.4,93 321.4,88.9 321.7,84.6 324.3,81.6 
		327.8,79.5 331.2,78.9 335.3,79.7 339.6,82.2 342.8,83.8 346.3,87.5 348.5,90.7 351,93.8 352.6,96 355.7,103.4 357.5,107.2 
		357.1,108.3 355.5,110.9 354.7,114.2 355.5,118.4 356.9,121.5 358.5,123.5 	"/>
	<polyline class="st0" points="276,421.5 274.6,424.6 273.6,426.6 272.2,428.5 272.2,430.5 272.2,432.7 275,434.8 277.2,436 
		279.7,435.6 281.3,433.4 283.2,430.7 285.6,430.1 288,429.9 289.9,429.5 290.3,427.6 291.1,425.6 	"/>
	<path class="st0" d="M289.9,429.5c1.4,1.4,2.6,2.8,3.9,4.1l2,2l2,3.7l1.2,6.5l0.6,4.3l0.6,2.4v2.8l-1.4,1.8l-4.5,1.4l-2.9,1
		l-4.5,1.2l-2.8,0.8h-4.3l-4.1-1.2l-2.4-1l-0.8-1.2l-0.6-3.7l-5.7-0.2l-1,2.6l-1,0.4l-7.3-0.6l-3.5-0.8L252,455l-0.6-2l-0.4-1.2
		l-1.2,0.2l-0.4,0.8l-0.8-0.2l-1.2-2l-1.2-3.1v-2.8l0.2-1v-0.4l0.2-1.2l1.2-2.9l2-1.6l2.8-1l2.6-0.4l2,0.4l2.2-3.3l3.1-2.8l2.8-2.2
		l2.8-1l2,0.6c0.6,0.4,1.2,0.6,1.8,1"/>
	<path class="st0" d="M246.9,443.5c0.6,0.6,1.2,1.2,1.8,1.8l1.8,1.6l1,1l0.6,0.4l2.6-0.8l3.9-1.8l2-0.4h1.4l1.4,0.8l1.6,1.4l1.6,1.8
		l1,0.4h2.9h2.4l1.6-1.6l1.2-0.4l3.3,0.4l2.9,0.6h1.4l2-0.8l2.4-2l3.3-2l2.6-0.2l2.8,0.2c0.8,0.2,1.8,0.4,2.6,0.8"/>
	<path class="st0" d="M369.3,427.6v1.2l-0.2,0.4v0.2l-0.2,0.2l-0.4,0.6l-0.2,1.4v2.2l0.2,1.4l1.2,1l1.8,1.2h1.6h1.4l2-2.4l1.4-1.6
		l1.4-0.4l2.8-0.2l2.6-0.2l1.4,0.6l1.2,1l1,2.8l0.4,2.2l0.4,1.4l0.4,2.4l-0.4,2.8l0.4,2l0.4,2.6l0.6,2.4l0.8,1.4l0.2,1l0.6,1.8
		l0.8,2.9v2l-0.8,1.6l-1.4,0.2h-3.5h-3.5l-5.5,0.6h-3.3h-2.6l-1.6-1l-1.6-3.5l-0.4-3.1l0.6-1.8l-0.4-0.6l-0.6,1l-0.4,1.4l-0.6,0.2
		l-2.2-0.2l-3.5-1.2l-2-1.4l-0.8-1.2c0.2-2,0-2.8,0-2.8c-0.2,0-0.4,1.4-0.6,1.4s-0.2-0.6-0.4-1.6l-0.2-2.6v-2.6l0.6-1.2l0.4-0.6
		l0.4-3.3l0.8-1.8l2.4-1.4h0.8l1-0.6l1.6-1.6l0.8-1.6l1.4-1.6l0.4-1l0.6-0.6c0.2,0,0.4-0.2,0.6-0.2"/>
	<path class="st0" d="M391.3,454.3c-0.8-0.6-1.6-1-2.4-1.6l-2.9-0.4l-2.4-0.2l-2.2,0.4l-2.6,1l-1.8,1l-2,1.4l-1.2,0.8l-0.6,0.4
		l-1,0.6h-0.8l-1-0.4l-0.8-0.6l-0.2-0.8l-0.2-1.6v-1.8l-1-0.6l-0.8-3.1l-1.6-1.6l-1.8-1.6l-1.6-0.6l-1.4,0.6l-1.4,0.4H359l-0.8-1.6
		c-0.2-0.4-0.4-0.8-0.6-1"/>
	<polyline class="st0" points="383.4,425.2 383.4,427.6 383.4,429.3 383.4,430.3 383.8,432.3 	"/>
	<path class="st1" d="M186.8,151.6c0.4,0.6,1,1.2,1.6,2c0.8,1,1.4,1.6,2.2,2.6c1.4,1.4,1.6,1.6,2.2,2.4c0.4,0.8,0.2,0.8,0.8,2
		c0.6,1.8,1.6,3.1,2,3.7c0.6,0.8,1,1.4,1.8,2.2s1.6,1.4,2.2,1.6c0.4,0.2,1.6,1,3.5,1.6c2.2,0.8,2.6,0.4,3.3,1.2
		c0.2,0.2,0,0.2,1.4,1.8c0.6,0.8,0.8,1,1,1.4c0.2,0.2,0.4,0.6,1,1.6c0.6,0.8,0.8,1.2,1,1.4c0.6,1,0.4,1,0.8,1.6c0.6,1,1.2,1.6,1.6,2
		c0.6,0.6,1.2,0.8,1.2,0.8c0.8,0.2,1.4,0.2,1.4,0.2c0.4,0,1-0.2,1-0.4s-0.6-0.2-1.4-0.4c-0.4-0.2-1.2-0.4-2-1
		c-0.4-0.4-0.6-0.8-1-1.4c-0.2-0.2-0.2-0.4-0.2-0.6c-0.2-0.6,0-0.8-0.2-1.4c-0.2-0.6-0.2-0.6-0.2-1s-0.2-1,0.2-1.2
		c0.4-0.4,1.2,0,1.8,0.2c0.2,0.2,0.2,0.2,1,1c0.4,0.6,0.4,0.4,0.8,0.8c0.6,0.6,0.6,0.8,1.2,1.4c0.2,0.2,1,1,1,1s0-0.4-0.2-0.8
		c-0.2-0.6,0-0.6-0.2-1.2c-0.2-1.2-0.4-1.8-0.2-1.8s0.2,0,0.8,0.4c0.6,0.2,0.4,0.2,1.2,0.6c1,0.4,0.8,0.4,1.4,0.6
		c0.2,0.2,0.6,0.2,1.2,0.4c0.4,0,0.8,0.2,1.4,0c0.6-0.2,1.2-0.4,1.2-0.6c0,0-0.4,0-1.2,0c-0.2,0-0.6,0-1.2-0.2c-0.2,0-0.4-0.2-1-0.6
		c-0.4-0.4-0.4-0.4-0.8-0.6c-0.6-0.4-0.6-0.4-1-0.6c-0.4-0.4-0.6-0.6-1-1.2c-0.4-0.6-0.8-1-0.8-1.6c0-0.2-0.2-1.2,0.2-1.4
		c0,0,0.2,0,1.6,0.6c0.8,0.4,1,0.4,1.4,0.6c0.2,0,0.4,0.2,1,0.2s1.2,0.2,2,0.2c1.2,0,2,0,2.6-0.4c0.4-0.2,0.6-0.4,1-0.6
		c0.2-0.2,0.8-0.6,1.4-1.2c1.2-1.2,1.8-2.6,1.8-2.6s-1,0.8-1,1c-0.4,0.4-0.4,0.6-0.8,0.8c-0.4,0.2-0.8,0.2-1.2,0.4c-0.6,0-1,0-1.2,0
		c-0.6,0-1.6,0-2.4-0.6c-0.2-0.2-0.8-0.6-1.2-1.2c-0.2-0.4-0.4-0.8-0.4-1.6c-0.2-0.6-0.2-1.2-0.2-2.2c0-1.4,0.4-1.4,0.4-2.4
		c0-0.4-0.2-1.2-0.4-2.6c0-0.2-0.2-1-0.4-2.2c-0.2-1-0.4-1.4-0.4-1.8c-0.2-0.6-0.4-0.8-1-2.2c-0.6-1.2-0.8-1.8-1.2-2.4
		c-0.6-1.6-0.6-1.4-1-2.4c-0.2-0.4-0.6-1.2-1.6-2.6c-1-1.4-1.2-1.6-1.4-2c-0.6-0.6-0.8-0.6-1.6-1.4c-0.6-0.6-0.6-0.8-1-1.4
		c-0.4-0.4-0.8-0.8-1.4-1.2c-0.8-0.6-1-0.6-2.4-1.6c-1-0.6-1.6-1-1.8-1.2s-1-1.2-1.2-2.4c0-0.2-0.2-1.2,0.2-2.4
		c0.2-0.4,0.6-1.4,1-1.4s-0.2,1.4,0.6,2.9c0.6,1,1.4,1.6,1.8,1.8c0.4,0.4,0.6,0.2,1.8,0.8c0.6,0.4,1.6,0.8,2.6,1.4
		c1.2,0.8,1.2,0.8,2.4,1.6c1,0.6,1,0.6,2,1.2c2,1.2,2.6,1.8,2.6,2c0.4,0.4,0.6,0.8,0.8,1.6c1.2,2.9,1.8,5.1,2,5.1c0,0,0-0.4,0-1.2
		c0-0.6-0.2-1-0.2-1.2v-0.2c0-0.4-0.2-0.6-0.2-0.8c-0.2-0.4-0.2-0.8-0.2-1c-0.2-0.8,0-1-0.2-1.4c-0.2-0.8-0.6-0.8-1.4-2
		c-0.6-0.8-0.4-1-1-1.4c-0.4-0.4-0.6-0.2-1.4-0.8c-0.6-0.4-0.6-0.6-1.4-1c-0.8-0.4-0.8-0.4-1.6-1c-0.4-0.2-0.8-0.6-1.8-1.2
		c-1.6-1.2-1.4-1-1.8-1.4c-1.2-0.8-1.4-0.6-2-1.2c-0.4-0.4-0.6-0.8-1-1.6s-0.6-1.2-0.6-1.8s0.2-0.8,0.2-1.6c0-0.4-0.2-0.4-0.2-1
		c-0.2-0.4-0.4-1-0.4-2c0-0.4,0-0.8,0-1.2c0.2-1,0.2-1,0.2-1.6s0-0.6,0-2c0-0.6,0-0.8,0-1.4c0-1,0-1.4-0.2-1.6
		c-0.2-0.8-0.8-1.2-1.2-1.6c0,0-0.6-0.6-1.4-1c-0.8-0.6-1-0.4-2.4-1.2c-1.6-0.8-1.6-1-2.4-1.2c-0.8-0.2-0.8,0-2-0.2
		c-1-0.2-1.8-0.4-2.6-1c-0.6-0.4-0.6-1-1-1.8c0-0.2-0.4-0.8-0.4-1.8c-0.2-1,0-1-0.2-1.8c-0.2-0.6-0.2-0.6-0.6-2
		c-0.4-1.2-0.2-1.2-0.6-2.4c-0.4-1-0.4-1-0.6-1.6c-0.2-1-0.2-1.2-0.4-1.8c-0.2-0.8-0.4-0.6-0.8-1.4c-0.4-1,0-1.4-0.4-2.2
		c-0.2-0.2-0.2-0.2-1.2-1.2c-0.4-0.4-0.8-0.8-1.2-1.2c-0.6-0.6-0.6-0.8-1.2-1.4c-1.2-1.4-1.4-1.4-2.6-2.8c0,0,0,0-1.2-1.6
		s-1.2-1.8-1.6-2.2c-0.6-1-0.4-1-1-2c-0.4-0.8-1-1.4-1.2-1.8c-0.4-0.6-1.2-1.4-2.2-2.4c-0.8-0.8-1.6-1.4-2.2-1.8
		c-0.6-0.6-1-0.8-1.4-1.2c-0.6-0.6-0.6-0.8-1.2-1.4c-0.4-0.6-1-1-2.2-2.2c-0.8-0.8-1.2-1-1.4-1.4c-0.8-0.8-1-0.6-2.4-1.8
		c-1-0.8-1.4-1-1.4-1.2c-0.6-0.4-0.6-0.6-1-0.8c-0.6-0.2-0.8,0-1.8-0.4c-0.6-0.2-0.6-0.2-1.6-0.4c-0.2,0-0.6-0.2-1-0.2
		c-0.4-0.2-1.2-0.2-2-0.2c0,0-0.6,0-1,0.2c-1.2,0.2-1.2,0.2-1.6,0.2c-0.4,0-0.8,0.2-1,0.2c-1,0.2-1,0.4-1.6,0.4
		c-0.4,0-0.6-0.2-1.2-0.4c-0.2-0.2-1.2-0.4-2.4-0.4c-0.4,0-0.2,0-2,0.2c-1.2,0.2-1.2,0.2-1.6,0.2c-0.6,0.2-0.6,0.4-1.6,0.8
		c-0.8,0.4-0.8,0.2-1.4,0.6c-0.6,0.4-0.4,0.4-1.2,1c-0.4,0.4-0.4,0.2-1.2,0.8c-0.2,0.2-0.4,0.2-1.2,0.8c-0.8,0.6-1.2,1-1.4,1
		c-0.6,0.4-0.8,0.8-1.2,1.2c-0.2,0.2-0.6,0.6-1,1.2c-0.8,1-1,2-1.2,2.2c-3.7,6.9-6.3,11.2-7.1,14.3c0,0.2-0.2,1.2-0.8,2.9
		c-0.4,1.4-0.4,1.6-0.6,2.2c-0.4,1-1,1.6-1.6,2.4s-1.4,1.4-2,2c-0.2,0.2-0.8,0.6-1.6,1.2c-2,1.2-2.4,1.2-3.7,2
		c-1.4,0.8-2,1.8-2.8,2.6c-0.8,0.8-1.2,1.4-1.4,2.2c-0.2,0.6-0.2,1-0.2,1c0,0.6,0,0.8,0.2,1.8s0,0.4,0.2,2c0,0.4,0.2,1,0.2,1.8
		c0,0.6,0,0.8,0.2,1.2c0,1.2-0.2,1.4-0.2,1.6c-0.2,0.2-0.4,0.4-0.8,0.6c-0.2,0.2-0.4,0.2-0.8,0.4c0,0-0.4,0.2-0.6,0.2
		c-0.6,0.2-1,0-1,0.2c0,0,0.6,0.2,0.8,0.4c0.2,0,0.6,0,0.6,0s0,0,0.2,0c0.8,0,1.6-0.6,1.6-0.6c0.4-0.2,0.8-0.4,1.2-0.8
		c0.2-0.2,0.4-0.6,0.6-1.2c0.2-0.8,0-1.4-0.2-2.4c-0.2-1.4,0-1-0.4-2.9c-0.2-1.8-0.4-1.8-0.2-2.4c0.2-1.4,1-2.4,1.4-2.6
		c0.6-0.6,1-1,1.4-1.2c0.4-0.4,0.8-0.6,1.4-1c0.8-0.6,1.4-0.8,2-1.2c0.8-0.4,1.2-0.6,2-0.6c0.4,0,0.4,0,1.2-0.2s1.2-0.2,1.2-0.2
		c0.2,0.2,0,0.4-1.2,1.8c-0.8,1-0.8,1-1,1.4c-0.6,0.8-0.4,1-1,1.6c-0.8,1.2-1.2,1.2-1.8,2.2c-0.2,0.4-0.4,1-0.6,1.8
		c0,0.6,0,0.6,0.2,1.8c0,0.6,0.2,1.2,0.2,2c0,1-0.2,1-0.2,2.2c0,1.4,0.2,1.6,0.2,2.8c0,0.6-0.2,1.2-0.6,2c-0.2,0.4-0.4,0.6-0.6,1
		c-0.4,0.4-1,1.2-2,1.8c-0.6,0.2-1.2,0.4-2,0.4c-0.2,0-0.6,0-2,0c-1.2,0-1.8,0-2,0c-0.6,0-1.6-0.2-2.6-0.4c1.2,1,2.2,1.2,2.8,1.4
		c0.6,0.2,1.4,0.2,1.8,0.4c0.4,0,0.8,0.2,1.6,0.2c0.6,0,1.4,0,2.4-0.4c0.6-0.2,1.2-0.6,2.2-1.2c1.2-0.6,1.6-1,2-1.6s0.2-0.6,0.4-2
		c0.4-1.6,0.6-1.4,0.6-2.4c0-0.2,0-1,0-2.2v0.4c0-0.8,0.2-1,0.4-1c0.4,0,0.8,1,2,2.4c0.8,1,1,0.8,1.6,1.4c0.8,1.2,1,2.4,1.2,2.9
		c0.2,1.2,0,2-0.2,2.8c-0.2,1.2-0.4,1.8-0.8,2.4c-0.2,0.4-0.8,0.8-1.8,1.8c-1.2,1-1.2,1-1.4,1.4c-0.2,0.2-0.8,1-0.8,2.2
		c0,0.6-0.2,1.2,0.2,1.8c0.6,1.2,1.8,1.6,2.2,1.8c1,0.4,1.2,0,2.2,0.4c1.4,0.4,2.4,1.6,2.4,1.6c0,0.2,0.2,0.6,0.4,0.8
		c0.8,0.8,2.6,0,4.9-0.8c2-0.6,3.3-1.4,4.5-2c0.8-0.4,1.4-0.8,2.2-1.2c1-0.6,1.6-1,2.2-1.6c0,0,0.8-0.6,1.4-1.4l0,0l0.2-0.2
		c0,0,0-0.2,0.2-0.2c0.4-0.6,0.8-1.8,0.8-1.8c0.6-1,0.8-1.2,1-1.6c0.6-1,0.2-1.6-0.2-4.7c-0.4-2.6,0-3.1-1-3.9
		c-0.6-0.6-0.8-0.4-1.8-1c-1.4-0.8-2-2-2.4-2.8c-1.2-2.2-0.4-2.9-1.8-6.3c-0.4-1.2-0.6-1-1-2.4c-0.8-2.2-1.2-3.7-1.4-5.5
		c-0.6-3.3-0.2-3.5-0.4-6.5c0-0.4-0.2-1,0.2-1.8c0.2-0.4,0.4-0.6,0.6-0.8c0.6-0.8,1.2-1.2,1.4-1.4c0.6-0.6,1-1.2,1.8-2.8
		c0.6-1.2,0.4-1,1.6-3.9c0.8-1.6,0.8-1.8,1-2.4c0.2-1,0.2-1.2,0.6-1.8c0.2-0.2,0.4-0.4,2-1.2c0.8-0.4,1.2-0.8,1.4-0.8
		c1.2-0.8,2-1,2.6-1.4c1.2-0.4,2-0.6,2.9-0.8c1.6-0.2,2.9-0.6,4.7-0.4c0.4,0,2,0.2,3.7,1c1.6,0.8,2.6,1.8,3.1,2.2
		c1.8,1.8,1.4,2.4,3.5,4.9c0.4,0.6,1.2,1.4,1.4,2.4c0,0.2,0.2,0.6,0.2,1c0.2,0.6,0.4,0.8,0.6,1.4c0.4,1,0.2,1,0.4,1.6
		c0.4,1,1.4,1.8,1.6,1.8c0.8,0.6,1.2,0.4,1.8,1c0.2,0.2,0.4,0.4,0.8,1.2c0.6,1.4,0.8,2.6,0.8,3.3c0,1,0,0.8,0,2.8
		c0,1.8,0.2,2.2,0,3.3c0,0.4,0,1-0.2,2.2c0,0.8-0.2,1.8-0.4,2.9c-0.4,2.6-0.6,3.1-0.8,3.5c-0.4,1-1,1.8-1,1.8
		c-0.2,0.4-0.4,0.6-0.8,1.2c-0.2,0.2-0.2,0.2-0.8,1.4c-0.4,0.8-0.6,1-0.8,1.4c-0.6,1-0.6,2-0.8,2.9c-0.2,1.2,0,2,0,3.1
		c0,0.2,0,0.8,0.2,1.8c0,1,0,1,0.2,2.2c0.2,2.2,0.2,2,0.2,2.2c0.2,0.4,0.4,0.8,0.2,1s-0.4,0.4-1,0.8c-0.4,0.2-0.4,0.4-1,0.8
		c-0.4,0.2-0.8,0.4-1.6,1s-1.2,0.8-2,1.2c-1.2,0.8-1.2,0.8-2.4,1.4c-0.6,0.4-0.6,0.4-1.4,0.8c-1,0.6-1.2,0.6-1.8,1
		c-0.8,0.4-1.2,0.6-1.8,1c-0.8,0.4-1.4,0.8-1.6,0.8c-1,0.4-1,0.4-1.8,0.8c-1.4,0.6-1.6,0.8-2,0.8s-1-0.4-2-1.2
		c-1.2-0.8-1.2-1-1.8-1.4c-0.8-0.4-1-0.4-1.4-0.8c-0.2-0.2-0.4-0.4-1-1.6c-0.6-1.4-0.8-1.6-0.8-1.8s-0.2-0.4-0.2-1
		c0,0,0-0.2-0.2-0.6c-0.2-0.6-0.4-1.2-0.6-1.6"/>
	<path class="st1" d="M186.8,151.6c-2-2-2.8-2.8-3.1-3.1c0,0,0,0-0.2-0.2s-0.6-0.6-1.2-1.2c-0.2-0.2-0.4-0.4-2-2.2
		c-0.2-0.2-0.6-0.6-1.2-1.2c-0.6-0.6-1-1-1.2-0.8s0,1.2,0.6,2c0.2,0.4,0.4,0.6,0.6,0.8c0.2,0.4,0,0.6,0,1.4c0,0.6-0.2,1.2-0.2,1.2
		c0,0.2-0.2,0.6-0.4,1s-0.2,0.4-0.4,1c-0.2,0.4-0.2,0.4-0.4,1s-0.2,0.6-0.4,1.2s-0.2,1-0.4,1.2c0,0.4,0,0.4-0.2,1.2
		s-0.2,1.4-0.2,1.4c-0.2,0.8-0.2,0.8-0.2,1c0,0.4,0.2,0.8,0.6,1.2c0.2,0.4,0.4,0.6,0.6,0.8c0.4,0.4,0.4,0.4,0.8,0.8
		c0.4,0.4,0.6,0.8,0.6,0.8s-1.2-0.8-2.2-1.8c-0.8-0.8-1-1.6-1.2-1.8c-0.4-0.8-0.4-1.4-0.4-1.6c0-0.4,0-1,0.2-1.8
		c0.2-0.6,0.4-0.6,0.6-1.4c0-0.4,0.2-0.6,0.2-1.4c0.2-1.2,0.2-1.2,0.2-1.8c0.2-0.8,0.4-0.8,0.6-1.4c0-0.4,0-1-0.2-1.8
		c-0.2-1-0.2-1-0.4-2s0-1-0.2-1.4c-0.2-1-0.8-1-1.2-2.2c-0.2-0.6-0.2-0.6-0.4-1c-0.2-0.2-0.2-0.4-1-1.2c-0.8-1-0.8-0.8-1-1.2
		c-0.4-0.6-0.4-1.2-0.4-1.8s0.2-1.2,0.2-1.6c0-0.4,0.2-1.2,0.2-2"/>
	<path class="st1" d="M172.8,132.1c0-0.4-0.2-1-0.6-1.2c-0.4-0.4-1-0.2-1.2-0.2"/>
	<path class="st1" d="M130,138c-0.8,0.4-1.4,0.6-1.8,0.8c-0.2,0,0,0-1.6,0.4c-0.8,0.2-1,0.2-1.2,0.4c-0.4,0-0.6,0-1,0.2
		c-0.2,0-0.4,0.2-1,0.2c-0.6,0.2-0.8,0.2-1.4,0.4c-0.2,0-0.4,0.2-0.8,0.2c-1.6,0.4-1.6,0.4-2,0.6c-0.2,0-0.6,0.2-1.6,0.6
		c-0.8,0.4-1.2,0.4-1.8,0.8c-0.4,0.2-0.8,0.4-1.4,0.6c-0.4,0.2-0.6,0.4-1.2,0.6c-0.2,0.2-0.6,0.4-1.2,0.6c-0.6,0.4-0.8,0.4-0.8,0.6
		c-0.2,0.2-0.4,0.6-0.6,1.2c-0.2,0.4-0.2,0.6-0.4,1.2c-0.2,0.8-0.2,0.8-0.4,1.2c-0.2,0.4-0.2,0.6-0.4,0.8c-0.4,0.6-0.4,0.6-0.8,1.2
		c-0.4,0.6-0.2,0.4-0.8,1.4c-0.4,0.6-0.6,1-0.8,1.4c-0.6,0.8-0.6,0.8-0.8,1.2c-0.2,0.6-0.2,0.6-0.6,1.6c-0.2,0.6-0.4,0.6-0.4,1
		c-0.2,0.2-0.2,0.6-0.4,1.6c-0.2,0.8-0.2,1.2-0.4,2c-0.2,1.2-0.2,1-0.4,2c-0.2,1-0.2,1.4-0.4,2.4c-0.2,1.2-0.4,1-0.6,2
		c0,0.2-0.2,0.8-0.4,2.2c-0.2,1-0.4,1.2-0.4,1.8c0,0.4-0.2,1-0.2,1.4c0,0.2,0,0.4,0,0.4c0,0.4-0.2,1-0.4,1.8"/>
	<path class="st1" d="M121.8,219.1c-0.2,0.8-0.2,1.4-0.4,2c0,0.6-0.2,0.8-0.2,1s0,0.6-0.2,0.8c-0.2,1.6,0,2.2-0.2,3.1
		c-0.2,2.4-0.8,4.1-1.4,6.3c-0.4,1.4-0.6,1.4-1.2,3.1c-0.6,1.8-0.8,2.8-1,3.9s0,1-0.4,3.3c-0.2,1-0.2,2-0.4,3.3
		c-0.2,0.6-0.2,0.6-0.6,2.6c-0.6,2.6-0.4,2.6-0.6,3.1c-0.2,1-0.6,1.8-1,3.3c-0.4,1.2-0.6,1.4-0.8,2.4c-0.8,2-1.2,3.5-1.4,4.1
		c-0.6,2-0.2,1.8-1,4.7c-0.4,1.4-0.4,1.6-0.8,3.5c-0.4,1.8-0.4,2-0.6,2.8c-0.6,2.2-0.8,2.2-1,3.3c-0.4,1.8,0.2,2-0.2,3.7
		c-0.2,1.4-0.4,1.2-0.8,2.8c-0.4,2.2,0,2.4-0.4,4.3c-0.4,1.4-0.6,1.2-1,2.9c-0.4,1.4-0.4,2.4-0.6,3.9c-0.4,3.1,0,2.9-0.4,4.1
		c-0.4,1.4-0.6,1.4-1.8,4.3c-0.8,2-1.2,3.3-1.4,4.1c-0.6,1.6-0.4,1.8-1,3.7c-0.6,2.2-1,3.3-1.4,4.3s-1,1.8-2.2,3.5
		c-0.6,1-1.2,1.6-1.8,2.6c-1,1.4-1.6,2.2-2,2.4c-0.4,0.4-1,0.6-0.8,1c0,0,0,0.2,1,0.8c0.6,0.4,0.8,0.4,0.8,0.6
		c0.2,0.4,0,0.4,0.2,0.8c0,0,0.2,0.6,0.6,0.6s0.6-0.2,1.2-0.2c0.4,0,0.8,0.2,1,0.2s0.4,0.2,0.6,0.6s0,0.6,0.2,1.2
		c0,0.4,0.2,0.6,0.4,0.8c0,0,0.2,0.2,1.6,0.4c0.4,0.2,0.8,0.6,0.8,1s0,0.4,0,0.8c0,0.6,0,1.2,0.6,1.6c0.4,0.4,1,0.4,1.2,0.4
		c0.6,0,0.8,0,1.2-0.2c0.8-0.2,1,0.2,2,0.2c1.2,0,1.2-0.2,2.6-0.4c0.8,0,1,0,2,0.2c0.8,0,1.6,0,2.9-0.2c2.2-0.2,2.4-0.4,3.3-0.2
		c0.6,0,1.2,0,2,0.4c1,0.4,1,0.8,2,1c1,0.4,1.6,0,2,0.6c0.2,0.2,0.2,0.2,0.6,1.4c0.2,0.6,0.4,1,0.6,1c0.4,0.4,1.4,0,3.3-0.6
		c1.6-0.6,2.2-0.8,2.4-1c0.6-0.2,1-0.6,1.4-0.8c0.6-0.4,0.8-0.6,1.2-0.8c0.6-0.6,0.6-0.8,0.8-0.8c0.6,0,0.8,1,2,1.6
		c0.4,0.2,0.4,0.2,2.2,0.6c0.4,0,1.4,0.4,3.5,0.8c1.4,0.4,2.2,0.4,2.6,0.6c2.4,0.6,2.4,0.8,3.5,1c0.8,0,0.8,0,3.7-0.4
		c1.8-0.2,2-0.2,3.5-0.2c1.4-0.2,2.2-0.2,3.1-0.4c0.6-0.2,2-0.4,3.3-0.8c1.6-0.6,1.4-0.6,2.8-1c1.8-0.6,2.4-0.4,2.9-1
		c0.6-0.6,0.4-0.8,1.2-1.4c0.4-0.4,1-0.8,2.2-1.4c1-0.6,1.6-0.8,2.2-1c0.4-0.2,0.6-0.2,2.2-0.4c2.2-0.2,2.2-0.4,2.6-0.4
		c1.2,0,2.2,0.6,2.8,0.8c0.8,0.4,0.8,0.4,1.6,0.8c0.8,0.2,0.8,0.2,2,0.6c1.4,0.4,1.2,0.6,2,0.6c0.8,0.2,1,0,2,0.2
		c0.8,0.2,1,0.2,1.8,0.4c0.8,0.2,1.2,0,2.8-0.2c1.8-0.2,1.4,0,3.1-0.2c1.2-0.2,2-0.2,3.1-0.4c1.4-0.2,2.4-0.4,2.8-0.6
		c0.8-0.2,1.4-0.4,2.2-0.6c1.2-0.4,1.2-0.6,2.6-1.2c0.4-0.2,0.2,0,3.3-1.4c0.6-0.2,1.2-0.6,1.8-0.8c0.8-0.2,1.4-0.4,1.6-0.8
		c0.2-0.2,0.2-0.4,0.4-1c0-0.2,0.2-0.6,0.2-1.2c0.2-1,0-1,0.2-1.2s0.4-0.4,1-0.4c0.4-0.2,0.6-0.2,1.4-0.4c1.2-0.2,1.2-0.2,1.4-0.2
		s1.2-0.4,1.8-1s0.4-0.8,1-1.2c0.4-0.4,0.8-0.4,1.8-0.6c0.2,0,1.6-0.4,2.2-0.6c1.2-0.2,2.2-0.6,2.8-0.8c0.8-0.2,1.2-0.4,2-0.6
		c2.6-1,2.9-1.2,3.3-1.6c0.4-0.4,0.6-0.8,1-1.4c0.2-0.4,0.6-1.2,0.8-2.2c0-0.6,0.2-1.2-0.2-1.8c-0.2-0.4-0.4-0.8-1-1.4
		c-0.2-0.2-0.4-0.4-1.6-1.4c-0.6-0.6-0.8-0.8-1-1c-1-1-1-2-1.4-3.5c-0.2-0.8,0-0.2-1.8-4.5c-0.6-1.6-0.8-2.2-1.2-3.1
		c-0.4-1.2-0.6-1.4-1.2-2.4c-0.6-1.4-0.8-2-1.8-4.3c-0.8-2.2-0.2-0.6-1.8-4.9c-1.8-4.7-1.6-4.3-2.2-5.7c-1.4-3.7-1.6-3.5-2.2-5.3
		c-0.6-2.2-0.6-2.8-1.4-5.3c-0.6-1.6-1-2.9-1.4-3.5c-0.4-0.8-1-2.2-1.8-3.7c-0.6-1.2-1.2-2.2-1.6-2.8c-1.2-2.2-1.4-2.2-2-3.3
		c-0.8-1.6-0.6-1.6-1.6-3.9c-0.4-1.2-0.4-1-2-3.9c-1.4-3.1-1.4-3.3-2-4.1c-1.2-1.8-1.4-1.6-2-2.9c-0.6-1.4-0.6-2.2-1.4-2.9
		c-0.4-0.4-0.8-0.4-1.6-1.2c-0.6-0.6-0.8-1-1-1.2c-1-1.6-1.4-2.6-2-3.3c-0.2-0.4-1-1.4-2.4-3.3c-0.8-1.2-1.4-1.8-1.6-2.4
		c-0.4-0.6-0.8-0.8-2.4-2.6c0,0-0.2-0.2-0.4-0.4c-1.4-1.4-2-2-2.2-2.2c-1.8-1.8-2.6-1.4-3.1-2.6c-0.2-0.6,0-0.4-0.4-2
		s-0.8-1.8-1-2.8c0-0.2,0-0.8-0.2-2.2c0-1.8,0-2-0.2-2.6c-0.2-1.4-0.4-1.2-0.4-2c0-1,0.4-1.6,0.6-2.6c0.2-0.6,0.6-1.2,1-2
		c0.8-1,1.2-1,2.8-2.4c1-1,1.8-1.8,2-2.2c0.8-1,1.2-1.8,1.4-2s0.4-0.8,0.6-1.6c0.4-1.4,0.4-2,0.6-2c0.2,0,0.6,2,0.6,2.4
		c0.2,1.2,0,1.2,0.2,2s0.2,0.8,0.6,2c0.2,0.8,0.4,1.4,0.6,2.4c0,0.4,0.2,0.8,0.2,1.6c0.2,1.2,0.2,1.4,0.2,2.6c0,0.4,0,0.6,0.2,1.8
		c0.2,2,0.2,2,0.4,2.6c0.2,0.8,0.2,0.6,0.4,2c0.2,0.4,0.2,0.4,0.4,2c0.2,1.4,0.4,1.6,0.4,2.2c0,0.4,0.2,1,0.2,2c0,0.6,0,1,0,1.2
		s-0.2,0.6-1.4,1.6c-0.6,0.6-1,0.8-1,0.8c-1.2,0.8-2.4,1.4-3.5,2.2"/>
	<path class="st1" d="M206.8,232.1c1-0.6,2.4-1.6,3.5-2.9c0.4-0.4,1.2-1.8,1.6-3.7c0.4-1.4,0.2-1.6,0.2-4.3c0-0.8,0-0.8,0.6-5.1
		c0.2-2,0.4-2.4,0.4-3.5c0.2-1.8,0.2-2.9,0-3.1c0-0.4,0-1.6-0.2-2.8c-0.2-1.6-0.2-1.8-0.6-3.9c-0.2-1.8-0.2-1.8-0.6-4.1
		c-0.2-1.6-0.4-2.4-0.6-3.5c-0.4-1.8-0.4-1.8-0.8-3.5c-0.4-2-0.6-3.7-0.6-4.3c-0.2-1.6,0-1.6-0.2-2.9s-0.2-1.6-0.4-3.1
		c-0.2-1.2-0.2-2-0.2-2.8c0-1-0.2-2.4-0.2-3.7"/>
	<path class="st1" d="M206.8,232.1c-0.2,0.2-0.6,0.4-1,0.6c-0.6,0.2-0.8,0.2-1.4,0.4c-0.6,0.2-0.8,0.4-1.2,0.6
		c-0.6,0.2-1,0.4-1.4,0.4c-0.8,0.2-2,0.6-4.7,1.6"/>
	<path class="st1" d="M53.2,129.9c0.2-0.4,0.6-0.8,0.8-1.2h1.2l0.6,0.8l0.2,1l0.6,2l1.2,2.2l1,1.6l1,1l0.6,0.8"/>
	<path class="st1" d="M53,126.6c-1.2-0.2-2.2-0.6-3.3-0.8c-0.2,0.2-0.4,0.4-0.6,0.6c0,0.4,0,0.6,0,1c0.2,0.2,0.2,0.6,0.4,0.8
		c0.2,0.2,0.4,0.4,0.8,0.6c0.2,0.2,0.6,0.4,0.8,0.6c0.4,0.2,1,0.4,1.4,0.6"/>
	<path class="st1" d="M102.1,174.1c-2.4,13.4-3.3,17.1-3.9,17.1c0,0-0.4-0.4-0.8-1c-0.2-0.4-0.6-0.6-1-1.2c-0.4-0.6-0.6-0.6-2.4-2.9
		c-1.2-1.6-2-2.2-2-2.4c-1.2-1.6-1.2-2-2.6-3.9c-1-1.2-1-1.2-2-2.6c-0.6-0.8-1.2-1.6-2.2-3.1c-1-1.6-1.6-2.4-1.8-2.8
		c-0.6-1-1-1.6-1.6-2.4c-0.2-0.4-0.8-1.2-1.2-2.2c0-0.2-0.2-0.4-0.2-0.4c-0.2-0.6-0.6-1-0.6-1c-0.6-1-2.6-2.9-2.6-2.9
		c-1.6-1.4-1-1.4-3.3-3.9c-1.6-1.8-1.8-1.8-2.8-2.9c-0.6-0.8-1-1.4-2.6-3.7c-2-2.9-2.8-4.3-3.1-4.9c-0.6-1.4-4.3-11.4-4.3-11.4
		l-2.9-4.3l-2-2.4c-0.8-0.6-1.6-1.2-2.4-1.8"/>
	<polyline class="st1" points="122.8,335 122,341.3 118.8,351.7 116.7,362.7 116.9,377.5 116.5,394.2 116.5,405.7 114.1,412 
		114.7,416.4 113.3,420.7 110.4,429.1 108.6,431.1 107.4,432.3 104.3,440.3 102.1,446.6 101.5,448.2 99,452.9 98.2,455.4 
		98.4,458.2 100.9,458.6 105.3,458.2 112.3,456.2 117.6,454.5 122.9,451.7 122.4,446.8 122.8,442.5 123.3,440.9 126.3,441.5 
		128.1,442.3 129.2,442.7 132,441.3 132.2,438.9 131.8,427.2 133.6,424.2 133.4,421.3 131.6,418.7 129.4,415.6 128.3,412 
		133.4,391.6 138.7,375.3 142.2,365.5 143.6,353.5 146.9,344.7 149.1,337.6 	"/>
	<polyline class="st1" points="129,414.4 127.9,420.9 126.1,426.4 122.6,433.8 117.8,440.1 115.1,442.5 110.6,443.1 107.2,443.5 
		105.7,443.1 106.2,439.9 107.8,435.6 109.6,429.9 	"/>
	<polyline class="st1" points="131.8,427.2 130.2,430.1 126.3,434.2 123.9,438.2 123.3,440.9 	"/>
	<polyline class="st1" points="169.3,331.3 171.3,340.7 172.1,351.3 171.5,359.4 173,372 175,389.1 175.6,401.6 176.2,405.2 
		173.8,408.9 172.5,410.7 173.2,415.8 172.6,418.7 171.1,420.9 171.5,424.4 173.2,428.3 175,433.1 175.6,436.8 175.8,443.9 
		176.6,445.6 178.5,446.6 182.9,447.6 187.6,448 193.9,447.2 195.8,445.2 197.4,441.3 196.8,437.2 193.9,432.9 191.7,424.8 
		189.1,420.1 188.4,414.2 187.4,403.4 188,398.1 192.7,378.4 194.3,362.3 194.8,348 194.1,336 194.1,332.5 	"/>
	<polyline class="st1" points="189.1,420.1 189.5,423.2 191.1,427 191.9,432.5 190.9,434 188.4,434.4 183.8,435 180.5,435.4 
		176.8,432.7 174.6,428.1 173.4,424.4 173,420.5 172.6,418.7 	"/>
	<path class="st1" d="M49.1,146.6c0.2,0.4,0.4,0.6,0.6,1l1.4,2.6l1.4,2.4l4.3,3.5l2.4,2.6c1.6,2.2,3.1,4.1,4.7,6.3
		c1.8,2.6,3.3,5.1,5.1,7.9c1.4,2.4,2.2,3.7,2.4,4.3c0,0,0.2,0.8,0.6,1.6c0.4,1,0.6,1.4,1.2,2.9c1,2.6,1.6,3.9,1.8,4.7
		c1.2,2.6,1.4,2.4,2.8,5.1c1,2.2,0.8,2.4,1.8,3.9c0.8,1.4,1.6,2.4,2.6,3.7c1.6,2.2,1.8,2.2,2.9,3.7c0.8,1.4,0.8,1.6,1.8,2.8
		c0.8,1.2,1.2,1.4,2.4,2.9c1.8,2.4,1.6,2.4,3.1,4.1c0.4,0.4,1.6,1.8,3.1,3.5c1.4,1.4,2.6,2.6,3.5,3.3c0.6,0.2,1.4,0.6,2.4,0.8
		c0.4,0,1.4,0,2.6-0.4c0.6-0.2,1-0.4,1.6-0.8c0.6-0.4,1-0.8,2.4-2c1.2-1,1.6-1.6,1.8-1.8c0.8-1,1.2-1.8,1.6-2.6
		c0.4-0.6,0.6-1.2,0.8-1.6c1.2-2.4,2.2-4.3,2.9-5.9c1.2-2.2,1.6-3.3,2-4.3c1.6-3.5,1.4-3.1,2.2-4.7c0.6-1.4,1.2-2.8,1.8-4.7
		c0.4-1.2,0.8-2.4,1.4-4.7c0.6-1.8,1-3.3,1.2-4.5c0-0.4,0,4.1,0,5.9c0,0.2,0,0.6,0,1c0,1,0.2,1.6,0.2,3.5c0,0.6,0,0.6,0,5.3
		c0,2.8,0,3.1-0.2,3.9c-0.2,1.6-0.4,2-0.6,3.5c0,1,0,1.4-0.2,3.1c0,1.6,0,3.5-0.2,4.7c0,1.2-0.2,2.9-0.6,5.3"/>
	<path class="st1" d="M51.8,131.9c-0.2,0-0.4,0-0.6,0c-0.4,0-0.8,0-1.2,0c-0.4,0.2-0.8,0.4-1.2,0.6l-0.6,1.2v1.2l0.6,1l-1.2,1
		l-0.4,1l-0.2,1l0.6,0.8l-0.8,0.4l-0.8,1.4v1.6l0.8,0.8c0.2,0.2,0.2,0.2,0.4,0.4"/>
	<line class="st1" x1="53" y1="130.3" x2="53.2" y2="129.9"/>
	<polyline class="st1" points="56,146.1 55.2,143.9 55,142.3 55,140.6 55.2,139.4 53.8,136.4 53,134.3 52.8,131.5 53,130.3 	"/>
	<polyline class="st1" points="50.5,131.9 51,133.1 51.4,134.1 51.8,135.2 51,136.4 50.1,136.6 49.1,136.4 48.7,135.6 	"/>
	<polyline class="st1" points="47.5,139.6 48.3,140.6 49.3,141.3 50.5,141.5 50.9,141.1 51.8,140.2 51.6,139.4 50.9,138.4 
		50.3,137.6 49.5,137 49.1,136.4 	"/>
	<polyline class="st1" points="46.1,143.1 47.7,143.3 48.7,143.3 	"/>
	<path class="st1" d="M48.7,143.3l0.8-0.4l0.6-0.6v-0.4c-0.2-0.2-0.4-0.4-0.6-0.8"/>
	<path class="st1" d="M47.3,144.3c0.2,0.2,0.4,0.4,0.6,0.6"/>
	<path class="st1" d="M50.7,141.3c-0.2,0.8-0.4,1.4-0.6,2.2c0,0.6,0,1.2,0,1.8l0.6,0.4l1.4,0.6l2,0.8l0.8,0.4l0.4,0.4l-1.8-0.2
		l-1.6-0.2l-3.3-1l-3.1-0.8l-2.8-0.8v-0.2l0.2-0.2H44c0.8,0.2,1.6,0.4,2.4,0.6c0.4,0,1,0,1.4,0c0.2,0,0.4-0.2,0.4-0.2
		c0.4-0.4,0.6-1,1-1.4c0-0.2,0-0.2,0-0.4"/>
	<path class="st1" d="M52.8,132.5c-0.6,2.2-1,4.1-1.6,6.3"/>
	<path class="st1" d="M51.2,133.9c0.8-3.5,1.8-7.1,2.6-10.6c-0.4-0.6-1-1.2-1.4-1.8c-0.4-0.4-0.8-0.8-1.2-1.4s-0.6-1.4-1-2
		c2.4-9,4.9-18.1,7.3-27.1c1.2,0.8,2.4,1.6,3.3,2.4c1.4,0.4,2.8,0.8,4.1,1.2c1.4,0,2.6,0,3.9,0c-1.4,4.7-2.6,9.4-3.9,14.1
		c-1.2,4.1-2.4,8.4-3.5,12.6c-0.8,0.4-1.6,1-2.4,1.4c-0.6,0.2-1.2,0.2-2,0.4c-0.8,0.2-1.6,0.4-2.4,0.6c-0.4,2-1,3.9-1.4,5.9"/>
	<path class="st1" d="M50.3,137.6c0-0.4,0.2-0.8,0.2-1.2"/>
	<polyline class="st1" points="68.9,94.2 65.8,91.8 61.7,90.7 57.5,90.9 	"/>
	<path class="st1" d="M52.8,108.7c1.4-0.6,2.6-1.4,3.9-2c1.8,0,3.3,0,5.1,0c1,0.6,2.2,1.4,3.1,2c-1.2,0.6-2.4,1.4-3.7,2
		c-2,0-3.7,0-5.7,0C54.8,110.1,53.8,109.5,52.8,108.7z"/>
	<path class="st2" d="M513.7,129.5c-3.3,2.6-6.1,4.5-8.1,5.9c-3.1,2.2-4.9,2.9-8.3,5.5c-2.2,1.6-4.3,3.1-6.7,4.9
		c-2.9,1.6-6.1,3.1-9.4,4.5c-1,0.4-2,0.8-2.9,1.4"/>
	<path class="st3" d="M463.2,214.4c-0.2,4.9-0.6,10-0.8,14.9v13.6l-6.9,83.9l-2.4,19.3l9.2,4.9l7.9,1l7.7-1.6h7.7l7.9,3.3l15.1-3.3
		l5.1-7.1l3.7-8.8l4.9-6.5l5.3-64.2v-12.4l0.4-15.9l2-13.9l-1.6-19.3l1.6-10.6c-2.2-10.4-4.3-20.6-6.3-31c-1.2-4.5-2.4-9-3.3-13.6
		c-1.2-2.4-2.6-4.5-3.7-6.9c-1-3.5-2-7.3-2.9-10.8"/>
	<path class="st2" d="M475.2,152.5c1,0.8,2.2,1.6,3.1,2.8l0,0"/>
	<path class="st2" d="M478.5,155.5C478.5,155.5,478.5,155.3,478.5,155.5"/>
	<path class="st2" d="M516.6,140.4l-6.5,8.4l-4.7,5.1l-8.4,5.9l-7.7,4.7l-3.5,2c-1.2-2.8-3.1-6.7-6.5-10.4c-0.2-0.4-0.6-0.6-0.8-0.8
		"/>
	<path class="st3" d="M492.5,185.9l-3.5,10.4c0,0-1.6,6.5-1.6,7.7s0,7.3,0,7.3v4.3c-0.4-0.2-1-0.6-1.4-0.8c-0.2,2.6-0.4,4.9-0.6,7.5
		c0.6,0.4,1.4,0.6,2,1c1.8,1.4,3.5,2.9,5.1,4.3l8.1,2.8l6.5,1.6c0.6,0.2,1.2,0.4,1.8,0.6c1-1.8,2-3.3,2.9-5.1c-0.4-0.4-1-0.6-1.4-1
		c0.8-1.2,1.4-2.4,2.2-3.5v-5.1l4.3-9l2.8-5.3c1-1.6,2-3.1,2.9-4.7"/>
	<path class="st2" d="M487.2,215.4c2.8,1.8,5.5,3.7,8.3,5.5l9.4,3.5l5.3,1.6"/>
	<path class="st2" d="M504.8,231.3c-0.8,1-2,2.6-3.7,3.9c-1.8,1.4-3.1,2.8-5.3,3.3c-2.9,0.8-5.7-0.2-7.1-0.8
		c-5.5-4.1-9.8-7.9-13-10.8c-5.7-5.1-9.6-9.4-13-13.2c-3.9-4.3-7.1-7.9-9.4-10.8c-1.6-1.6-2.9-3.3-4.5-4.9c-1.4-0.2-2.8-0.4-3.9-0.6
		l-3.3-1.6l-5.1-4.1l-2.4-5.7v-6.5l2-3.5c0,0,2-1.6,3.1,0c1.2,1.6,8.3,3.9,8.3,3.9l5.3,5.9l12.4,10.8c3.7,3.5,7.7,6.9,11.4,10.6
		c3.1,2.9,6.3,5.9,9.4,8.8"/>
	<path class="st2" d="M502.5,351.5c-0.2,2.4-0.2,4.7-0.2,7.1c-0.2,2.9-0.2,5.9-0.2,8.6c1.2,2.2,2.6,4.9,4.1,8.1
		c1.2,2.6,3.5,6.3,4.7,11.2c1.4,5.3,2.8,10.4,4.3,15.7l1.6,5.1l4.1,2.4c2.2,1,3.5,0.8,5.7,1.8c0.8,1.4,1.8,2.8,2.6,3.9
		c0.4,1.2,0.8,2.4,1.2,3.5c-0.4,2.8-0.8,5.5-1.2,8.3l2.2,2.8c1.8,2.2,2.6,3.1,4.5,5.3c1,1,2,2,2.8,3.1c-0.6,0.6-1.2,1.4-1.8,2
		c-0.8-1.2-1.6-2.4-2.4-3.7c-1.4-1.4-2.6-2.9-3.9-4.5c-1.8-2.2-2.4-3.1-3.9-5.3l-1,4.5v2.6v3.5v3.1c0,0-0.2,1.6-0.2,2.4
		s-1,2.6-1,2.6l-1.6,3.3l-2.6,2.4l-5.9,3.3c0,0-3.9,2.4-4.7,2.6c-0.8,0.2-8.4,3.5-8.4,3.5c-0.6-0.2-1.2-0.4-1.8-0.8l0.4-1
		c0-0.2,0.8-2,1-2.2c0.4-0.6,1-1.2,1.4-1.6l1.6-2.2l2.6-3.1l1.6-3.3l1.2-2.6L509,438l-1.6-8.3l-1.2-6.9l-1.2-7.3l-3.1-7.5l-2.8-7.9
		l-10.2-16.3l-10.6-17.5l-6.7-9.4c-1.6-2-3.3-4.1-4.9-6.1"/>
	<path class="st2" d="M501.9,367.2c-2.9-4.5-5.7-9.2-8.6-13.8"/>
	<path class="st2" d="M498.9,400.6l-1.6,13.6v5.9v4.3v1.4l1.6,3.3l1.6,2.8c0.2,1,0.4,2,0.6,2.9c-0.4,1.4-0.8,2.8-1,4.3
		c-1,1.2-2.2,2.4-3.1,3.7l-2,2.8l-0.8,2.9l-0.6,3.9l-0.4,4.3h-2.4l1-4.3l0.6-3.3l-0.2-2.8l-0.2-2.4l-0.6-1l-1.6,0.8l-2.4,2.4
		l-2.8,3.3l-2.2,3.5l-1,2l-1.8,1l-4.3,1.6H469l-10.8-1.4l-3.1-1l-1-0.8l0.6-1.2l1.8-0.8l3.3-1l9-2.9l2.6-1l3.1-6.1l2.9-7.1l2.8-3.9
		l1.2-6.3l0.8-12.6c0.6-5.3,1.2-10.6,2-16.1c0.8-6.7,0.6-13,0.6-18.7"/>
	<polyline class="st2" points="519.6,409.1 520.7,412.4 521.5,416.6 520.5,426.4 519.2,437 518,445.4 512.9,446.4 509.5,446.4 
		508.4,446 	"/>
	<polyline class="st2" points="470.6,447.8 473.4,449.4 475,450.1 476.3,450.1 486.6,438.6 492.7,431.5 495.2,428.1 497.4,425.6 	
		"/>
	<path class="st3" d="M443,178.3c0.8-1.8,1.6-3.5,2.4-5.1c-0.6-0.2-1.4-0.8-2-1.6c-0.2-0.2-0.6-0.8-1-1.6c0-0.2-0.2-0.6-0.2-1.2
		c0-0.2,0.2-1,0.6-1.4c0.2-0.2,0.4-0.2,0.8-0.4c0.6-0.4,0.8-0.4,1-0.6c0.2-0.4-0.2-0.6-0.2-1c0-0.6,0.6-0.8,1.2-2
		c0.2-0.4,0.2-0.6,0.4-0.6c0.4-0.4,1.2,0,1.2,0c0-0.2-0.4-0.2-0.6-0.6c0-0.2,0.2-0.6,0.4-0.8c0.4-0.4,0.8-0.6,1-0.6s0.6-0.2,1.2-0.2
		c0.4,0,0.8,0.2,0.8,0.2s0-0.2-0.2-0.6c0,0-0.2-0.6-0.2-0.8c-0.2-0.6,0-1,0.2-1.2c0-0.2,0.4-0.8,1-1.2c0.2-0.2,0.6-0.4,0.6-0.4
		c0.6-0.2,0.8-0.2,0.8-0.4s-0.2,0-0.6-0.4c-0.2-0.2-0.4-0.4-0.8-0.8c0-0.2-0.2-0.4-0.2-0.6c0-0.6,0.4-0.6,1.2-1.6
		c0.2-0.4,0.4-0.4,0.6-0.6c0.6-0.2,1.2,0,1.2,0s-0.6,0-0.8-0.4l0,0c-0.2-0.6,1.8-1.8,1.8-1.8c0.2-0.2,1.6-1.6,3.3-1.4
		c0.2,0,0.4,0,0.8,0.2c0.2-0.2,0.2-0.4,0.4-0.6c0.4-1,0.8-2,1.2-2.8c0.2-0.2,0.4-0.4,0.4-0.6l0,0c0.2,0,0.4,0,0.6,0.2
		c0,0.2-0.2,0.4-0.2,0.6c-0.4,1-0.8,2-1.2,2.8c0,0.2,0,0.4-0.2,0.6c0.2,0,0.4-0.2,0.6,0c0,0,0.2,0,0.6,0.2s0.6,0.4,0.8,0.6
		c0.2,0.2,0.6,0.4,0.8,1c0.2,0.4,0.4,0.8,0.4,1s0.2,0.6,0.2,1c0,0.6,0,1-0.4,1.2c-0.2,0.2-0.2,0.2-0.4,0.2c-0.4,0.2-1,0.4-1.8,0.4
		l-0.2-0.8c-0.2,0.2-0.4,0.4-0.8,0.8c-0.2,0.2-0.4,0.6-0.6,1c-0.8,1.2-0.8,2.2-1.2,2.2c-0.2,0-0.2-0.4-0.4-0.4c0,0,0.2,0.4,0.2,0.8
		c0.2,0.4,0.2,0.6,0.2,1c0,0.2,0,0.4-0.2,0.8c0,0.2-0.2,0.4-0.2,0.8c-0.2,0.4-0.2,0.6-0.4,0.8c-0.2,0.2-0.6,0.4-0.8,0.6
		c-0.4,0.2-0.4,0.2-0.6,0.2c-0.6,0-0.8-1-1-1c0,0,0,0.2-0.2,0.4c-0.2,0.4-0.2,0.4-0.2,0.4c-0.2,0.2-0.2,0.2-0.2,0.4s0.2,0.2,0.2,0.4
		c0.2,0.2,0.2,0.2,0.4,0.6c0,0.2,0.2,0.4,0.4,1c0.2,0.6,0.2,0.8,0.2,1.2c0,0.2-0.2,0.4-0.2,0.8c-0.2,0.4-0.2,0.6-0.6,1
		c-0.4,0.8-0.6,0.8-0.6,0.8s0-0.2-0.2-0.6c-0.2-1.2-0.2-1.2-0.2-1.2s-0.2,0-0.6,0.4s-0.4,0.6-0.8,0.8c-0.2,0.2-0.2,0.2-0.4,0.6
		c-0.6,0.6-0.6,0.8-0.6,0.8s0.2,0,0.4,0.2c0,0,0.2,0,0.2,0.4c0,0.2,0.2,0.2,0.2,0.6c0.2,0.4,0.2,0.4,0.2,0.6s0,0.2,0,0.6
		c0,0.4,0,0.6,0,0.6c0,0.2-0.2,0.4-0.4,0.6c-0.2,0.2-0.4,0.4-0.4,0.4c-0.2,0.2-0.4,0.2-0.6,0.4c-0.2,0-0.2,0.2-0.6,0.2
		s-0.6,0.2-0.8,0.2c-0.2,0-0.6,0-1,0.2c-1,0.2-1.2,0.2-1.4,0.2c-0.2,0-0.6,0-0.6,0c-0.8,1.8-1.6,3.5-2.6,5.3"/>
	<path class="st3" d="M525.7,168.8c0-3.5-0.2-7.3-0.2-10.8c-0.6-1.8-1.4-4.1-1.6-7.1c-0.4-3.9,0.4-6.9,0.6-7.7
		c0.6-2.6,1.2-3.3,3.1-7.5c1.2-2.6,2.8-6.3,3.9-10c0.8-2.4,1.6-6.1,1.8-10.8c-0.6-3.1-1.2-6.3-2-9.4c-1-1.4-2-2.8-2.9-4.3
		c-1-0.8-2.2-1.6-3.1-2.6c0.2-0.6,0.2-1.2,0.4-1.8c-0.6-0.4-1.2-0.8-1.6-1.2c-0.8,0-1.6,0.2-2.4,0.2c-1.2-0.2-2.2-0.4-3.3-0.6
		c-1.6-2.2-2.9-4.5-4.5-6.7c-3.1-2.2-6.1-4.3-9.2-6.3l-6.9-2l-9,2.8l-7.9,5.7l-5.7,5.3l-0.4,1c-1,3.3-2.2,6.9-3.1,10.2
		c-0.2,2.9-0.4,6.1-0.6,9c1.6,6.1,2.4,9,2.6,10.8c0,0.6,0.4,2,1,3.9c0.4,1,0.8,2,1,2.8c0,0.6,0.2,1.6,1,2.4c0.4,0.2,0.8,0.6,2.9,0.8
		l3.7,0.4l2.8-0.2l1.2-1v1.8c-1.8,1.4-3.9,2.8-6.3,4.1c-2.6,1.4-4.9,2.6-7.1,3.3c0.8,0.4,1.8,1.2,2.8,2.6c1.4,1.8,1.8,3.5,2,4.5
		c0,0.4,0,0.8,0,1l0,0l-3.1,1.2l0.4,2.6c-0.2,1.8-0.2,3.5-0.4,5.5c-0.8,2.8-2,5.9-3.7,9.2c-1.2,2.2-2.2,3.9-3.3,5.7
		c-0.8,3.5-1.6,7.1-2.4,10.6c-0.4,3.5-0.8,7.1-1.2,10.4"/>
	<path class="st4" d="M510.5,131.9c0.2-2.2,0.6-4.3,0.8-6.5c1.2-1.6,2.4-3.3,3.5-4.9c1-1.4,2-2.8,2.8-4.1c0.6-1.8,1.4-3.7,2-5.5
		s1.2-3.5,1.8-5.3c0.2,1.2,0.6,2.2,0.8,3.3c0,1.4-0.2,2.6-0.2,3.9c-0.6,1.6-1.2,2.9-2,4.5c-0.8,1.8-1.4,3.3-2.2,5.1
		c-0.8,1.4-1.4,2.6-2.2,3.9c-0.2,1.2-0.4,2.6-0.4,3.9c-0.2,2.4-0.2,4.5,0,6.3"/>
	<path class="st5" d="M474.8,95.2c1.6-0.4,3.1-1,4.5-1.4l2.6-0.8v2.4l6.1,2.8l-0.4,3.7l0.4,3.7l5.3,1.8l2.6,0.6l-1,5.1
		c1.2,0.8,2.4,1.6,3.5,2.2c1.2-1.8,2.4-3.5,3.5-5.3l2-0.4l1.2,0.4l1.4,0.6l0.6,1.2l0.4,2c0,1,0,2,0,2.8c0.2,2.8-0.4,4.1-1,5.1
		c-0.4,0.4-1,1-1.4,2c-0.2,0.4-0.2,0.8-0.2,1c0,0.6,0,1,0,1.6c1,1,1.8,1.8,2.8,2.8c1,0.2,2.2,0.4,3.1,0.8"/>
	<path class="st3" d="M487.2,136c0.2,1.2,0.6,2.4,0.8,3.5c-0.2,2.6-0.4,5.1-0.6,7.7"/>
	<g id="Hut_3_">
		<polyline class="st6" points="687.1,68.8 684,69.2 686.3,67.5 690.7,64.9 694.8,63 697.9,62.4 701.5,62.2 706,62.2 707.8,62.4 
			709.5,63 709.5,63.9 		"/>
		<path class="st6" d="M684,69.2l-2.8,0.6l-3.9,1.2l-5.9,3.3l-5.7,3.1L660,82l-0.4,0.6l-2.8,3.3l-1.4,3.7v0.8l3.9,2.6l5.7-6.9
			l5.1-4.9l7.3-5.7l8.8-6.3l8.3-3.5l9.2-1.8l5.9-0.2l-0.2,2l-1.2,1.2l-1.6,0.8c-2.4,1.6-4.5,2.9-6.9,4.5"/>
		<path class="st6" d="M658.8,83c-0.8-1.8-1.6-3.5-2.4-5.1l-2.6-5.7l-0.2-3.1l2.2-6.5l3.1-4.3l4.7-4.5l6.1-3.5l5.5-2.2l3.9-1.4
			l2.9-0.6h1l1.4,0.8l1.4,1.6l2.8,2.6l2.9,3.3c2.8,2.6,5.3,5.1,8.1,7.9"/>
	</g>
	<path class="st6" d="M669.1,117.6c-2.4-0.8-4.7-1.6-7.3-2.2c-6.3,3.7-12.6,7.5-18.9,11.2c-1,2.2-2,4.3-2.9,6.7
		c-0.4,3.7-0.6,7.3-1,11c-1,4.7-2.2,9.4-3.1,14.3c1,7.7,2.2,15.5,3.1,23.2c-1,3.7-2.2,7.3-3.1,11c-1,2-2,5.1-2.4,9
		c-0.4,4.3,0.4,7.9,1,10c0.8,2.6,1.6,4.9,2.2,7.5c2.6,2.4,5.1,4.7,7.7,7.1l-2.8,12.2l-1.8,14.7L638,271l-3.3,19.3l-2.4,16.9l-1,13.8
		l-1.8,12.6c-0.4,1.8-1,4.3-0.8,7.5c0.2,2.2,0.4,3.9,0.8,5.3c1.2,0.4,2.9,1,5.3,1.6c4.3,1,7.1,0.8,10.6,0.8c7.1,0.2,7.1,1,13.4,1.2
		c3.3,0.2,7.9,0,13.8-0.6c0.4-0.6,1-1.4,1.4-2c5.1-9,3.1-19.4,1.4-25.5c0.4-3.9,0.8-8.1,1.4-12v-24v-18.3l0.4-16.3l1.6-19.1
		l0.6-15.7V200v-18l-2.9-15.5C673.8,150,671.4,133.9,669.1,117.6z"/>
	<path class="st6" d="M703.8,117c0,3.3,0,6.9,0,10.2l-2,9.6l-2.9,12l-3.9,12.4l-1.4,10.2l1.2,10.4l3.1,8.4l2,7.9v14.3l-1,13.6
		l-1.4,15.9l-2.6,18.3l-2.2,11.4l-0.8,9.8l-1.4,13.2l-2,11.2l-2.9,11.4l-1.8,10.6l-0.6,12.2c0.6,1.4,1.2,2.8,1.8,4.3
		c1.6,0.6,3.5,1.2,5.5,1.6c6.3,1.4,11.8,1.2,15.9,0.6c5.1-0.6,10-1,15.1-1.6c2.9,0,6.5-0.4,10.2-1.6c1.2-0.4,2.4-0.8,3.5-1.2
		c0.4-0.8,1-1.6,1.4-2.6c1.2-3.3,0.6-6.3,0.2-7.7c-0.6-3.7-1.2-7.5-1.8-11.2l-1.2-18.9l-1.6-18.7c0,0-0.2-20.4-0.2-20.8
		c0-0.2,1.2-21.2,1.2-21.2l3.1-17.5l2.2-7.1c0.6-2.9,1-6.1,1.6-9c-0.4-2.8-0.6-5.3-1-8.1c-1-1.8-2-3.5-2.9-5.3
		c-1-2.2-2.2-4.3-3.1-6.5c-0.6-4.7-1-9.2-1.6-13.9l-2.9-15.1l-3.1-13.6L722,131l-2.2-5.5l-5.3-3.5l-6.5-4.9
		c-0.2-0.2-0.4-0.6-0.6-0.8c-0.2-0.4-0.4-0.6-0.6-0.6c-1.6-1.6-1.6-1.6-2-1.6c-0.6-0.2-1.2,0.4-1.2,0.4
		C703.8,115.4,703.8,116.4,703.8,117z"/>
	<polyline class="st6" points="679.3,210.1 691.5,210.1 700.1,210.1 	"/>
	<polyline class="st6" points="676.5,291.2 682.4,279.8 686,266.3 688.1,285.3 690.3,298.3 	"/>
	<path class="st6" d="M675.9,342.9c1,0.2,2,0.4,2.9,0.4c1,0,2,0.2,2.8,0.2l0.8-0.2c0,0,2.6-0.4,2.8-0.4"/>
	<path class="st6" d="M690.1,345.4c-1.8,2.8-3.3,5.5-5.1,8.3l-1.6,17.1l-2,17.1l-2.2,14.7l8.8,3.5h8.6h3.1l1.4-10l2.6-20l4.5-14.1
		c0-5.3,0-10.6,0-15.9"/>
	<path class="st6" d="M634.3,347.4c-0.8,5.3-1.6,10.8-2.4,16.1l-1.6,20.4l-2.8,13.4l-1.2,7.7l1.8,4.5l10.4,2.6h8.6h3.5v-11.4
		l3.1-19.6l3.1-12l-1-9.4l1-5.5c0.8-1.6,1.6-2.9,2.2-4.5"/>
	<path class="st6" d="M703.8,117l-2.6,1l-2,1.8c-0.6,1.4-1.2,2.6-1.8,3.9c-1,1-2.2,2.2-3.1,3.1l-2.9,0.6c-1.2,0.2-2.4,0.4-3.5,0.6
		c-1.6-0.2-3.1-0.6-4.5-0.8c-1.2-0.4-2.4-1-3.7-1.4"/>
	<path class="st6" d="M658.1,92.4c0,1.4,0,2.6,0,3.9l-0.4,1c-0.2,0.2-0.6,0.4-0.8,0.6c-0.2,0.4-0.4,1-0.6,1.6
		c-0.2,0.8-0.6,1.4-0.8,2c0,0-0.4,1.6-0.4,2s0,3.5,0,3.5l0.4,1.4c0,0,0.6,1,0.6,1.4s0.8,1.8,1,2s1.4,1.8,1.4,1.8s0.6,0.6,1,0.8
		c0.4,0.2,0.6,0.4,0.6,0.4c0.6,0.2,1.4,0.6,2,0.8"/>
	<path class="st6" d="M700.9,75.5l-0.2-0.6c0,0-0.6-1.4-0.6-1.6c-0.2-0.8-0.4-1.6-0.6-2.4v-1.8v-0.6v-2.2c-0.2-0.6-0.4-1-0.6-1.6"/>
	<path class="st6" d="M702.5,84.2c0-0.2,0-0.4,0-0.4l-0.4-1.8l-0.4-2.6l-0.4-1c0-0.4-0.2-0.8-0.2-1.4"/>
	<path class="st6" d="M698.9,120.7l-2.4-2.2l-1.4-2.2l-0.4-2.8v-2.6l-0.4-2.4v-2.2l1.4-0.4h1.2l2.2-0.8l0.8-0.8l1-1.6v-2.8l0.8-2.8
		l0.4-2.8l0.4-2.2v-3.3v-2V86c0-0.4-0.2-1-0.2-1.4"/>
	<path class="st6" d="M676.5,81.8l7.3-1.8l0.4,4.5l0.8,1.6l1.2,1l1,0.6h2h2.2l1.6-0.4l1-0.8l0.6-0.8L695,84v-1.2v-1.2l2.4-0.6
		l0.4,1.2l0.8,1.4l1,1c0,0,0.6,0.8,0.8,0.8s2.4,0.4,2.4,0.4L705,86l1.2-0.4l1-1l0.6-0.8c0.2-0.6,0.4-1.4,0.6-2.2
		c0.2-1.2,0.2-2.2,0.2-2.9s0-1.4-0.2-2s-0.4-1-0.6-1.4c-1-0.2-2-0.4-2.9-0.6c-1,0.2-2,0.4-2.9,0.6c-0.6,0.2-1.2,0.4-1.6,0.6l-1.4,1
		l-0.8,1l-3.3,0.8l-1.6-1l-0.8-0.4l-1.4-0.2h-2.2l-3.3,0.4l-2.4,0.4l-1.4,0.6c-1.6,0.4-3.3,1-4.9,1.4"/>
	<path class="st6" d="M630.8,410.3v3.5l-0.8,4.5v2.6l-0.8,3.1l-0.8,2.9l-1,1.6l-1,1.4c-1,0.6-2,1.2-2.9,1.8c-0.8,0.6-1.8,1.2-2.6,2
		s-1.6,1.6-2.6,2.2c-0.8,0.8-1.6,1.6-2.4,2.4c-0.8,0.6-1.6,1-2.4,1.6l-2.8,1.4c0,0-3.1,1.2-3.5,1.4c-0.4,0.2-2.9,1.6-2.9,1.6
		s-1,1.6-1,2.2s0,2.6,0,2.6l-0.8,2.9v1.2l0.6,1.2l1.8,0.8l4.5,0.6h3.9h3.7l5.3-0.6l5.3-1.6l7.7-3.3l6.7-4.3l1-2.8v-3.5l-1-0.8
		l0.2-3.1c0-2.4,0-4.5,0-6.9c0.2-2.6,0.6-5.1,0.8-7.7c0-1.2,0.2-2.6,0.6-4.1c0.4-1.2,0.6-2,1-2.8c0-0.6,0-1.4,0-2"/>
	<polyline class="st6" points="627,429.1 628.4,429.5 631.3,431.7 633.1,434.6 635.7,439.9 636.4,443.1 642.3,438.6 	"/>
	<polyline class="st6" points="603.6,449.8 608.9,450.9 615.4,450.9 620.7,450.9 630.4,447.2 636.4,443.1 	"/>
	<path class="st6" d="M680.5,403.2v5.1l-0.8,4.5l-1,3.1c-0.4,1-0.8,2-1.2,2.8c-0.4,1.2-1,2.6-1.4,3.7v4.3v1.2v1v1.2l-0.2,0.8
		l-0.6,2.6v3.1v6.3l1.4,3.1l2,4.7l2.2,1l5.7,1.4l5.5-0.6l3.7-0.4l2.6-1.6l0.4-3.9l-1.2-2.4l-2.6-5.1l-1.6-2.9l-0.8-2.8l-0.6-2.8
		l-1.2-4.3l-0.6-1.2l-0.2-3.7l-0.2-5.5l1-2.8c1-2.6,2-4.9,2.9-7.5"/>
	<polyline class="st6" points="690.5,425.6 686.7,423.8 681.8,424.2 679.9,425.4 678.1,428.1 676.3,430.3 	"/>
	<polyline class="st6" points="675.9,431.7 676.3,436.8 677.7,440.9 678.9,443.1 680.8,445.2 684.2,446.6 689.9,447 693.8,446.6 
		696.4,445.4 697.1,443.3 	"/>
	<path class="st6" d="M676.9,75.9c0,0.6,0,1.4,0,2c0,0-0.4,2-0.4,2.2s0,1.8,0,1.8l-0.6,1.6c0,0-0.8,0.6-0.8,1s-1,1.6-1,1.6v0.8
		l-1,1.4l-0.6,2.4c0,0,0.6,1.2,0.6,1.6c0,0.2,0.4,1.4,0.6,1.6s0.6,0.6,0.8,0.8c0.2,0.2,0,0.2,1,0.8c1,0.6,1.6,1.2,1.6,1.2l1.4,2.2
		l-0.2,0.8c0,0,0.2,0.6,0.2,1s-0.2,0.2-0.2,1.2s0.2,0.6,0,1.6c0,1,0,1,0,1.4c0,0.2,0.6,0.4,0.6,1.2c0.2,0.8,0,1,0.4,1.6
		c0.4,0.8,0.8,1,0.8,1.6s0,0.2,0,1.2s0.2,0.2,0,1v5.3l-0.6,2.2l-0.2,2.9c0,0-0.2,2.2,0,2.4c0.6,0.8,0.2,1.4,0.4,2.2
		c0.2,0.8,0.2,2,0,3.5c-0.4-0.2-0.8-0.2-1.2-0.4l-0.4-2.8c0-1.2-0.2-2.4-0.2-3.5c-0.4,0-0.6-0.2-1-0.2l-1.6,2.8l-1.6,2.4v1.8l0.2,2
		v3.5l0.6,2.8v1.8c-0.2,0.6-0.6,1.2-0.8,1.6c-0.2-0.2-0.4-0.4-0.6-0.4c0,0,0.2-2.4,0-2.6c-0.2-0.2-0.2-1.4-0.4-1.6
		c0-0.2-1-2.9-1-2.9c-0.2-0.8-0.6-1.6-0.8-2.4"/>
	<path class="st6" d="M699.9,72.2c-1.2-1-2.4-2.2-3.7-3.1c-1.6-0.8-2.9-1.4-4.5-2.2"/>
	<path class="st6" d="M702.5,94c0.2,1,0.4,2.2,0.6,3.1l1.6,2.2l1.6,1.6c0,0,0.8,1.6,1,1.8c0.2,0.2,1.4,1.6,1.6,2
		c0.2,0.4,0.8,1.8,0.8,1.8l0.4,3.9c0,0,0.4,2.9,0.4,3.3s0,2.9,0,2.9c0,0.8-0.2,1.6-0.2,2.4"/>
	<path class="st6" d="M685.4,79.3c0,0.2-0.2,0.4-0.2,0.8c-0.4,1.6-0.2,2.9,0,4.1l1,1.4l1.4,0.8l3.7-0.2l1.2-0.4
		c0.4-0.6,0.8-1,1.4-1.6c0-1.2,0-2.4,0.2-3.5c-0.2-0.4-0.2-1-0.4-1.4l-1.2-0.6c-2-0.2-4.1-0.2-6.3,0.4
		C685.6,79.1,685.4,79.3,685.4,79.3z"/>
	<path class="st6" d="M698.3,79.1c0,0.6,0.2,1,0.2,1.6l0.8,1.6l1.2,1.2l1.2,0.8l2,0.4c0.4,0,1-0.2,1.4-0.2c0.4-0.2,0.6-0.4,1-0.6
		c0.2-0.6,0.4-1,0.6-1.6c0-0.8,0.2-1.8,0.2-2.6v-1.6c0-0.4-0.2-0.8-0.2-1.2c-0.6-0.2-1.2-0.4-1.8-0.6c-0.8,0.2-1.8,0.4-2.6,0.6
		c-0.8,0.4-1.6,0.8-2.6,1.2C699.1,78.1,698.7,78.5,698.3,79.1z"/>
	<path class="st7" d="M752.3,401.4c2.4,0.6,4.7,1.4,7.1,2c3.7,0,7.5,0,11.2,0c-0.4,0.6-0.8,1.2-1,2.2c-0.2,0.8-0.4,1.4-0.4,2
		c0,0.4,0,0.8,0.2,1.6c0.2,0.6,0.6,1,0.8,1.2c0.8,0.2,1.4,0.4,2.2,0.6c0.8,0,2,0,3.1-0.6c0.4-0.2,0.8-0.4,1-0.6c0.2,0,0.6-0.2,1-0.8
		c0.4-0.6,0.4-1.4,0.4-1.6c0-0.4-0.2-0.8-0.4-1.4c-0.4-1-1-1.8-1.4-2.2c0.2,0,0.4,0,0.6,0c1.2,0.2,2.4,0.4,3.5,0.8
		c1.6,0.4,3.3,0.8,4.9,1.2c1.2-1.2,2.6-2.2,3.7-3.3c1.4-0.6,2.8-1.4,4.1-2"/>
	<path class="st7" d="M740.8,399.5c1.8,0.4,3.7,0.8,5.5,1.4"/>
	<path class="st6" d="M747.4,396.7c-0.2,1.6-0.8,3.5-2,5.3c-0.2,0.2-0.2,0.4-0.4,0.6s-0.6,0.6-0.8,1.2c-0.4,1-0.4,1.8-0.2,2.2
		c0.2,1.2,0.8,2,1,2.2c0.4,0.2,0.8,0.4,1.2,0.6c1,0.4,2,0.4,2.6,0.4c0.4,0,1,0,1.8,0c0.4-0.2,0.8-0.2,1.2-0.4
		c0.2-0.2,0.8-0.6,1.2-1.2c0.2-0.4,0.4-0.6,0.4-1s0.2-0.8,0.2-1.4l0,0c0,0,0-0.4,0-0.6s-0.4-1.4-1-3.1c0-1.2,0-2.4-0.2-3.5"/>
	<path class="st6" d="M778.3,399.5c-0.8-2.2-1.6-4.3-2.2-6.5c0,2.2,0.2,4.1,0.2,6.3c1.2,0.2,2.2,0.2,3.3,0.4h2.6l6.5,0.6l4.7,0.6
		l0.6,2.4l1.8,10.8l1.8,11.2l0.8,11.4l1,11.4v2.6l-4.9,4.3l-7.1,3.9h-2.6l-7.3-1l-17.7-3.1l-16.3-2.9l-10.6-1.8l-2.2-2v-6.3l1-6.3
		l0.4-8.6l0.6-9l0.4-5.5l1-4.5l1.2-6.1l0.4-2.2l2.9-0.2l2,0.4l0.4-1.2l-0.2-1.6c2.2,0,4.3,0,6.5,0"/>
	<path class="st6" d="M756.1,397.1c0-2.2,0-4.3,0-6.5v-4.3l0.8-4.9l0.8-4.5l2-4.3l1.8-3.5c1-0.2,1.8-0.4,2.8-0.6
		c0.6,0.2,1.4,0.6,2,0.8l2.2,5.3l0.6,6.3l0.6,4.3l1,6.3v3.9l0.6,4.3c-0.2,1.2-0.2,2.6-0.4,3.7"/>
	<path class="st6" d="M782,399.7c-0.8-2.6-1.4-4.9-2.2-7.5c-0.8-1.6-1.4-3.3-2.2-4.9c-1-2.2-1.8-4.3-2.8-6.5c-0.4-1.8-1-3.7-1.8-5.9
		c-0.6-1.6-1.2-3.1-1.8-4.5l-2.8-3.1l-2.6-1.8h-4.3L760,367l-3.3,4.1c-0.8,1.4-1.4,2.9-2.2,4.3c-0.4,1.4-1,2.6-1.4,3.9
		c-0.6,2.2-1.4,4.1-2,6.3l-2,4.5l-0.6,2.2c-0.2,1.4-0.6,2.9-0.8,4.3"/>
	<path class="st6" d="M776.1,399.3"/>
	<path class="st6" d="M774.7,379.2l0.8,8.8l0.4,4.7"/>
	<path class="st6" d="M785.5,406.1l-0.8,7.3c-0.2,5.3-0.2,10.6-0.4,15.9l1.6,10.8v6.3l1.2,11.4c0,0.4,0.2,0.6,0.2,1"/>
	<path class="st6" d="M752.3,397.9c0.2-2,0.4-4.3,1.2-6.9c0.8-2.9,2-5.3,2.9-7.1"/>
	<line class="st6" x1="776.1" y1="399.3" x2="776.5" y2="404"/>
	<path class="st6" d="M752.3,397.1h4.1l2,1.2h4.3c2.2,0,4.3,0,6.5,0c0.6,0,1.2,0.2,1.8,0.2"/>
	<polyline class="st6" points="644.3,226.2 648.8,222.7 654.1,220.1 659.6,214.8 	"/>
	<line class="st6" x1="706.4" y1="76.5" x2="701.3" y2="78.1"/>
</g>
</svg>
